<?xml version="1.0" encoding="UTF-8" standalone="no"?>
<!-- Created with Inkscape (http://www.inkscape.org/) -->

<svg
   xmlns:dc="http://purl.org/dc/elements/1.1/"
   xmlns:cc="http://creativecommons.org/ns#"
   xmlns:rdf="http://www.w3.org/1999/02/22-rdf-syntax-ns#"
   xmlns:svg="http://www.w3.org/2000/svg"
   xmlns="http://www.w3.org/2000/svg"
   version="1.1"
   width="250"
   height="500"
   id="svg8552">
  <defs
     id="defs8554" />
  <metadata
     id="metadata8557">
    <rdf:RDF>
      <cc:Work
         rdf:about="">
        <dc:format>image/svg+xml</dc:format>
        <dc:type
           rdf:resource="http://purl.org/dc/dcmitype/StillImage" />
        <dc:title></dc:title>
        <cc:license
           rdf:resource="http://creativecommons.org/licenses/publicdomain/" />
      </cc:Work>
      <cc:License
         rdf:about="http://creativecommons.org/licenses/publicdomain/">
        <cc:permits
           rdf:resource="http://creativecommons.org/ns#Reproduction" />
        <cc:permits
           rdf:resource="http://creativecommons.org/ns#Distribution" />
        <cc:permits
           rdf:resource="http://creativecommons.org/ns#DerivativeWorks" />
      </cc:License>
    </rdf:RDF>
  </metadata>
  <g
     transform="translate(-2.850813,-2)"
     id="g3785">
    <path
       d="M 137.13138,142.23941 z"
       id="path9935"
       style="fill:#ffffff;stroke:#ffffff;stroke-width:1px;stroke-linecap:round;stroke-linejoin:round;stroke-opacity:1;display:inline" />
    <path
       d="m 128.65334,58 c -16.48521,0 -29.875004,13.3898 -29.875004,29.875 0,16.22227 12.971174,29.42593 29.093754,29.84375 l 0,7.65625 0.59375,0 -43.906254,7.25 -0.15625,0 -0.125,0.0937 c 0,0 -2.946962,1.50236 -4.4375,2.21875 -0.134424,0.0646 -0.308081,0.0752 -0.40625,0.1875 -0.09326,0.10666 -0.08377,0.2707 -0.125,0.40625 -0.515915,1.69625 -1.53125,5.09375 -1.53125,5.09375 l -0.0625,0.1875 0,0.21875 14.875,140.25 0.0937,0.875 0.90625,0 67.906254,0 0.875,0 0.125,-0.875 15.53125,-139.125 0,-0.1875 -0.0312,-0.1875 -0.1875,-0.6875 c -0.002,-0.0204 0.002,-0.0421 0,-0.0625 -0.10586,-0.97434 -0.36509,-1.88918 -0.75,-2.75 l -0.40625,-1.59375 -0.0625,-0.3125 -0.25,-0.21875 -3.09375,-2.65625 -0.21875,-0.15625 -0.25,-0.0625 -42.90625,-7.90625 0,-7.65625 c 15.91885,-0.64346 28.65625,-13.76861 28.65625,-29.84375 0,-16.4852 -13.3898,-29.875 -29.875,-29.875 z m 0,2 c 15.40432,0 27.875,12.47068 27.875,27.875 0,15.40433 -12.47068,27.875 -27.875,27.875 -15.40433,0 -27.875,-12.47067 -27.875,-27.875 0,-15.40432 12.47067,-27.875 27.875,-27.875 z m 5.4375,68.1875 30.3125,5.59375 c -3.00521,1.53764 -5.09375,4.65031 -5.09375,8.25 0,5.11432 4.16694,9.28125 9.28125,9.28125 2.6293,0 4.99715,-1.11048 6.6875,-2.875 l -14.6875,131.71875 -27.6875,0 c 2.89208,-1.57354 4.875,-4.64016 4.875,-8.15625 0,-5.11431 -4.16693,-9.28125 -9.28125,-9.28125 -5.11431,0 -9.28125,4.16694 -9.28125,9.28125 0,3.5161 1.98292,6.58271 4.875,8.15625 l -29.593754,0 -13.96875,-131.875 c 1.698211,1.85908 4.134741,3.03125 6.84375,3.03125 5.11431,0 9.28125,-4.16693 9.28125,-9.28125 0,-3.7718 -2.25938,-7.01973 -5.5,-8.46875 l 32.343754,-5.34375 c -2.39631,1.67979 -3.96875,4.45319 -3.96875,7.59375 0,5.11432 4.16693,9.28125 9.28125,9.28125 5.11431,0 9.28125,-4.16693 9.28125,-9.28125 0,-3.1562 -1.58352,-5.9479 -4,-7.625 z m -5.28125,0.34375 c 4.03344,0 7.28125,3.24781 7.28125,7.28125 0,4.03344 -3.24782,7.28125 -7.28125,7.28125 -4.03344,0 -7.28125,-3.24781 -7.28125,-7.28125 0,-4.03344 3.24782,-7.28125 7.28125,-7.28125 z M 87.372086,134.75 c 4.03344,0 7.28125,3.24781 7.28125,7.28125 0,4.03344 -3.24781,7.28125 -7.28125,7.28125 -4.033436,0 -7.28125,-3.24781 -7.28125,-7.28125 0,-4.03344 3.247814,-7.28125 7.28125,-7.28125 z m 81.218754,0 c 2.92424,0 5.43428,1.71212 6.59375,4.1875 l 0.65625,2.59375 c 0.0111,0.16529 0.0312,0.33179 0.0312,0.5 0,4.03344 -3.24781,7.28125 -7.28125,7.28125 -4.03343,0 -7.28125,-3.24781 -7.28125,-7.28125 0,-4.03344 3.24782,-7.28125 7.28125,-7.28125 z m -40.09375,129.96875 c 4.03344,0 7.28125,3.24781 7.28125,7.28125 0,4.03344 -3.24782,7.28125 -7.28125,7.28125 -4.03344,0 -7.28125,-3.24781 -7.28125,-7.28125 0,-4.03344 3.24782,-7.28125 7.28125,-7.28125 z"
       id="path9937"
       style="font-size:medium;font-style:normal;font-variant:normal;font-weight:normal;font-stretch:normal;text-indent:0;text-align:start;text-decoration:none;line-height:normal;letter-spacing:normal;word-spacing:normal;text-transform:none;direction:ltr;block-progression:tb;writing-mode:lr-tb;text-anchor:start;baseline-shift:baseline;color:#000000;fill:#ffffff;fill-opacity:1;stroke:#ffffff;stroke-width:2;marker:none;visibility:visible;display:inline;overflow:visible;enable-background:accumulate;font-family:Sans;-inkscape-font-specification:Sans" />
    <path
       d="m 185.23603,135.19244 c -5.11431,0 -9.2786,4.16429 -9.2786,9.2786 0,5.11432 4.16429,9.2786 9.2786,9.2786 5.11432,0 9.27861,-4.16428 9.27861,-9.2786 0,-5.11431 -4.16429,-9.2786 -9.27861,-9.2786 z m 0,1.99943 c 4.03344,0 7.27918,3.24573 7.27918,7.27917 0,4.03344 -3.24574,7.27917 -7.27918,7.27917 -4.03343,0 -7.27917,-3.24573 -7.27917,-7.27917 0,-4.03344 3.24574,-7.27917 7.27917,-7.27917 z"
       id="path9939"
       style="font-size:medium;font-style:normal;font-variant:normal;font-weight:normal;font-stretch:normal;text-indent:0;text-align:start;text-decoration:none;line-height:normal;letter-spacing:normal;word-spacing:normal;text-transform:none;direction:ltr;block-progression:tb;writing-mode:lr-tb;text-anchor:start;baseline-shift:baseline;color:#000000;fill:#ffffff;fill-opacity:1;stroke:#ffffff;stroke-width:2;marker:none;visibility:visible;display:inline;overflow:visible;enable-background:accumulate;font-family:Sans;-inkscape-font-specification:Sans" />
    <path
       d="m 227.6214,106.69809 c -5.11431,0 -9.27861,4.16429 -9.27861,9.2786 0,5.11432 4.16429,9.2786 9.27861,9.2786 5.11431,0 9.27861,-4.16428 9.27861,-9.2786 0,-5.11431 -4.16429,-9.2786 -9.27861,-9.2786 z m 0,1.99943 c 4.03344,0 7.27917,3.24573 7.27917,7.27917 0,4.03344 -3.24574,7.27917 -7.27917,7.27917 -4.03344,0 -7.27917,-3.24573 -7.27917,-7.27917 0,-4.03344 3.24574,-7.27917 7.27917,-7.27917 z"
       id="path9941"
       style="font-size:medium;font-style:normal;font-variant:normal;font-weight:normal;font-stretch:normal;text-indent:0;text-align:start;text-decoration:none;line-height:normal;letter-spacing:normal;word-spacing:normal;text-transform:none;direction:ltr;block-progression:tb;writing-mode:lr-tb;text-anchor:start;baseline-shift:baseline;color:#000000;fill:#ffffff;fill-opacity:1;stroke:#ffffff;stroke-width:2;marker:none;visibility:visible;display:inline;overflow:visible;enable-background:accumulate;font-family:Sans;-inkscape-font-specification:Sans" />
    <path
       d="m 219.98997,120.63459 -26.82425,18.08097"
       id="path9943"
       style="fill:#ffffff;stroke:#ffffff;stroke-width:2.87107372;stroke-linecap:round;stroke-linejoin:round;stroke-opacity:1;display:inline" />
    <path
       d="m 128.46584,281.8125 0,4.84375 0,-4.84375 z m -31.156254,6.28125 60.906254,0 -60.906254,0 z m 49.437504,1.1875 0,199.28125 0,-199.28125 z m -39.21875,0.53125 0,199.28125 0,-199.28125 z m 6.09375,0 0,199.28125 0,-199.28125 z m 27.53125,0 0,199.28125 0,-199.28125 z m -60.125004,200.03125 0,8.65625 89.187504,0 0,-8.65625 -89.187504,0 z"
       id="path9949"
       style="fill:none;stroke:#ffffff;stroke-width:3;stroke-linecap:round;stroke-linejoin:round;stroke-opacity:1;display:inline" />
    <path
       d="m 70.073023,135.19244 c 5.11431,0 9.2786,4.16429 9.2786,9.2786 0,5.11432 -4.16429,9.2786 -9.2786,9.2786 -5.11432,0 -9.27861,-4.16428 -9.27861,-9.2786 0,-5.11431 4.16429,-9.2786 9.27861,-9.2786 z m 0,1.99943 c -4.03344,0 -7.27918,3.24573 -7.27918,7.27917 0,4.03344 3.24574,7.27917 7.27918,7.27917 4.03343,0 7.27917,-3.24573 7.27917,-7.27917 0,-4.03344 -3.24574,-7.27917 -7.27917,-7.27917 z"
       id="path9951"
       style="font-size:medium;font-style:normal;font-variant:normal;font-weight:normal;font-stretch:normal;text-indent:0;text-align:start;text-decoration:none;line-height:normal;letter-spacing:normal;word-spacing:normal;text-transform:none;direction:ltr;block-progression:tb;writing-mode:lr-tb;text-anchor:start;baseline-shift:baseline;color:#000000;fill:#ffffff;fill-opacity:1;stroke:#ffffff;stroke-width:2;marker:none;visibility:visible;display:inline;overflow:visible;enable-background:accumulate;font-family:Sans;-inkscape-font-specification:Sans" />
    <path
       d="m 31.593113,184.27909 c 5.11431,0 9.27861,4.16429 9.27861,9.2786 0,5.11432 -4.16429,9.2786 -9.27861,9.2786 -5.11431,0 -9.27861,-4.16428 -9.27861,-9.2786 0,-5.11431 4.16429,-9.2786 9.27861,-9.2786 z m 0,1.99943 c -4.03344,0 -7.27917,3.24573 -7.27917,7.27917 0,4.03344 3.24574,7.27917 7.27917,7.27917 4.03344,0 7.27917,-3.24573 7.27917,-7.27917 0,-4.03344 -3.24574,-7.27917 -7.27917,-7.27917 z"
       id="path9953"
       style="font-size:medium;font-style:normal;font-variant:normal;font-weight:normal;font-stretch:normal;text-indent:0;text-align:start;text-decoration:none;line-height:normal;letter-spacing:normal;word-spacing:normal;text-transform:none;direction:ltr;block-progression:tb;writing-mode:lr-tb;text-anchor:start;baseline-shift:baseline;color:#000000;fill:#ffffff;fill-opacity:1;stroke:#ffffff;stroke-width:2;marker:none;visibility:visible;display:inline;overflow:visible;enable-background:accumulate;font-family:Sans;-inkscape-font-specification:Sans" />
    <path
       d="m 63.887463,151.46555 -27.56818,34.27611"
       id="path9955"
       style="fill:#ffffff;stroke:#ffffff;stroke-width:2.87107372;stroke-linecap:round;stroke-linejoin:round;stroke-opacity:1;display:inline" />
    <path
       d="m 30.432043,203.41655 0,63.78723"
       id="path9957"
       style="fill:#ffffff;stroke:#ffffff;stroke-width:2;stroke-linecap:round;stroke-linejoin:round;stroke-opacity:1;display:inline" />
    <path
       d="m 38.791013,293.99428 c 0.0724,0.38943 0.18823,0.85444 0.74856,1.29007 0.41406,0.32191 0.98649,0.55835 1.52895,0.55743 0.64498,-0.001 1.31227,-0.25546 1.81564,-0.66892 0.49934,-0.41018 0.55744,-1.16265 0.55744,-1.16265 0,0 -0.0691,-9.16348 -0.15926,-13.58293 -0.008,-0.39123 -0.35303,-0.70669 -0.60521,-1.00591 -0.52848,-0.62702 -1.07195,-0.97041 -1.86275,-1.60692 -0.79081,-0.63652 -1.55529,-1.06654 -1.95966,-1.51471 -0.80095,-0.88769 -1.01931,-2.03862 -1.01931,-2.03862 l -0.0637,-7.03959 -12.80505,-0.0956 0,6.6255 -5.6062,6.88033 -0.50965,1.27414 0,21.91512 0.76448,1.01931 1.78379,0.25482 1.52895,1e-5 m 15.86298,-18.92087 0,24.84563 m -5.28766,-24.87242 0,24.42647 c 0,0 0.21513,0.8497 0.50966,1.14672 0.36134,0.36439 0.89999,0.52843 1.40154,0.63707 0.45659,0.0989 0.9404,0.0748 1.40155,0 0.33143,-0.0538 0.6839,-0.12126 0.9556,-0.31854 0.49146,-0.35685 1.08302,-1.46525 1.08302,-1.46525 m -10.19308,-24.42607 0,26.71952 c 0,0 0.21513,0.8497 0.50966,1.14672 0.36134,0.36439 0.89999,0.52843 1.40154,0.63707 0.45659,0.0989 0.9404,0.0748 1.40155,0 0.26514,-0.043 0.53321,-0.11821 0.76448,-0.25483 0.32347,-0.19109 0.58221,-0.48051 0.82819,-0.76448 0.26996,-0.31166 0.70077,-1.01931 0.70077,-1.01931 m -10.57532,-26.46509 0,23.91682 c 0,0 0.21513,0.8497 0.50966,1.14672 0.36134,0.36439 0.89999,0.52843 1.40154,0.63707 0.45659,0.0989 0.9404,0.0748 1.40155,0 0.26514,-0.043 0.50658,-0.17973 0.76448,-0.25483 0.25219,-0.0734 0.76448,-0.19112 0.76448,-0.19112"
       id="path9959"
       style="fill:none;stroke:#ffffff;stroke-width:2;stroke-linecap:round;stroke-linejoin:round;stroke-opacity:1;display:inline" />
    <path
       d="M 222.70914,110.25991 171.10002,58.84145"
       id="path3460"
       style="fill:#ffffff;stroke:#ffffff;stroke-width:2;stroke-linecap:round;stroke-linejoin:round;stroke-opacity:1;display:inline" />
    <path
       d="m 144.51293,45.314461 c -0.32654,-0.224205 -0.73725,-0.47114 -1.4415,-0.38311 -0.52027,0.06577 -1.09238,0.302783 -1.47539,0.68674 -0.45543,0.456776 -0.74743,1.108524 -0.81109,1.756804 -0.0632,0.643108 0.42785,1.216246 0.42785,1.216246 0,0 6.52755,6.431618 9.71591,9.493312 0.28225,0.271074 0.74933,0.250195 1.13919,0.283536 0.81705,0.0698 1.4442,-0.07151 2.45349,-0.180561 1.00926,-0.109028 1.85396,-0.345153 2.45675,-0.314502 1.19404,0.06144 2.16219,0.721005 2.16219,0.721005 l 5.0221,4.933379 9.12334,-8.985677 -4.68428,-4.685612 -0.89973,-8.829378 -0.54042,-1.261382 -15.49422,-15.498502 -1.26132,-0.180269 -1.44172,1.080972 -1.08127,1.080946 m 2.1589,24.596164 -17.56615,-17.570871 m 21.32456,13.851396 -17.2698,-17.274388 c 0,0 -0.75293,-0.448768 -1.17119,-0.450645 -0.51308,-0.0019 -1.00984,0.26334 -1.44158,0.540351 -0.39287,0.252809 -0.71798,0.611948 -0.9912,0.990934 -0.19634,0.272332 -0.39792,0.569271 -0.45048,0.900929 -0.0954,0.599818 0.27088,1.801753 0.27088,1.801753 M 157.22488,43.701536 138.33384,24.80544 c 0,0 -0.75291,-0.44876 -1.1712,-0.450614 -0.51311,-0.0019 -1.00984,0.263339 -1.44149,0.540433 -0.39297,0.252748 -0.71799,0.611938 -0.99116,0.990911 -0.15711,0.217972 -0.29352,0.460569 -0.3605,0.720727 -0.0935,0.363798 -0.0721,0.751478 -0.045,1.126181 0.03,0.411098 0.22534,1.216177 0.22534,1.216177 M 160.73984,40.188576 143.8303,23.274569 c 0,0 -0.75285,-0.448765 -1.17109,-0.450714 -0.51312,-0.0019 -1.00992,0.263466 -1.44163,0.540474 -0.39284,0.252778 -0.71794,0.611925 -0.99112,0.99089 -0.15708,0.217879 -0.23131,0.485213 -0.36051,0.720677 -0.12605,0.230429 -0.40542,0.67571 -0.40542,0.67571"
       id="path3462"
       style="fill:none;stroke:#ffffff;stroke-width:2;stroke-linecap:round;stroke-linejoin:round;stroke-opacity:1;display:inline" />
  </g>
</svg>
