<?xml version="1.0" encoding="UTF-8" standalone="no"?>
<!-- Created with Inkscape (http://www.inkscape.org/) -->

<svg
   xmlns:dc="http://purl.org/dc/elements/1.1/"
   xmlns:cc="http://creativecommons.org/ns#"
   xmlns:rdf="http://www.w3.org/1999/02/22-rdf-syntax-ns#"
   xmlns:svg="http://www.w3.org/2000/svg"
   xmlns="http://www.w3.org/2000/svg"
   xmlns:sodipodi="http://sodipodi.sourceforge.net/DTD/sodipodi-0.dtd"
   xmlns:inkscape="http://www.inkscape.org/namespaces/inkscape"
   version="1.1"
   width="250"
   height="500"
   id="svg8552"
   inkscape:version="0.48.2 r9819"
   sodipodi:docname="robots_1.svg">
  <sodipodi:namedview
     pagecolor="#000000"
     bordercolor="#666666"
     borderopacity="1"
     objecttolerance="10"
     gridtolerance="10"
     guidetolerance="10"
     inkscape:pageopacity="1"
     inkscape:pageshadow="2"
     inkscape:window-width="1308"
     inkscape:window-height="859"
     id="namedview3140"
     showgrid="false"
     inkscape:zoom="1"
     inkscape:cx="442.66536"
     inkscape:cy="240"
     inkscape:window-x="0"
     inkscape:window-y="0"
     inkscape:window-maximized="0"
     inkscape:current-layer="svg8552" />
  <defs
     id="defs8554" />
  <metadata
     id="metadata8557">
    <rdf:RDF>
      <cc:Work
         rdf:about="">
        <dc:format>image/svg+xml</dc:format>
        <dc:type
           rdf:resource="http://purl.org/dc/dcmitype/StillImage" />
        <dc:title />
        <cc:license
           rdf:resource="http://creativecommons.org/licenses/publicdomain/" />
      </cc:Work>
      <cc:License
         rdf:about="http://creativecommons.org/licenses/publicdomain/">
        <cc:permits
           rdf:resource="http://creativecommons.org/ns#Reproduction" />
        <cc:permits
           rdf:resource="http://creativecommons.org/ns#Distribution" />
        <cc:permits
           rdf:resource="http://creativecommons.org/ns#DerivativeWorks" />
      </cc:License>
    </rdf:RDF>
  </metadata>
  <g
     transform="translate(345,-242.99972)"
     id="layer2"
     style="display:inline">
    <path
       d="M 137.13138,322.35456 z"
       id="path9195"
       style="fill:#ffffff;stroke:#ffffff;stroke-width:1px;stroke-linecap:round;stroke-linejoin:round;stroke-opacity:1"
       inkscape:connector-curvature="0" />
    <path
       d="m 128.65334,238.11515 c -16.48521,0 -29.875004,13.3898 -29.875004,29.875 0,16.22227 12.971174,29.42593 29.093754,29.84375 l 0,7.65625 0.59375,0 -43.906254,7.25 -0.15625,0 -0.125,0.0937 c 0,0 -2.946962,1.50236 -4.4375,2.21875 -0.134424,0.0646 -0.308081,0.0752 -0.40625,0.1875 -0.09326,0.10666 -0.08377,0.2707 -0.125,0.40625 -0.515915,1.69625 -1.53125,5.09375 -1.53125,5.09375 l -0.0625,0.1875 0,0.21875 14.875,140.25 0.0937,0.875 0.90625,0 67.906254,0 0.875,0 0.125,-0.875 15.53125,-139.125 0,-0.1875 -0.0312,-0.1875 -0.1875,-0.6875 c -0.002,-0.0204 0.002,-0.0421 0,-0.0625 -0.10586,-0.97434 -0.36509,-1.88918 -0.75,-2.75 l -0.40625,-1.59375 -0.0625,-0.3125 -0.25,-0.21875 -3.09375,-2.65625 -0.21875,-0.15625 -0.25,-0.0625 -42.90625,-7.90625 0,-7.65625 c 15.91885,-0.64346 28.65625,-13.76861 28.65625,-29.84375 0,-16.4852 -13.3898,-29.875 -29.875,-29.875 z m 0,2 c 15.40432,0 27.875,12.47068 27.875,27.875 0,15.40433 -12.47068,27.875 -27.875,27.875 -15.40433,0 -27.875,-12.47067 -27.875,-27.875 0,-15.40432 12.47067,-27.875 27.875,-27.875 z m 5.4375,68.1875 30.3125,5.59375 c -3.00521,1.53764 -5.09375,4.65031 -5.09375,8.25 0,5.11432 4.16694,9.28125 9.28125,9.28125 2.6293,0 4.99715,-1.11048 6.6875,-2.875 l -14.6875,131.71875 -27.6875,0 c 2.89208,-1.57354 4.875,-4.64016 4.875,-8.15625 0,-5.11431 -4.16693,-9.28125 -9.28125,-9.28125 -5.11431,0 -9.28125,4.16694 -9.28125,9.28125 0,3.5161 1.98292,6.58271 4.875,8.15625 l -29.593754,0 -13.96875,-131.875 c 1.698211,1.85908 4.134741,3.03125 6.84375,3.03125 5.11431,0 9.28125,-4.16693 9.28125,-9.28125 0,-3.7718 -2.25938,-7.01973 -5.5,-8.46875 l 32.343754,-5.34375 c -2.39631,1.67979 -3.96875,4.45319 -3.96875,7.59375 0,5.11432 4.16693,9.28125 9.28125,9.28125 5.11431,0 9.28125,-4.16693 9.28125,-9.28125 0,-3.1562 -1.58352,-5.9479 -4,-7.625 z m -5.28125,0.34375 c 4.03344,0 7.28125,3.24781 7.28125,7.28125 0,4.03344 -3.24782,7.28125 -7.28125,7.28125 -4.03344,0 -7.28125,-3.24781 -7.28125,-7.28125 0,-4.03344 3.24782,-7.28125 7.28125,-7.28125 z m -41.437504,6.21875 c 4.03344,0 7.28125,3.24781 7.28125,7.28125 0,4.03344 -3.24781,7.28125 -7.28125,7.28125 -4.033436,0 -7.28125,-3.24781 -7.28125,-7.28125 0,-4.03344 3.247814,-7.28125 7.28125,-7.28125 z m 81.218754,0 c 2.92424,0 5.43428,1.71212 6.59375,4.1875 l 0.65625,2.59375 c 0.0111,0.16529 0.0312,0.33179 0.0312,0.5 0,4.03344 -3.24781,7.28125 -7.28125,7.28125 -4.03343,0 -7.28125,-3.24781 -7.28125,-7.28125 0,-4.03344 3.24782,-7.28125 7.28125,-7.28125 z M 128.49709,444.8339 c 4.03344,0 7.28125,3.24781 7.28125,7.28125 0,4.03344 -3.24782,7.28125 -7.28125,7.28125 -4.03344,0 -7.28125,-3.24781 -7.28125,-7.28125 0,-4.03344 3.24782,-7.28125 7.28125,-7.28125 z"
       id="path9190"
       style="font-size:medium;font-style:normal;font-variant:normal;font-weight:normal;font-stretch:normal;text-indent:0;text-align:start;text-decoration:none;line-height:normal;letter-spacing:normal;word-spacing:normal;text-transform:none;direction:ltr;block-progression:tb;writing-mode:lr-tb;text-anchor:start;baseline-shift:baseline;color:#000000;fill:#ffffff;fill-opacity:1;stroke:#ffffff;stroke-width:2;marker:none;visibility:visible;display:inline;overflow:visible;enable-background:accumulate;font-family:Sans;-inkscape-font-specification:Sans"
       inkscape:connector-curvature="0" />
    <path
       d="m 185.23603,315.30759 c -5.11431,0 -9.2786,4.16429 -9.2786,9.2786 0,5.11432 4.16429,9.2786 9.2786,9.2786 5.11432,0 9.27861,-4.16428 9.27861,-9.2786 0,-5.11431 -4.16429,-9.2786 -9.27861,-9.2786 z m 0,1.99943 c 4.03344,0 7.27918,3.24573 7.27918,7.27917 0,4.03344 -3.24574,7.27917 -7.27918,7.27917 -4.03343,0 -7.27917,-3.24573 -7.27917,-7.27917 0,-4.03344 3.24574,-7.27917 7.27917,-7.27917 z"
       id="path9207"
       style="font-size:medium;font-style:normal;font-variant:normal;font-weight:normal;font-stretch:normal;text-indent:0;text-align:start;text-decoration:none;line-height:normal;letter-spacing:normal;word-spacing:normal;text-transform:none;direction:ltr;block-progression:tb;writing-mode:lr-tb;text-anchor:start;baseline-shift:baseline;color:#000000;fill:#ffffff;fill-opacity:1;stroke:#ffffff;stroke-width:2;marker:none;visibility:visible;display:inline;overflow:visible;enable-background:accumulate;font-family:Sans;-inkscape-font-specification:Sans"
       inkscape:connector-curvature="0" />
    <path
       d="m 223.71594,364.39424 c -5.11431,0 -9.27861,4.16429 -9.27861,9.2786 0,5.11432 4.16429,9.2786 9.27861,9.2786 5.11431,0 9.27861,-4.16428 9.27861,-9.2786 0,-5.11431 -4.16429,-9.2786 -9.27861,-9.2786 z m 0,1.99943 c 4.03344,0 7.27917,3.24573 7.27917,7.27917 0,4.03344 -3.24574,7.27917 -7.27917,7.27917 -4.03344,0 -7.27917,-3.24573 -7.27917,-7.27917 0,-4.03344 3.24574,-7.27917 7.27917,-7.27917 z"
       id="path9250"
       style="font-size:medium;font-style:normal;font-variant:normal;font-weight:normal;font-stretch:normal;text-indent:0;text-align:start;text-decoration:none;line-height:normal;letter-spacing:normal;word-spacing:normal;text-transform:none;direction:ltr;block-progression:tb;writing-mode:lr-tb;text-anchor:start;baseline-shift:baseline;color:#000000;fill:#ffffff;fill-opacity:1;stroke:#ffffff;stroke-width:2;marker:none;visibility:visible;display:inline;overflow:visible;enable-background:accumulate;font-family:Sans;-inkscape-font-specification:Sans"
       inkscape:connector-curvature="0" />
    <path
       d="m 191.42159,331.5807 27.56818,34.27611"
       id="path9260"
       style="fill:#ffffff;stroke:#ffffff;stroke-width:2.87107372;stroke-linecap:round;stroke-linejoin:round;stroke-opacity:1"
       inkscape:connector-curvature="0" />
    <path
       d="m 224.87701,383.5317 0,63.78723"
       id="path9262"
       style="fill:#ffffff;stroke:#ffffff;stroke-width:2;stroke-linecap:round;stroke-linejoin:round;stroke-opacity:1"
       inkscape:connector-curvature="0" />
    <path
       d="m 216.51804,474.10943 c -0.0724,0.38943 -0.18823,0.85444 -0.74856,1.29007 -0.41406,0.32191 -0.98649,0.55835 -1.52895,0.55743 -0.64498,-10e-4 -1.31227,-0.25546 -1.81564,-0.66892 -0.49934,-0.41018 -0.55744,-1.16265 -0.55744,-1.16265 0,0 0.0691,-9.16348 0.15926,-13.58293 0.008,-0.39123 0.35303,-0.70669 0.60521,-1.00591 0.52848,-0.62702 1.07195,-0.97041 1.86275,-1.60692 0.79081,-0.63652 1.55529,-1.06654 1.95966,-1.51471 0.80095,-0.88769 1.01931,-2.03862 1.01931,-2.03862 l 0.0637,-7.03959 12.80505,-0.0956 0,6.6255 5.6062,6.88033 0.50965,1.27414 0,21.91512 -0.76448,1.01931 -1.78379,0.25482 -1.52895,10e-6 m -15.86298,-18.92087 0,24.84563 m 5.28766,-24.87242 0,24.42647 c 0,0 -0.21513,0.8497 -0.50966,1.14672 -0.36134,0.36439 -0.89999,0.52843 -1.40154,0.63707 -0.45659,0.0989 -0.9404,0.0748 -1.40155,0 -0.33143,-0.0538 -0.6839,-0.12126 -0.9556,-0.31854 -0.49146,-0.35685 -1.08302,-1.46525 -1.08302,-1.46525 m 10.19308,-24.42607 0,26.71952 c 0,0 -0.21513,0.8497 -0.50966,1.14672 -0.36134,0.36439 -0.89999,0.52843 -1.40154,0.63707 -0.45659,0.0989 -0.9404,0.0748 -1.40155,0 -0.26514,-0.043 -0.53321,-0.11821 -0.76448,-0.25483 -0.32347,-0.19109 -0.58221,-0.48051 -0.82819,-0.76448 -0.26996,-0.31166 -0.70077,-1.01931 -0.70077,-1.01931 m 10.57532,-26.46509 0,23.91682 c 0,0 -0.21513,0.8497 -0.50966,1.14672 -0.36134,0.36439 -0.89999,0.52843 -1.40154,0.63707 -0.45659,0.0989 -0.9404,0.0748 -1.40155,0 -0.26514,-0.043 -0.50658,-0.17973 -0.76448,-0.25483 -0.25219,-0.0734 -0.76448,-0.19112 -0.76448,-0.19112"
       id="path9335"
       style="fill:none;stroke:#ffffff;stroke-width:2;stroke-linecap:round;stroke-linejoin:round;stroke-opacity:1"
       inkscape:connector-curvature="0" />
    <path
       d="m 128.46584,461.92765 0,4.84375 0,-4.84375 z m -31.156254,6.28125 60.906254,0 -60.906254,0 z m 49.437504,1.1875 0,199.28125 0,-199.28125 z m -39.21875,0.53125 0,199.28125 0,-199.28125 z m 6.09375,0 0,199.28125 0,-199.28125 z m 27.53125,0 0,199.28125 0,-199.28125 z m -60.125004,200.03125 0,8.65625 89.187504,0 0,-8.65625 -89.187504,0 z"
       id="path9342"
       style="fill:none;stroke:#ffffff;stroke-width:3;stroke-linecap:round;stroke-linejoin:round;stroke-opacity:1;display:inline"
       inkscape:connector-curvature="0" />
    <path
       d="m 70.073023,315.30759 c 5.11431,0 9.2786,4.16429 9.2786,9.2786 0,5.11432 -4.16429,9.2786 -9.2786,9.2786 -5.11432,0 -9.27861,-4.16428 -9.27861,-9.2786 0,-5.11431 4.16429,-9.2786 9.27861,-9.2786 z m 0,1.99943 c -4.03344,0 -7.27918,3.24573 -7.27918,7.27917 0,4.03344 3.24574,7.27917 7.27918,7.27917 4.03343,0 7.27917,-3.24573 7.27917,-7.27917 0,-4.03344 -3.24574,-7.27917 -7.27917,-7.27917 z"
       id="path9711"
       style="font-size:medium;font-style:normal;font-variant:normal;font-weight:normal;font-stretch:normal;text-indent:0;text-align:start;text-decoration:none;line-height:normal;letter-spacing:normal;word-spacing:normal;text-transform:none;direction:ltr;block-progression:tb;writing-mode:lr-tb;text-anchor:start;baseline-shift:baseline;color:#000000;fill:#ffffff;fill-opacity:1;stroke:#ffffff;stroke-width:2;marker:none;visibility:visible;display:inline;overflow:visible;enable-background:accumulate;font-family:Sans;-inkscape-font-specification:Sans"
       inkscape:connector-curvature="0" />
    <path
       d="m 31.593113,364.39424 c 5.11431,0 9.27861,4.16429 9.27861,9.2786 0,5.11432 -4.16429,9.2786 -9.27861,9.2786 -5.11431,0 -9.27861,-4.16428 -9.27861,-9.2786 0,-5.11431 4.16429,-9.2786 9.27861,-9.2786 z m 0,1.99943 c -4.03344,0 -7.27917,3.24573 -7.27917,7.27917 0,4.03344 3.24574,7.27917 7.27917,7.27917 4.03344,0 7.27917,-3.24573 7.27917,-7.27917 0,-4.03344 -3.24574,-7.27917 -7.27917,-7.27917 z"
       id="path9713"
       style="font-size:medium;font-style:normal;font-variant:normal;font-weight:normal;font-stretch:normal;text-indent:0;text-align:start;text-decoration:none;line-height:normal;letter-spacing:normal;word-spacing:normal;text-transform:none;direction:ltr;block-progression:tb;writing-mode:lr-tb;text-anchor:start;baseline-shift:baseline;color:#000000;fill:#ffffff;fill-opacity:1;stroke:#ffffff;stroke-width:2;marker:none;visibility:visible;display:inline;overflow:visible;enable-background:accumulate;font-family:Sans;-inkscape-font-specification:Sans"
       inkscape:connector-curvature="0" />
    <path
       d="m 63.887463,331.5807 -27.56818,34.27611"
       id="path9715"
       style="fill:#ffffff;stroke:#ffffff;stroke-width:2.87107372;stroke-linecap:round;stroke-linejoin:round;stroke-opacity:1"
       inkscape:connector-curvature="0" />
    <path
       d="m 30.432043,383.5317 0,63.78723"
       id="path9717"
       style="fill:#ffffff;stroke:#ffffff;stroke-width:2;stroke-linecap:round;stroke-linejoin:round;stroke-opacity:1"
       inkscape:connector-curvature="0" />
    <path
       d="m 38.791013,474.10943 c 0.0724,0.38943 0.18823,0.85444 0.74856,1.29007 0.41406,0.32191 0.98649,0.55835 1.52895,0.55743 0.64498,-10e-4 1.31227,-0.25546 1.81564,-0.66892 0.49934,-0.41018 0.55744,-1.16265 0.55744,-1.16265 0,0 -0.0691,-9.16348 -0.15926,-13.58293 -0.008,-0.39123 -0.35303,-0.70669 -0.60521,-1.00591 -0.52848,-0.62702 -1.07195,-0.97041 -1.86275,-1.60692 -0.79081,-0.63652 -1.55529,-1.06654 -1.95966,-1.51471 -0.80095,-0.88769 -1.01931,-2.03862 -1.01931,-2.03862 l -0.0637,-7.03959 -12.80505,-0.0956 0,6.6255 -5.6062,6.88033 -0.50965,1.27414 0,21.91512 0.76448,1.01931 1.78379,0.25482 1.52895,10e-6 m 15.86298,-18.92087 0,24.84563 m -5.28766,-24.87242 0,24.42647 c 0,0 0.21513,0.8497 0.50966,1.14672 0.36134,0.36439 0.89999,0.52843 1.40154,0.63707 0.45659,0.0989 0.9404,0.0748 1.40155,0 0.33143,-0.0538 0.6839,-0.12126 0.9556,-0.31854 0.49146,-0.35685 1.08302,-1.46525 1.08302,-1.46525 m -10.19308,-24.42607 0,26.71952 c 0,0 0.21513,0.8497 0.50966,1.14672 0.36134,0.36439 0.89999,0.52843 1.40154,0.63707 0.45659,0.0989 0.9404,0.0748 1.40155,0 0.26514,-0.043 0.53321,-0.11821 0.76448,-0.25483 0.32347,-0.19109 0.58221,-0.48051 0.82819,-0.76448 0.26996,-0.31166 0.70077,-1.01931 0.70077,-1.01931 m -10.57532,-26.46509 0,23.91682 c 0,0 0.21513,0.8497 0.50966,1.14672 0.36134,0.36439 0.89999,0.52843 1.40154,0.63707 0.45659,0.0989 0.9404,0.0748 1.40155,0 0.26514,-0.043 0.50658,-0.17973 0.76448,-0.25483 0.25219,-0.0734 0.76448,-0.19112 0.76448,-0.19112"
       id="path9719"
       style="fill:none;stroke:#ffffff;stroke-width:2;stroke-linecap:round;stroke-linejoin:round;stroke-opacity:1"
       inkscape:connector-curvature="0" />
  </g>
  <g
     id="layer5"
     style="display:inline">
    <path
       d="M 137.13138,322.35456 z"
       transform="translate(0,-213.99972)"
       id="path9836"
       style="fill:#ffffff;stroke:#ffffff;stroke-width:1px;stroke-linecap:round;stroke-linejoin:round;stroke-opacity:1;display:inline" />
    <path
       d="m 128.65334,238.11515 c -16.48521,0 -29.875004,13.3898 -29.875004,29.875 0,16.22227 12.971174,29.42593 29.093754,29.84375 l 0,7.65625 0.59375,0 -43.906254,7.25 -0.15625,0 -0.125,0.0937 c 0,0 -2.946962,1.50236 -4.4375,2.21875 -0.134424,0.0646 -0.308081,0.0752 -0.40625,0.1875 -0.09326,0.10666 -0.08377,0.2707 -0.125,0.40625 -0.515915,1.69625 -1.53125,5.09375 -1.53125,5.09375 l -0.0625,0.1875 0,0.21875 14.875,140.25 0.0937,0.875 0.90625,0 67.906254,0 0.875,0 0.125,-0.875 15.53125,-139.125 0,-0.1875 -0.0312,-0.1875 -0.1875,-0.6875 c -0.002,-0.0204 0.002,-0.0421 0,-0.0625 -0.10586,-0.97434 -0.36509,-1.88918 -0.75,-2.75 l -0.40625,-1.59375 -0.0625,-0.3125 -0.25,-0.21875 -3.09375,-2.65625 -0.21875,-0.15625 -0.25,-0.0625 -42.90625,-7.90625 0,-7.65625 c 15.91885,-0.64346 28.65625,-13.76861 28.65625,-29.84375 0,-16.4852 -13.3898,-29.875 -29.875,-29.875 z m 0,2 c 15.40432,0 27.875,12.47068 27.875,27.875 0,15.40433 -12.47068,27.875 -27.875,27.875 -15.40433,0 -27.875,-12.47067 -27.875,-27.875 0,-15.40432 12.47067,-27.875 27.875,-27.875 z m 5.4375,68.1875 30.3125,5.59375 c -3.00521,1.53764 -5.09375,4.65031 -5.09375,8.25 0,5.11432 4.16694,9.28125 9.28125,9.28125 2.6293,0 4.99715,-1.11048 6.6875,-2.875 l -14.6875,131.71875 -27.6875,0 c 2.89208,-1.57354 4.875,-4.64016 4.875,-8.15625 0,-5.11431 -4.16693,-9.28125 -9.28125,-9.28125 -5.11431,0 -9.28125,4.16694 -9.28125,9.28125 0,3.5161 1.98292,6.58271 4.875,8.15625 l -29.593754,0 -13.96875,-131.875 c 1.698211,1.85908 4.134741,3.03125 6.84375,3.03125 5.11431,0 9.28125,-4.16693 9.28125,-9.28125 0,-3.7718 -2.25938,-7.01973 -5.5,-8.46875 l 32.343754,-5.34375 c -2.39631,1.67979 -3.96875,4.45319 -3.96875,7.59375 0,5.11432 4.16693,9.28125 9.28125,9.28125 5.11431,0 9.28125,-4.16693 9.28125,-9.28125 0,-3.1562 -1.58352,-5.9479 -4,-7.625 z m -5.28125,0.34375 c 4.03344,0 7.28125,3.24781 7.28125,7.28125 0,4.03344 -3.24782,7.28125 -7.28125,7.28125 -4.03344,0 -7.28125,-3.24781 -7.28125,-7.28125 0,-4.03344 3.24782,-7.28125 7.28125,-7.28125 z m -41.437504,6.21875 c 4.03344,0 7.28125,3.24781 7.28125,7.28125 0,4.03344 -3.24781,7.28125 -7.28125,7.28125 -4.033436,0 -7.28125,-3.24781 -7.28125,-7.28125 0,-4.03344 3.247814,-7.28125 7.28125,-7.28125 z m 81.218754,0 c 2.92424,0 5.43428,1.71212 6.59375,4.1875 l 0.65625,2.59375 c 0.0111,0.16529 0.0312,0.33179 0.0312,0.5 0,4.03344 -3.24781,7.28125 -7.28125,7.28125 -4.03343,0 -7.28125,-3.24781 -7.28125,-7.28125 0,-4.03344 3.24782,-7.28125 7.28125,-7.28125 z M 128.49709,444.8339 c 4.03344,0 7.28125,3.24781 7.28125,7.28125 0,4.03344 -3.24782,7.28125 -7.28125,7.28125 -4.03344,0 -7.28125,-3.24781 -7.28125,-7.28125 0,-4.03344 3.24782,-7.28125 7.28125,-7.28125 z"
       transform="translate(0,-213.99972)"
       id="path9838"
       style="font-size:medium;font-style:normal;font-variant:normal;font-weight:normal;font-stretch:normal;text-indent:0;text-align:start;text-decoration:none;line-height:normal;letter-spacing:normal;word-spacing:normal;text-transform:none;direction:ltr;block-progression:tb;writing-mode:lr-tb;text-anchor:start;baseline-shift:baseline;color:#000000;fill:#ffffff;fill-opacity:1;stroke:#ffffff;stroke-width:2;marker:none;visibility:visible;display:inline;overflow:visible;enable-background:accumulate;font-family:Sans;-inkscape-font-specification:Sans" />
    <path
       d="m 185.23603,315.30759 c -5.11431,0 -9.2786,4.16429 -9.2786,9.2786 0,5.11432 4.16429,9.2786 9.2786,9.2786 5.11432,0 9.27861,-4.16428 9.27861,-9.2786 0,-5.11431 -4.16429,-9.2786 -9.27861,-9.2786 z m 0,1.99943 c 4.03344,0 7.27918,3.24573 7.27918,7.27917 0,4.03344 -3.24574,7.27917 -7.27918,7.27917 -4.03343,0 -7.27917,-3.24573 -7.27917,-7.27917 0,-4.03344 3.24574,-7.27917 7.27917,-7.27917 z"
       transform="translate(0,-213.99972)"
       id="path9840"
       style="font-size:medium;font-style:normal;font-variant:normal;font-weight:normal;font-stretch:normal;text-indent:0;text-align:start;text-decoration:none;line-height:normal;letter-spacing:normal;word-spacing:normal;text-transform:none;direction:ltr;block-progression:tb;writing-mode:lr-tb;text-anchor:start;baseline-shift:baseline;color:#000000;fill:#ffffff;fill-opacity:1;stroke:#ffffff;stroke-width:2;marker:none;visibility:visible;display:inline;overflow:visible;enable-background:accumulate;font-family:Sans;-inkscape-font-specification:Sans" />
    <path
       d="m 237.05,112.31171 c -5.11431,0 -9.27861,4.16429 -9.27861,9.2786 0,5.11432 4.16429,9.2786 9.27861,9.2786 5.11431,0 9.27861,-4.16428 9.27861,-9.2786 0,-5.11431 -4.16429,-9.2786 -9.27861,-9.2786 z m 0,1.99943 c 4.03344,0 7.27917,3.24573 7.27917,7.27917 0,4.03344 -3.24574,7.27917 -7.27917,7.27917 -4.03344,0 -7.27917,-3.24573 -7.27917,-7.27917 0,-4.03344 3.24574,-7.27917 7.27917,-7.27917 z"
       id="path9842"
       style="font-size:medium;font-style:normal;font-variant:normal;font-weight:normal;font-stretch:normal;text-indent:0;text-align:start;text-decoration:none;line-height:normal;letter-spacing:normal;word-spacing:normal;text-transform:none;direction:ltr;block-progression:tb;writing-mode:lr-tb;text-anchor:start;baseline-shift:baseline;color:#000000;fill:#ffffff;fill-opacity:1;stroke:#ffffff;stroke-width:2;marker:none;visibility:visible;display:inline;overflow:visible;enable-background:accumulate;font-family:Sans;-inkscape-font-specification:Sans" />
    <path
       d="m 228.12715,120.0464 -33.2478,-7.8089"
       id="path9844"
       style="fill:#ffffff;stroke:#ffffff;stroke-width:2.87107372;stroke-linecap:round;stroke-linejoin:round;stroke-opacity:1;display:inline" />
    <path
       d="m 232.57744,129.65668 -31.89361,55.24135"
       id="path9846"
       style="fill:#ffffff;stroke:#ffffff;stroke-width:2;stroke-linecap:round;stroke-linejoin:round;stroke-opacity:1;display:inline" />
    <path
       d="m 178.70453,204.80781 c -0.25742,0.30108 -0.59024,0.64583 -1.29329,0.74295 -0.51955,0.0718 -1.13351,-0.01 -1.60283,-0.28172 -0.55807,-0.32336 -1.00874,-0.87737 -1.23794,-1.48713 -0.22734,-0.60489 0.0986,-1.28559 0.0986,-1.28559 0,0 4.64159,-7.90128 6.92939,-11.68354 0.20254,-0.33481 0.65907,-0.4355 1.02709,-0.56854 0.77118,-0.27878 1.41354,-0.30442 2.41664,-0.46025 1.00313,-0.15585 1.8802,-0.14603 2.45447,-0.33196 1.13749,-0.36828 1.90207,-1.25584 1.90207,-1.25584 l 3.57496,-6.06461 11.1373,6.31974 -3.31275,5.73784 1.41494,8.76164 -0.1957,1.35828 -10.95756,18.97905 -1.17172,0.5005 -1.67221,-0.67121 -1.32412,-0.76447 m -4.27731,-24.31745 -12.42282,21.51694 m 17.01547,-18.89631 -12.21323,21.15394 c 0,0 -0.61118,0.62829 -1.01474,0.73826 -0.49514,0.1349 -1.04364,0.008 -1.53232,-0.14905 -0.44487,-0.1426 -0.8518,-0.40542 -1.21376,-0.70076 -0.26013,-0.2123 -0.53168,-0.44697 -0.66828,-0.75371 -0.2472,-0.55477 -0.20531,-1.81045 -0.20531,-1.81045 m 21.0405,-16.05707 -13.35976,23.1398 c 0,0 -0.61117,0.62828 -1.01473,0.73825 -0.49512,0.13491 -1.04363,0.008 -1.5323,-0.14906 -0.44487,-0.1426 -0.85181,-0.40542 -1.21378,-0.70076 -0.20811,-0.1698 -0.40266,-0.369 -0.53464,-0.60294 -0.18458,-0.32723 -0.26395,-0.70725 -0.335,-1.07616 -0.078,-0.40489 -0.0972,-1.23313 -0.0972,-1.23313 m 22.39103,-17.63179 -11.95841,20.71258 c 0,0 -0.61115,0.62828 -1.01472,0.73827 -0.49513,0.13489 -1.04364,0.008 -1.53231,-0.14906 -0.44488,-0.1426 -0.85182,-0.40542 -1.21378,-0.70077 -0.20812,-0.16981 -0.34884,-0.40895 -0.53464,-0.60294 -0.18141,-0.18996 -0.56654,-0.54773 -0.56654,-0.54773"
       id="path9848"
       style="fill:none;stroke:#ffffff;stroke-width:2;stroke-linecap:round;stroke-linejoin:round;stroke-opacity:1;display:inline" />
    <path
       d="m 128.46584,461.92765 0,4.84375 0,-4.84375 z m -31.156254,6.28125 60.906254,0 -60.906254,0 z m 49.437504,1.1875 0,199.28125 0,-199.28125 z m -39.21875,0.53125 0,199.28125 0,-199.28125 z m 6.09375,0 0,199.28125 0,-199.28125 z m 27.53125,0 0,199.28125 0,-199.28125 z m -60.125004,200.03125 0,8.65625 89.187504,0 0,-8.65625 -89.187504,0 z"
       transform="translate(0,-213.99972)"
       id="path9850"
       style="fill:none;stroke:#ffffff;stroke-width:3;stroke-linecap:round;stroke-linejoin:round;stroke-opacity:1;display:inline" />
    <path
       d="m 70.073023,315.30759 c 5.11431,0 9.2786,4.16429 9.2786,9.2786 0,5.11432 -4.16429,9.2786 -9.2786,9.2786 -5.11432,0 -9.27861,-4.16428 -9.27861,-9.2786 0,-5.11431 4.16429,-9.2786 9.27861,-9.2786 z m 0,1.99943 c -4.03344,0 -7.27918,3.24573 -7.27918,7.27917 0,4.03344 3.24574,7.27917 7.27918,7.27917 4.03343,0 7.27917,-3.24573 7.27917,-7.27917 0,-4.03344 -3.24574,-7.27917 -7.27917,-7.27917 z"
       transform="translate(0,-213.99972)"
       id="path9852"
       style="font-size:medium;font-style:normal;font-variant:normal;font-weight:normal;font-stretch:normal;text-indent:0;text-align:start;text-decoration:none;line-height:normal;letter-spacing:normal;word-spacing:normal;text-transform:none;direction:ltr;block-progression:tb;writing-mode:lr-tb;text-anchor:start;baseline-shift:baseline;color:#000000;fill:#ffffff;fill-opacity:1;stroke:#ffffff;stroke-width:2;marker:none;visibility:visible;display:inline;overflow:visible;enable-background:accumulate;font-family:Sans;-inkscape-font-specification:Sans" />
    <path
       d="m 31.593113,364.39424 c 5.11431,0 9.27861,4.16429 9.27861,9.2786 0,5.11432 -4.16429,9.2786 -9.27861,9.2786 -5.11431,0 -9.27861,-4.16428 -9.27861,-9.2786 0,-5.11431 4.16429,-9.2786 9.27861,-9.2786 z m 0,1.99943 c -4.03344,0 -7.27917,3.24573 -7.27917,7.27917 0,4.03344 3.24574,7.27917 7.27917,7.27917 4.03344,0 7.27917,-3.24573 7.27917,-7.27917 0,-4.03344 -3.24574,-7.27917 -7.27917,-7.27917 z"
       transform="translate(0,-213.99972)"
       id="path9854"
       style="font-size:medium;font-style:normal;font-variant:normal;font-weight:normal;font-stretch:normal;text-indent:0;text-align:start;text-decoration:none;line-height:normal;letter-spacing:normal;word-spacing:normal;text-transform:none;direction:ltr;block-progression:tb;writing-mode:lr-tb;text-anchor:start;baseline-shift:baseline;color:#000000;fill:#ffffff;fill-opacity:1;stroke:#ffffff;stroke-width:2;marker:none;visibility:visible;display:inline;overflow:visible;enable-background:accumulate;font-family:Sans;-inkscape-font-specification:Sans" />
    <path
       d="m 63.887463,331.5807 -27.56818,34.27611"
       transform="translate(0,-213.99972)"
       id="path9856"
       style="fill:#ffffff;stroke:#ffffff;stroke-width:2.87107372;stroke-linecap:round;stroke-linejoin:round;stroke-opacity:1;display:inline" />
    <path
       d="m 30.432043,383.5317 0,63.78723"
       transform="translate(0,-213.99972)"
       id="path9858"
       style="fill:#ffffff;stroke:#ffffff;stroke-width:2;stroke-linecap:round;stroke-linejoin:round;stroke-opacity:1;display:inline" />
    <path
       d="m 38.791013,474.10943 c 0.0724,0.38943 0.18823,0.85444 0.74856,1.29007 0.41406,0.32191 0.98649,0.55835 1.52895,0.55743 0.64498,-10e-4 1.31227,-0.25546 1.81564,-0.66892 0.49934,-0.41018 0.55744,-1.16265 0.55744,-1.16265 0,0 -0.0691,-9.16348 -0.15926,-13.58293 -0.008,-0.39123 -0.35303,-0.70669 -0.60521,-1.00591 -0.52848,-0.62702 -1.07195,-0.97041 -1.86275,-1.60692 -0.79081,-0.63652 -1.55529,-1.06654 -1.95966,-1.51471 -0.80095,-0.88769 -1.01931,-2.03862 -1.01931,-2.03862 l -0.0637,-7.03959 -12.80505,-0.0956 0,6.6255 -5.6062,6.88033 -0.50965,1.27414 0,21.91512 0.76448,1.01931 1.78379,0.25482 1.52895,10e-6 m 15.86298,-18.92087 0,24.84563 m -5.28766,-24.87242 0,24.42647 c 0,0 0.21513,0.8497 0.50966,1.14672 0.36134,0.36439 0.89999,0.52843 1.40154,0.63707 0.45659,0.0989 0.9404,0.0748 1.40155,0 0.33143,-0.0538 0.6839,-0.12126 0.9556,-0.31854 0.49146,-0.35685 1.08302,-1.46525 1.08302,-1.46525 m -10.19308,-24.42607 0,26.71952 c 0,0 0.21513,0.8497 0.50966,1.14672 0.36134,0.36439 0.89999,0.52843 1.40154,0.63707 0.45659,0.0989 0.9404,0.0748 1.40155,0 0.26514,-0.043 0.53321,-0.11821 0.76448,-0.25483 0.32347,-0.19109 0.58221,-0.48051 0.82819,-0.76448 0.26996,-0.31166 0.70077,-1.01931 0.70077,-1.01931 m -10.57532,-26.46509 0,23.91682 c 0,0 0.21513,0.8497 0.50966,1.14672 0.36134,0.36439 0.89999,0.52843 1.40154,0.63707 0.45659,0.0989 0.9404,0.0748 1.40155,0 0.26514,-0.043 0.50658,-0.17973 0.76448,-0.25483 0.25219,-0.0734 0.76448,-0.19112 0.76448,-0.19112"
       transform="translate(0,-213.99972)"
       id="path9860"
       style="fill:none;stroke:#ffffff;stroke-width:2;stroke-linecap:round;stroke-linejoin:round;stroke-opacity:1;display:inline" />
  </g>
  <g
     id="layer6"
     style="display:inline">
    <path
       d="M 137.13138,322.35456 z"
       transform="translate(0,-213.99972)"
       id="path9895"
       style="fill:#ffffff;stroke:#ffffff;stroke-width:1px;stroke-linecap:round;stroke-linejoin:round;stroke-opacity:1;display:inline" />
    <path
       d="m 128.65334,238.11515 c -16.48521,0 -29.875004,13.3898 -29.875004,29.875 0,16.22227 12.971174,29.42593 29.093754,29.84375 l 0,7.65625 0.59375,0 -43.906254,7.25 -0.15625,0 -0.125,0.0937 c 0,0 -2.946962,1.50236 -4.4375,2.21875 -0.134424,0.0646 -0.308081,0.0752 -0.40625,0.1875 -0.09326,0.10666 -0.08377,0.2707 -0.125,0.40625 -0.515915,1.69625 -1.53125,5.09375 -1.53125,5.09375 l -0.0625,0.1875 0,0.21875 14.875,140.25 0.0937,0.875 0.90625,0 67.906254,0 0.875,0 0.125,-0.875 15.53125,-139.125 0,-0.1875 -0.0312,-0.1875 -0.1875,-0.6875 c -0.002,-0.0204 0.002,-0.0421 0,-0.0625 -0.10586,-0.97434 -0.36509,-1.88918 -0.75,-2.75 l -0.40625,-1.59375 -0.0625,-0.3125 -0.25,-0.21875 -3.09375,-2.65625 -0.21875,-0.15625 -0.25,-0.0625 -42.90625,-7.90625 0,-7.65625 c 15.91885,-0.64346 28.65625,-13.76861 28.65625,-29.84375 0,-16.4852 -13.3898,-29.875 -29.875,-29.875 z m 0,2 c 15.40432,0 27.875,12.47068 27.875,27.875 0,15.40433 -12.47068,27.875 -27.875,27.875 -15.40433,0 -27.875,-12.47067 -27.875,-27.875 0,-15.40432 12.47067,-27.875 27.875,-27.875 z m 5.4375,68.1875 30.3125,5.59375 c -3.00521,1.53764 -5.09375,4.65031 -5.09375,8.25 0,5.11432 4.16694,9.28125 9.28125,9.28125 2.6293,0 4.99715,-1.11048 6.6875,-2.875 l -14.6875,131.71875 -27.6875,0 c 2.89208,-1.57354 4.875,-4.64016 4.875,-8.15625 0,-5.11431 -4.16693,-9.28125 -9.28125,-9.28125 -5.11431,0 -9.28125,4.16694 -9.28125,9.28125 0,3.5161 1.98292,6.58271 4.875,8.15625 l -29.593754,0 -13.96875,-131.875 c 1.698211,1.85908 4.134741,3.03125 6.84375,3.03125 5.11431,0 9.28125,-4.16693 9.28125,-9.28125 0,-3.7718 -2.25938,-7.01973 -5.5,-8.46875 l 32.343754,-5.34375 c -2.39631,1.67979 -3.96875,4.45319 -3.96875,7.59375 0,5.11432 4.16693,9.28125 9.28125,9.28125 5.11431,0 9.28125,-4.16693 9.28125,-9.28125 0,-3.1562 -1.58352,-5.9479 -4,-7.625 z m -5.28125,0.34375 c 4.03344,0 7.28125,3.24781 7.28125,7.28125 0,4.03344 -3.24782,7.28125 -7.28125,7.28125 -4.03344,0 -7.28125,-3.24781 -7.28125,-7.28125 0,-4.03344 3.24782,-7.28125 7.28125,-7.28125 z m -41.437504,6.21875 c 4.03344,0 7.28125,3.24781 7.28125,7.28125 0,4.03344 -3.24781,7.28125 -7.28125,7.28125 -4.033436,0 -7.28125,-3.24781 -7.28125,-7.28125 0,-4.03344 3.247814,-7.28125 7.28125,-7.28125 z m 81.218754,0 c 2.92424,0 5.43428,1.71212 6.59375,4.1875 l 0.65625,2.59375 c 0.0111,0.16529 0.0312,0.33179 0.0312,0.5 0,4.03344 -3.24781,7.28125 -7.28125,7.28125 -4.03343,0 -7.28125,-3.24781 -7.28125,-7.28125 0,-4.03344 3.24782,-7.28125 7.28125,-7.28125 z M 128.49709,444.8339 c 4.03344,0 7.28125,3.24781 7.28125,7.28125 0,4.03344 -3.24782,7.28125 -7.28125,7.28125 -4.03344,0 -7.28125,-3.24781 -7.28125,-7.28125 0,-4.03344 3.24782,-7.28125 7.28125,-7.28125 z"
       transform="translate(0,-213.99972)"
       id="path9897"
       style="font-size:medium;font-style:normal;font-variant:normal;font-weight:normal;font-stretch:normal;text-indent:0;text-align:start;text-decoration:none;line-height:normal;letter-spacing:normal;word-spacing:normal;text-transform:none;direction:ltr;block-progression:tb;writing-mode:lr-tb;text-anchor:start;baseline-shift:baseline;color:#000000;fill:#ffffff;fill-opacity:1;stroke:#ffffff;stroke-width:2;marker:none;visibility:visible;display:inline;overflow:visible;enable-background:accumulate;font-family:Sans;-inkscape-font-specification:Sans" />
    <path
       d="m 185.23603,315.30759 c -5.11431,0 -9.2786,4.16429 -9.2786,9.2786 0,5.11432 4.16429,9.2786 9.2786,9.2786 5.11432,0 9.27861,-4.16428 9.27861,-9.2786 0,-5.11431 -4.16429,-9.2786 -9.27861,-9.2786 z m 0,1.99943 c 4.03344,0 7.27918,3.24573 7.27918,7.27917 0,4.03344 -3.24574,7.27917 -7.27918,7.27917 -4.03343,0 -7.27917,-3.24573 -7.27917,-7.27917 0,-4.03344 3.24574,-7.27917 7.27917,-7.27917 z"
       transform="translate(0,-213.99972)"
       id="path9899"
       style="font-size:medium;font-style:normal;font-variant:normal;font-weight:normal;font-stretch:normal;text-indent:0;text-align:start;text-decoration:none;line-height:normal;letter-spacing:normal;word-spacing:normal;text-transform:none;direction:ltr;block-progression:tb;writing-mode:lr-tb;text-anchor:start;baseline-shift:baseline;color:#000000;fill:#ffffff;fill-opacity:1;stroke:#ffffff;stroke-width:2;marker:none;visibility:visible;display:inline;overflow:visible;enable-background:accumulate;font-family:Sans;-inkscape-font-specification:Sans" />
    <path
       d="m 236.54035,88.103145 c -5.11431,0 -9.27861,4.16429 -9.27861,9.278598 0,5.114317 4.16429,9.278597 9.27861,9.278597 5.11431,0 9.27861,-4.16428 9.27861,-9.278597 0,-5.114308 -4.16429,-9.278598 -9.27861,-9.278598 z m 0,1.99943 c 4.03344,0 7.27917,3.24573 7.27917,7.279168 0,4.033437 -3.24574,7.279167 -7.27917,7.279167 -4.03344,0 -7.27917,-3.24573 -7.27917,-7.279167 0,-4.033438 3.24574,-7.279168 7.27917,-7.279168 z"
       id="path9901"
       style="font-size:medium;font-style:normal;font-variant:normal;font-weight:normal;font-stretch:normal;text-indent:0;text-align:start;text-decoration:none;line-height:normal;letter-spacing:normal;word-spacing:normal;text-transform:none;direction:ltr;block-progression:tb;writing-mode:lr-tb;text-anchor:start;baseline-shift:baseline;color:#000000;fill:#ffffff;fill-opacity:1;stroke:#ffffff;stroke-width:2;marker:none;visibility:visible;display:inline;overflow:visible;enable-background:accumulate;font-family:Sans;-inkscape-font-specification:Sans" />
    <path
       d="m 226.97762,101.02548 -31.20358,8.53212"
       id="path9903"
       style="fill:#ffffff;stroke:#ffffff;stroke-width:2.87107372;stroke-linecap:round;stroke-linejoin:round;stroke-opacity:1;display:inline" />
    <path
       d="m 230.35199,103.91616 -49.43544,40.31066"
       id="path3437"
       style="fill:#ffffff;stroke:#ffffff;stroke-width:2;stroke-linecap:round;stroke-linejoin:round;stroke-opacity:1;display:inline" />
    <path
       d="m 152.9903,152.19044 c -0.36098,0.16309 -0.80881,0.33362 -1.48648,0.12266 -0.50049,-0.15657 -1.02179,-0.49085 -1.33099,-0.93642 -0.36764,-0.52998 -0.54004,-1.22302 -0.48824,-1.87236 0.0513,-0.64418 0.63582,-1.12167 0.63582,-1.12167 0,0 7.56032,-5.17837 11.23907,-7.62919 0.32565,-0.21699 0.78171,-0.11401 1.17135,-0.078 0.81655,0.0755 1.40889,0.32532 2.38308,0.61079 0.97417,0.28546 1.76395,0.66697 2.36267,0.74321 1.18615,0.15028 2.25552,-0.32802 2.25552,-0.32802 l 5.81406,-3.96944 7.39396,10.455 -5.4378,3.7852 -2.44412,8.53191 -0.75459,1.14621 -17.98667,12.52012 -1.27333,-0.0452 -1.22826,-1.31847 -0.87351,-1.25483 m 6.46663,-23.82889 -20.39186,14.19427 m 23.43469,-9.86976 -20.04782,13.95474 c 0,0 -0.82033,0.30884 -1.23235,0.23683 -0.50538,-0.0887 -0.94751,-0.43748 -1.32357,-0.78635 -0.34205,-0.31818 -0.59866,-0.72906 -0.80069,-1.15033 -0.1452,-0.30271 -0.29122,-0.63054 -0.28439,-0.96631 0.012,-0.6072 0.58466,-1.72564 0.58466,-1.72564 m 25.87084,-5.58863 -21.92986,15.26482 c 0,0 -0.8203,0.30883 -1.23234,0.23682 -0.5054,-0.0887 -0.94752,-0.43747 -1.32349,-0.7864 -0.34217,-0.31817 -0.59867,-0.72907 -0.80066,-1.1503 -0.11625,-0.24222 -0.20762,-0.50515 -0.22764,-0.77304 -0.0279,-0.37464 0.0618,-0.75238 0.15442,-1.11647 0.10282,-0.39917 0.4365,-1.1573 0.4365,-1.1573 m 27.76274,-6.43989 -19.62959,13.66363 c 0,0 -0.82027,0.30883 -1.23229,0.23691 -0.50541,-0.0887 -0.94751,-0.43759 -1.32357,-0.78645 -0.34204,-0.31817 -0.59864,-0.72904 -0.80067,-1.15027 -0.11614,-0.24219 -0.14202,-0.51844 -0.22763,-0.77302 -0.0834,-0.24905 -0.27979,-0.73667 -0.27979,-0.73667"
       id="path9907"
       style="fill:none;stroke:#ffffff;stroke-width:2;stroke-linecap:round;stroke-linejoin:round;stroke-opacity:1;display:inline" />
    <path
       d="m 128.46584,461.92765 0,4.84375 0,-4.84375 z m -31.156254,6.28125 60.906254,0 -60.906254,0 z m 49.437504,1.1875 0,199.28125 0,-199.28125 z m -39.21875,0.53125 0,199.28125 0,-199.28125 z m 6.09375,0 0,199.28125 0,-199.28125 z m 27.53125,0 0,199.28125 0,-199.28125 z m -60.125004,200.03125 0,8.65625 89.187504,0 0,-8.65625 -89.187504,0 z"
       transform="translate(0,-213.99972)"
       id="path9909"
       style="fill:none;stroke:#ffffff;stroke-width:3;stroke-linecap:round;stroke-linejoin:round;stroke-opacity:1;display:inline" />
    <path
       d="m 70.073023,315.30759 c 5.11431,0 9.2786,4.16429 9.2786,9.2786 0,5.11432 -4.16429,9.2786 -9.2786,9.2786 -5.11432,0 -9.27861,-4.16428 -9.27861,-9.2786 0,-5.11431 4.16429,-9.2786 9.27861,-9.2786 z m 0,1.99943 c -4.03344,0 -7.27918,3.24573 -7.27918,7.27917 0,4.03344 3.24574,7.27917 7.27918,7.27917 4.03343,0 7.27917,-3.24573 7.27917,-7.27917 0,-4.03344 -3.24574,-7.27917 -7.27917,-7.27917 z"
       transform="translate(0,-213.99972)"
       id="path9911"
       style="font-size:medium;font-style:normal;font-variant:normal;font-weight:normal;font-stretch:normal;text-indent:0;text-align:start;text-decoration:none;line-height:normal;letter-spacing:normal;word-spacing:normal;text-transform:none;direction:ltr;block-progression:tb;writing-mode:lr-tb;text-anchor:start;baseline-shift:baseline;color:#000000;fill:#ffffff;fill-opacity:1;stroke:#ffffff;stroke-width:2;marker:none;visibility:visible;display:inline;overflow:visible;enable-background:accumulate;font-family:Sans;-inkscape-font-specification:Sans" />
    <path
       d="m 31.593113,364.39424 c 5.11431,0 9.27861,4.16429 9.27861,9.2786 0,5.11432 -4.16429,9.2786 -9.27861,9.2786 -5.11431,0 -9.27861,-4.16428 -9.27861,-9.2786 0,-5.11431 4.16429,-9.2786 9.27861,-9.2786 z m 0,1.99943 c -4.03344,0 -7.27917,3.24573 -7.27917,7.27917 0,4.03344 3.24574,7.27917 7.27917,7.27917 4.03344,0 7.27917,-3.24573 7.27917,-7.27917 0,-4.03344 -3.24574,-7.27917 -7.27917,-7.27917 z"
       transform="translate(0,-213.99972)"
       id="path9913"
       style="font-size:medium;font-style:normal;font-variant:normal;font-weight:normal;font-stretch:normal;text-indent:0;text-align:start;text-decoration:none;line-height:normal;letter-spacing:normal;word-spacing:normal;text-transform:none;direction:ltr;block-progression:tb;writing-mode:lr-tb;text-anchor:start;baseline-shift:baseline;color:#000000;fill:#ffffff;fill-opacity:1;stroke:#ffffff;stroke-width:2;marker:none;visibility:visible;display:inline;overflow:visible;enable-background:accumulate;font-family:Sans;-inkscape-font-specification:Sans" />
    <path
       d="m 63.887463,331.5807 -27.56818,34.27611"
       transform="translate(0,-213.99972)"
       id="path9915"
       style="fill:#ffffff;stroke:#ffffff;stroke-width:2.87107372;stroke-linecap:round;stroke-linejoin:round;stroke-opacity:1;display:inline" />
    <path
       d="m 30.432043,383.5317 0,63.78723"
       transform="translate(0,-213.99972)"
       id="path9917"
       style="fill:#ffffff;stroke:#ffffff;stroke-width:2;stroke-linecap:round;stroke-linejoin:round;stroke-opacity:1;display:inline" />
    <path
       d="m 38.791013,474.10943 c 0.0724,0.38943 0.18823,0.85444 0.74856,1.29007 0.41406,0.32191 0.98649,0.55835 1.52895,0.55743 0.64498,-10e-4 1.31227,-0.25546 1.81564,-0.66892 0.49934,-0.41018 0.55744,-1.16265 0.55744,-1.16265 0,0 -0.0691,-9.16348 -0.15926,-13.58293 -0.008,-0.39123 -0.35303,-0.70669 -0.60521,-1.00591 -0.52848,-0.62702 -1.07195,-0.97041 -1.86275,-1.60692 -0.79081,-0.63652 -1.55529,-1.06654 -1.95966,-1.51471 -0.80095,-0.88769 -1.01931,-2.03862 -1.01931,-2.03862 l -0.0637,-7.03959 -12.80505,-0.0956 0,6.6255 -5.6062,6.88033 -0.50965,1.27414 0,21.91512 0.76448,1.01931 1.78379,0.25482 1.52895,10e-6 m 15.86298,-18.92087 0,24.84563 m -5.28766,-24.87242 0,24.42647 c 0,0 0.21513,0.8497 0.50966,1.14672 0.36134,0.36439 0.89999,0.52843 1.40154,0.63707 0.45659,0.0989 0.9404,0.0748 1.40155,0 0.33143,-0.0538 0.6839,-0.12126 0.9556,-0.31854 0.49146,-0.35685 1.08302,-1.46525 1.08302,-1.46525 m -10.19308,-24.42607 0,26.71952 c 0,0 0.21513,0.8497 0.50966,1.14672 0.36134,0.36439 0.89999,0.52843 1.40154,0.63707 0.45659,0.0989 0.9404,0.0748 1.40155,0 0.26514,-0.043 0.53321,-0.11821 0.76448,-0.25483 0.32347,-0.19109 0.58221,-0.48051 0.82819,-0.76448 0.26996,-0.31166 0.70077,-1.01931 0.70077,-1.01931 m -10.57532,-26.46509 0,23.91682 c 0,0 0.21513,0.8497 0.50966,1.14672 0.36134,0.36439 0.89999,0.52843 1.40154,0.63707 0.45659,0.0989 0.9404,0.0748 1.40155,0 0.26514,-0.043 0.50658,-0.17973 0.76448,-0.25483 0.25219,-0.0734 0.76448,-0.19112 0.76448,-0.19112"
       transform="translate(0,-213.99972)"
       id="path9919"
       style="fill:none;stroke:#ffffff;stroke-width:2;stroke-linecap:round;stroke-linejoin:round;stroke-opacity:1;display:inline" />
  </g>
  <g
     id="layer7"
     style="display:inline">
    <path
       d="M 137.13138,322.35456 z"
       transform="translate(0,-213.99972)"
       id="path9935"
       style="fill:#ffffff;stroke:#ffffff;stroke-width:1px;stroke-linecap:round;stroke-linejoin:round;stroke-opacity:1;display:inline" />
    <path
       d="m 128.65334,238.11515 c -16.48521,0 -29.875004,13.3898 -29.875004,29.875 0,16.22227 12.971174,29.42593 29.093754,29.84375 l 0,7.65625 0.59375,0 -43.906254,7.25 -0.15625,0 -0.125,0.0937 c 0,0 -2.946962,1.50236 -4.4375,2.21875 -0.134424,0.0646 -0.308081,0.0752 -0.40625,0.1875 -0.09326,0.10666 -0.08377,0.2707 -0.125,0.40625 -0.515915,1.69625 -1.53125,5.09375 -1.53125,5.09375 l -0.0625,0.1875 0,0.21875 14.875,140.25 0.0937,0.875 0.90625,0 67.906254,0 0.875,0 0.125,-0.875 15.53125,-139.125 0,-0.1875 -0.0312,-0.1875 -0.1875,-0.6875 c -0.002,-0.0204 0.002,-0.0421 0,-0.0625 -0.10586,-0.97434 -0.36509,-1.88918 -0.75,-2.75 l -0.40625,-1.59375 -0.0625,-0.3125 -0.25,-0.21875 -3.09375,-2.65625 -0.21875,-0.15625 -0.25,-0.0625 -42.90625,-7.90625 0,-7.65625 c 15.91885,-0.64346 28.65625,-13.76861 28.65625,-29.84375 0,-16.4852 -13.3898,-29.875 -29.875,-29.875 z m 0,2 c 15.40432,0 27.875,12.47068 27.875,27.875 0,15.40433 -12.47068,27.875 -27.875,27.875 -15.40433,0 -27.875,-12.47067 -27.875,-27.875 0,-15.40432 12.47067,-27.875 27.875,-27.875 z m 5.4375,68.1875 30.3125,5.59375 c -3.00521,1.53764 -5.09375,4.65031 -5.09375,8.25 0,5.11432 4.16694,9.28125 9.28125,9.28125 2.6293,0 4.99715,-1.11048 6.6875,-2.875 l -14.6875,131.71875 -27.6875,0 c 2.89208,-1.57354 4.875,-4.64016 4.875,-8.15625 0,-5.11431 -4.16693,-9.28125 -9.28125,-9.28125 -5.11431,0 -9.28125,4.16694 -9.28125,9.28125 0,3.5161 1.98292,6.58271 4.875,8.15625 l -29.593754,0 -13.96875,-131.875 c 1.698211,1.85908 4.134741,3.03125 6.84375,3.03125 5.11431,0 9.28125,-4.16693 9.28125,-9.28125 0,-3.7718 -2.25938,-7.01973 -5.5,-8.46875 l 32.343754,-5.34375 c -2.39631,1.67979 -3.96875,4.45319 -3.96875,7.59375 0,5.11432 4.16693,9.28125 9.28125,9.28125 5.11431,0 9.28125,-4.16693 9.28125,-9.28125 0,-3.1562 -1.58352,-5.9479 -4,-7.625 z m -5.28125,0.34375 c 4.03344,0 7.28125,3.24781 7.28125,7.28125 0,4.03344 -3.24782,7.28125 -7.28125,7.28125 -4.03344,0 -7.28125,-3.24781 -7.28125,-7.28125 0,-4.03344 3.24782,-7.28125 7.28125,-7.28125 z m -41.437504,6.21875 c 4.03344,0 7.28125,3.24781 7.28125,7.28125 0,4.03344 -3.24781,7.28125 -7.28125,7.28125 -4.033436,0 -7.28125,-3.24781 -7.28125,-7.28125 0,-4.03344 3.247814,-7.28125 7.28125,-7.28125 z m 81.218754,0 c 2.92424,0 5.43428,1.71212 6.59375,4.1875 l 0.65625,2.59375 c 0.0111,0.16529 0.0312,0.33179 0.0312,0.5 0,4.03344 -3.24781,7.28125 -7.28125,7.28125 -4.03343,0 -7.28125,-3.24781 -7.28125,-7.28125 0,-4.03344 3.24782,-7.28125 7.28125,-7.28125 z M 128.49709,444.8339 c 4.03344,0 7.28125,3.24781 7.28125,7.28125 0,4.03344 -3.24782,7.28125 -7.28125,7.28125 -4.03344,0 -7.28125,-3.24781 -7.28125,-7.28125 0,-4.03344 3.24782,-7.28125 7.28125,-7.28125 z"
       transform="translate(0,-213.99972)"
       id="path9937"
       style="font-size:medium;font-style:normal;font-variant:normal;font-weight:normal;font-stretch:normal;text-indent:0;text-align:start;text-decoration:none;line-height:normal;letter-spacing:normal;word-spacing:normal;text-transform:none;direction:ltr;block-progression:tb;writing-mode:lr-tb;text-anchor:start;baseline-shift:baseline;color:#000000;fill:#ffffff;fill-opacity:1;stroke:#ffffff;stroke-width:2;marker:none;visibility:visible;display:inline;overflow:visible;enable-background:accumulate;font-family:Sans;-inkscape-font-specification:Sans" />
    <path
       d="m 185.23603,315.30759 c -5.11431,0 -9.2786,4.16429 -9.2786,9.2786 0,5.11432 4.16429,9.2786 9.2786,9.2786 5.11432,0 9.27861,-4.16428 9.27861,-9.2786 0,-5.11431 -4.16429,-9.2786 -9.27861,-9.2786 z m 0,1.99943 c 4.03344,0 7.27918,3.24573 7.27918,7.27917 0,4.03344 -3.24574,7.27917 -7.27918,7.27917 -4.03343,0 -7.27917,-3.24573 -7.27917,-7.27917 0,-4.03344 3.24574,-7.27917 7.27917,-7.27917 z"
       transform="translate(0,-213.99972)"
       id="path9939"
       style="font-size:medium;font-style:normal;font-variant:normal;font-weight:normal;font-stretch:normal;text-indent:0;text-align:start;text-decoration:none;line-height:normal;letter-spacing:normal;word-spacing:normal;text-transform:none;direction:ltr;block-progression:tb;writing-mode:lr-tb;text-anchor:start;baseline-shift:baseline;color:#000000;fill:#ffffff;fill-opacity:1;stroke:#ffffff;stroke-width:2;marker:none;visibility:visible;display:inline;overflow:visible;enable-background:accumulate;font-family:Sans;-inkscape-font-specification:Sans" />
    <path
       d="m 227.6214,72.813523 c -5.11431,0 -9.27861,4.16429 -9.27861,9.278598 0,5.11432 4.16429,9.2786 9.27861,9.2786 5.11431,0 9.27861,-4.16428 9.27861,-9.2786 0,-5.114308 -4.16429,-9.278598 -9.27861,-9.278598 z m 0,1.99943 c 4.03344,0 7.27917,3.24573 7.27917,7.279168 0,4.03344 -3.24574,7.27917 -7.27917,7.27917 -4.03344,0 -7.27917,-3.24573 -7.27917,-7.27917 0,-4.033438 3.24574,-7.279168 7.27917,-7.279168 z"
       id="path9941"
       style="font-size:medium;font-style:normal;font-variant:normal;font-weight:normal;font-stretch:normal;text-indent:0;text-align:start;text-decoration:none;line-height:normal;letter-spacing:normal;word-spacing:normal;text-transform:none;direction:ltr;block-progression:tb;writing-mode:lr-tb;text-anchor:start;baseline-shift:baseline;color:#000000;fill:#ffffff;fill-opacity:1;stroke:#ffffff;stroke-width:2;marker:none;visibility:visible;display:inline;overflow:visible;enable-background:accumulate;font-family:Sans;-inkscape-font-specification:Sans" />
    <path
       d="M 219.98997,86.750015 193.16572,104.83099"
       id="path9943"
       style="fill:#ffffff;stroke:#ffffff;stroke-width:2.87107372;stroke-linecap:round;stroke-linejoin:round;stroke-opacity:1;display:inline" />
    <path
       d="m 128.46584,461.92765 0,4.84375 0,-4.84375 z m -31.156254,6.28125 60.906254,0 -60.906254,0 z m 49.437504,1.1875 0,199.28125 0,-199.28125 z m -39.21875,0.53125 0,199.28125 0,-199.28125 z m 6.09375,0 0,199.28125 0,-199.28125 z m 27.53125,0 0,199.28125 0,-199.28125 z m -60.125004,200.03125 0,8.65625 89.187504,0 0,-8.65625 -89.187504,0 z"
       transform="translate(0,-213.99972)"
       id="path9949"
       style="fill:none;stroke:#ffffff;stroke-width:3;stroke-linecap:round;stroke-linejoin:round;stroke-opacity:1;display:inline" />
    <path
       d="m 70.073023,315.30759 c 5.11431,0 9.2786,4.16429 9.2786,9.2786 0,5.11432 -4.16429,9.2786 -9.2786,9.2786 -5.11432,0 -9.27861,-4.16428 -9.27861,-9.2786 0,-5.11431 4.16429,-9.2786 9.27861,-9.2786 z m 0,1.99943 c -4.03344,0 -7.27918,3.24573 -7.27918,7.27917 0,4.03344 3.24574,7.27917 7.27918,7.27917 4.03343,0 7.27917,-3.24573 7.27917,-7.27917 0,-4.03344 -3.24574,-7.27917 -7.27917,-7.27917 z"
       transform="translate(0,-213.99972)"
       id="path9951"
       style="font-size:medium;font-style:normal;font-variant:normal;font-weight:normal;font-stretch:normal;text-indent:0;text-align:start;text-decoration:none;line-height:normal;letter-spacing:normal;word-spacing:normal;text-transform:none;direction:ltr;block-progression:tb;writing-mode:lr-tb;text-anchor:start;baseline-shift:baseline;color:#000000;fill:#ffffff;fill-opacity:1;stroke:#ffffff;stroke-width:2;marker:none;visibility:visible;display:inline;overflow:visible;enable-background:accumulate;font-family:Sans;-inkscape-font-specification:Sans" />
    <path
       d="m 31.593113,364.39424 c 5.11431,0 9.27861,4.16429 9.27861,9.2786 0,5.11432 -4.16429,9.2786 -9.27861,9.2786 -5.11431,0 -9.27861,-4.16428 -9.27861,-9.2786 0,-5.11431 4.16429,-9.2786 9.27861,-9.2786 z m 0,1.99943 c -4.03344,0 -7.27917,3.24573 -7.27917,7.27917 0,4.03344 3.24574,7.27917 7.27917,7.27917 4.03344,0 7.27917,-3.24573 7.27917,-7.27917 0,-4.03344 -3.24574,-7.27917 -7.27917,-7.27917 z"
       transform="translate(0,-213.99972)"
       id="path9953"
       style="font-size:medium;font-style:normal;font-variant:normal;font-weight:normal;font-stretch:normal;text-indent:0;text-align:start;text-decoration:none;line-height:normal;letter-spacing:normal;word-spacing:normal;text-transform:none;direction:ltr;block-progression:tb;writing-mode:lr-tb;text-anchor:start;baseline-shift:baseline;color:#000000;fill:#ffffff;fill-opacity:1;stroke:#ffffff;stroke-width:2;marker:none;visibility:visible;display:inline;overflow:visible;enable-background:accumulate;font-family:Sans;-inkscape-font-specification:Sans" />
    <path
       d="m 63.887463,331.5807 -27.56818,34.27611"
       transform="translate(0,-213.99972)"
       id="path9955"
       style="fill:#ffffff;stroke:#ffffff;stroke-width:2.87107372;stroke-linecap:round;stroke-linejoin:round;stroke-opacity:1;display:inline" />
    <path
       d="m 30.432043,383.5317 0,63.78723"
       transform="translate(0,-213.99972)"
       id="path9957"
       style="fill:#ffffff;stroke:#ffffff;stroke-width:2;stroke-linecap:round;stroke-linejoin:round;stroke-opacity:1;display:inline" />
    <path
       d="m 38.791013,474.10943 c 0.0724,0.38943 0.18823,0.85444 0.74856,1.29007 0.41406,0.32191 0.98649,0.55835 1.52895,0.55743 0.64498,-10e-4 1.31227,-0.25546 1.81564,-0.66892 0.49934,-0.41018 0.55744,-1.16265 0.55744,-1.16265 0,0 -0.0691,-9.16348 -0.15926,-13.58293 -0.008,-0.39123 -0.35303,-0.70669 -0.60521,-1.00591 -0.52848,-0.62702 -1.07195,-0.97041 -1.86275,-1.60692 -0.79081,-0.63652 -1.55529,-1.06654 -1.95966,-1.51471 -0.80095,-0.88769 -1.01931,-2.03862 -1.01931,-2.03862 l -0.0637,-7.03959 -12.80505,-0.0956 0,6.6255 -5.6062,6.88033 -0.50965,1.27414 0,21.91512 0.76448,1.01931 1.78379,0.25482 1.52895,10e-6 m 15.86298,-18.92087 0,24.84563 m -5.28766,-24.87242 0,24.42647 c 0,0 0.21513,0.8497 0.50966,1.14672 0.36134,0.36439 0.89999,0.52843 1.40154,0.63707 0.45659,0.0989 0.9404,0.0748 1.40155,0 0.33143,-0.0538 0.6839,-0.12126 0.9556,-0.31854 0.49146,-0.35685 1.08302,-1.46525 1.08302,-1.46525 m -10.19308,-24.42607 0,26.71952 c 0,0 0.21513,0.8497 0.50966,1.14672 0.36134,0.36439 0.89999,0.52843 1.40154,0.63707 0.45659,0.0989 0.9404,0.0748 1.40155,0 0.26514,-0.043 0.53321,-0.11821 0.76448,-0.25483 0.32347,-0.19109 0.58221,-0.48051 0.82819,-0.76448 0.26996,-0.31166 0.70077,-1.01931 0.70077,-1.01931 m -10.57532,-26.46509 0,23.91682 c 0,0 0.21513,0.8497 0.50966,1.14672 0.36134,0.36439 0.89999,0.52843 1.40154,0.63707 0.45659,0.0989 0.9404,0.0748 1.40155,0 0.26514,-0.043 0.50658,-0.17973 0.76448,-0.25483 0.25219,-0.0734 0.76448,-0.19112 0.76448,-0.19112"
       transform="translate(0,-213.99972)"
       id="path9959"
       style="fill:none;stroke:#ffffff;stroke-width:2;stroke-linecap:round;stroke-linejoin:round;stroke-opacity:1;display:inline" />
    <path
       d="M 222.70914,76.375327 184.14642,37.956876"
       id="path3460"
       style="fill:#ffffff;stroke:#ffffff;stroke-width:1.99999988;stroke-linecap:round;stroke-linejoin:round;stroke-opacity:1;display:inline" />
    <path
       d="m 158.22004,24.722784 c -0.32654,-0.224205 -0.73725,-0.47114 -1.4415,-0.38311 -0.52027,0.06577 -1.09238,0.302783 -1.47539,0.68674 -0.45543,0.456776 -0.74743,1.108524 -0.81109,1.756804 -0.0632,0.643108 0.42785,1.216246 0.42785,1.216246 0,0 6.52755,6.431618 9.71591,9.493312 0.28225,0.271074 0.74933,0.250195 1.13919,0.283536 0.81705,0.0698 1.4442,-0.07151 2.45349,-0.180561 1.00926,-0.109028 1.85396,-0.345153 2.45675,-0.314502 1.19404,0.06144 2.16219,0.721005 2.16219,0.721005 l 5.0221,4.933379 9.12334,-8.985677 -4.68428,-4.685612 -0.89973,-8.829378 -0.54042,-1.261382 -15.49422,-15.4985019 -1.26132,-0.1802694 -1.44172,1.0809724 -1.08127,1.0809458 m 2.1589,24.5961641 -17.56615,-17.570871 M 167.50723,26.53342 150.23743,9.2590317 c 0,0 -0.75293,-0.4487679 -1.17119,-0.4506443 -0.51308,-0.00188 -1.00984,0.26334 -1.44158,0.5403506 -0.39287,0.252809 -0.71798,0.611948 -0.9912,0.990934 -0.19634,0.272332 -0.39792,0.569271 -0.45048,0.900929 -0.0954,0.599818 0.27088,1.801753 0.27088,1.801753 M 170.93199,23.109859 152.04095,4.2137626 c 0,0 -0.75291,-0.4487596 -1.1712,-0.4506139 -0.51311,-0.00188 -1.00984,0.2633391 -1.44149,0.5404332 -0.39297,0.2527479 -0.71799,0.6119383 -0.99116,0.9909114 -0.15711,0.2179721 -0.29352,0.4605683 -0.3605,0.7207267 -0.0935,0.3637981 -0.0721,0.7514784 -0.045,1.1261807 0.03,0.4110979 0.22534,1.2161776 0.22534,1.2161776 M 174.44695,19.596899 157.53741,2.6828918 c 0,0 -0.75285,-0.448765 -1.17109,-0.4507134 -0.51312,-0.00188 -1.00992,0.2634655 -1.44163,0.5404737 -0.39284,0.2527776 -0.71794,0.611925 -0.99112,0.9908901 -0.15708,0.2178787 -0.23131,0.4852131 -0.36051,0.7206765 -0.12605,0.2304296 -0.40542,0.6757107 -0.40542,0.6757107"
       id="path3462"
       style="fill:none;stroke:#ffffff;stroke-width:2;stroke-linecap:round;stroke-linejoin:round;stroke-opacity:1;display:inline" />
  </g>
</svg>
