<?xml version="1.0" encoding="UTF-8" standalone="no"?>
<!-- Created with Inkscape (http://www.inkscape.org/) -->

<svg
   xmlns:dc="http://purl.org/dc/elements/1.1/"
   xmlns:cc="http://creativecommons.org/ns#"
   xmlns:rdf="http://www.w3.org/1999/02/22-rdf-syntax-ns#"
   xmlns:svg="http://www.w3.org/2000/svg"
   xmlns="http://www.w3.org/2000/svg"
   xmlns:sodipodi="http://sodipodi.sourceforge.net/DTD/sodipodi-0.dtd"
   xmlns:inkscape="http://www.inkscape.org/namespaces/inkscape"
   version="1.1"
   width="110"
   height="220"
   id="svg8552"
   inkscape:version="0.48.2 r9819"
   sodipodi:docname="robot4.svg">
  <sodipodi:namedview
     pagecolor="#ffffff"
     bordercolor="#666666"
     borderopacity="1"
     objecttolerance="10"
     gridtolerance="10"
     guidetolerance="10"
     inkscape:pageopacity="0"
     inkscape:pageshadow="2"
     inkscape:window-width="1083"
     inkscape:window-height="743"
     id="namedview3931"
     showgrid="false"
     inkscape:zoom="1.0727273"
     inkscape:cx="-57.79661"
     inkscape:cy="110"
     inkscape:window-x="0"
     inkscape:window-y="0"
     inkscape:window-maximized="0"
     inkscape:current-layer="svg8552" />
  <defs
     id="defs8554" />
  <metadata
     id="metadata8557">
    <rdf:RDF>
      <cc:Work
         rdf:about="">
        <dc:format>image/svg+xml</dc:format>
        <dc:type
           rdf:resource="http://purl.org/dc/dcmitype/StillImage" />
        <dc:title />
        <cc:license
           rdf:resource="http://creativecommons.org/licenses/publicdomain/" />
      </cc:Work>
      <cc:License
         rdf:about="http://creativecommons.org/licenses/publicdomain/">
        <cc:permits
           rdf:resource="http://creativecommons.org/ns#Reproduction" />
        <cc:permits
           rdf:resource="http://creativecommons.org/ns#Distribution" />
        <cc:permits
           rdf:resource="http://creativecommons.org/ns#DerivativeWorks" />
      </cc:License>
    </rdf:RDF>
  </metadata>
  <g
     transform="translate(0,16)"
     id="layer5"
     style="display:inline">
    <g
       id="g7257">
      <path
         d="M 59.296137,42.555996 z"
         id="path7168"
         style="fill:#ffffff;stroke:#ffffff;stroke-width:1;stroke-linecap:round;stroke-linejoin:round;stroke-miterlimit:4;stroke-opacity:1;stroke-dasharray:none;display:inline" />
      <path
         d="m 55.4528,4.5000724 c -7.473216,0 -13.543192,6.0489606 -13.543192,13.4963046 0,7.328561 5.880204,13.293431 13.189029,13.482188 l 0,3.45878 0.269164,0 -19.903957,3.275255 -0.07083,0 -0.05667,0.04232 c 0,0 -1.335941,0.678703 -2.011645,1.00234 -0.06094,0.0292 -0.139661,0.03399 -0.184165,0.0847 -0.04228,0.04819 -0.03797,0.12229 -0.05666,0.183524 -0.233879,0.766299 -0.69416,2.30115 -0.69416,2.30115 l -0.02833,0.0847 0,0.09883 6.743261,63.359226 0.04248,0.39528 0.410829,0 30.783841,0 0.396662,0 0.05667,-0.39528 7.040763,-62.850997 0,-0.08471 -0.01413,-0.0847 -0.085,-0.31058 c -6.67e-4,-0.0092 6.66e-4,-0.019 0,-0.02826 -0.04799,-0.440169 -0.165502,-0.853456 -0.339995,-1.242341 l -0.184164,-0.719994 -0.02833,-0.141173 -0.113332,-0.09882 -1.402483,-1.199989 -0.09917,-0.07059 -0.113332,-0.02826 -19.450627,-3.571718 0,-3.45878 c 7.216468,-0.290691 12.990695,-6.220101 12.990695,-13.482194 0,-7.447338 -6.069978,-13.4963052 -13.543189,-13.4963052 z m 0,0.9035192 c 6.983217,0 12.636531,5.6337404 12.636531,12.5927854 0,6.959045 -5.653314,12.592786 -12.636531,12.592786 -6.983222,0 -12.636532,-5.633741 -12.636532,-12.592786 0,-6.959045 5.65331,-12.5927854 12.636532,-12.5927854 z m 2.464973,30.8043284 13.741521,2.527026 c -1.362347,0.694646 -2.309142,2.100822 -2.309142,3.727015 0,2.310441 1.888992,4.192891 4.207453,4.192891 1.191936,0 2.26535,-0.50167 3.031635,-1.298809 l -6.658262,59.505157 -12.551533,0 c 1.311063,-0.71087 2.209977,-2.09624 2.209977,-3.68467 0,-2.31043 -1.888988,-4.19288 -4.207455,-4.19288 -2.318463,0 -4.207455,1.88245 -4.207455,4.19288 0,1.58844 0.898914,2.9738 2.209976,3.68467 l -13.415692,0 -6.332433,-59.575744 c 0.769848,0.839858 1.874396,1.369396 3.102468,1.369396 2.318462,0 4.207454,-1.88245 4.207454,-4.192891 0,-1.703945 -1.024241,-3.171229 -2.493306,-3.825836 l 14.662345,-2.414088 c -1.086315,0.75886 -1.799147,2.011765 -1.799147,3.430545 0,2.310442 1.888988,4.192892 4.207455,4.192892 2.318462,0 4.207455,-1.88245 4.207455,-4.192892 0,-1.425845 -0.717854,-2.687015 -1.813314,-3.444662 z m -2.394141,0.15529 c 1.828473,0 3.300798,1.46723 3.300798,3.289372 0,1.822142 -1.472329,3.289373 -3.300798,3.289373 -1.828473,0 -3.300798,-1.467231 -3.300798,-3.289373 0,-1.822142 1.472329,-3.289372 3.300798,-3.289372 z m -18.784801,2.809378 c 1.828472,0 3.300797,1.467231 3.300797,3.289373 0,1.822142 -1.472325,3.289372 -3.300797,3.289372 -1.828473,0 -3.300799,-1.46723 -3.300799,-3.289372 0,-1.822142 1.472326,-3.289373 3.300799,-3.289373 z m 36.818774,0 c 1.325644,0 2.463518,0.773464 2.989137,1.891742 l 0.297496,1.171748 c 0.0053,0.07467 0.01413,0.149891 0.01413,0.225883 0,1.822142 -1.472323,3.289372 -3.300797,3.289372 -1.828467,0 -3.300799,-1.46723 -3.300799,-3.289372 0,-1.822142 1.472332,-3.289373 3.300799,-3.289373 z M 55.381967,97.887162 c 1.828473,0 3.300798,1.467231 3.300798,3.289368 0,1.82215 -1.472329,3.28938 -3.300798,3.28938 -1.828473,0 -3.300798,-1.46723 -3.300798,-3.28938 0,-1.822137 1.472329,-3.289368 3.300798,-3.289368 z"
         id="path7170"
         style="font-size:medium;font-style:normal;font-variant:normal;font-weight:normal;font-stretch:normal;text-indent:0;text-align:start;text-decoration:none;line-height:normal;letter-spacing:normal;word-spacing:normal;text-transform:none;direction:ltr;block-progression:tb;writing-mode:lr-tb;text-anchor:start;baseline-shift:baseline;color:#000000;fill:#ffffff;fill-opacity:1;stroke:#ffffff;stroke-width:1;stroke-miterlimit:4;stroke-dasharray:none;marker:none;visibility:visible;display:inline;overflow:visible;enable-background:accumulate;font-family:Sans;-inkscape-font-specification:Sans" />
      <path
         d="m 81.103343,39.372463 c -2.318459,0 -4.206249,1.881257 -4.206249,4.191692 0,2.310441 1.88779,4.191698 4.206249,4.191698 2.318467,0 4.206263,-1.881257 4.206263,-4.191698 0,-2.310435 -1.887796,-4.191692 -4.206263,-4.191692 z m 0,0.903259 c 1.828474,0 3.299864,1.466291 3.299864,3.288433 0,1.822149 -1.47139,3.288433 -3.299864,3.288433 -1.828467,0 -3.29985,-1.466284 -3.29985,-3.288433 0,-1.822142 1.471383,-3.288433 3.29985,-3.288433 z"
         id="path7172"
         style="font-size:medium;font-style:normal;font-variant:normal;font-weight:normal;font-stretch:normal;text-indent:0;text-align:start;text-decoration:none;line-height:normal;letter-spacing:normal;word-spacing:normal;text-transform:none;direction:ltr;block-progression:tb;writing-mode:lr-tb;text-anchor:start;baseline-shift:baseline;color:#000000;fill:#ffffff;fill-opacity:1;stroke:#ffffff;stroke-width:1;stroke-miterlimit:4;stroke-dasharray:none;marker:none;visibility:visible;display:inline;overflow:visible;enable-background:accumulate;font-family:Sans;-inkscape-font-specification:Sans" />
      <path
         d="m 97.067456,23.95525 c -2.31847,0 -4.206267,1.881257 -4.206267,4.191692 0,2.310441 1.887797,4.191698 4.206267,4.191698 2.318458,0 4.206244,-1.881257 4.206244,-4.191698 0,-2.310435 -1.887786,-4.191692 -4.206244,-4.191692 z m 0,0.903266 c 1.828468,0 3.299844,1.466284 3.299844,3.288426 0,1.822149 -1.471386,3.288433 -3.299844,3.288433 -1.82848,0 -3.29986,-1.466284 -3.29986,-3.288433 0,-1.822142 1.47139,-3.288426 3.29986,-3.288426 z"
         id="path7174"
         style="font-size:medium;font-style:normal;font-variant:normal;font-weight:normal;font-stretch:normal;text-indent:0;text-align:start;text-decoration:none;line-height:normal;letter-spacing:normal;word-spacing:normal;text-transform:none;direction:ltr;block-progression:tb;writing-mode:lr-tb;text-anchor:start;baseline-shift:baseline;color:#000000;fill:#ffffff;fill-opacity:1;stroke:#ffffff;stroke-width:1;stroke-miterlimit:4;stroke-dasharray:none;marker:none;visibility:visible;display:inline;overflow:visible;enable-background:accumulate;font-family:Sans;-inkscape-font-specification:Sans" />
      <path
         d="m 93.877163,31.297961 -9.548549,9.26445"
         id="path7176"
         style="fill:#ffffff;stroke:#ffffff;stroke-width:0.99999994;stroke-linecap:round;stroke-linejoin:round;stroke-miterlimit:4;stroke-opacity:1;stroke-dasharray:none;display:inline" />
      <path
         d="M 94.339669,25.185921 76.836069,4.335307"
         id="path7178"
         style="fill:#ffffff;stroke:#ffffff;stroke-width:0.99999988;stroke-linecap:round;stroke-linejoin:round;stroke-miterlimit:4;stroke-opacity:1;stroke-dasharray:none;display:inline" />
      <path
         d="m 66.150563,-2.4953659 c -0.138271,-0.113635 -0.313596,-0.240712 -0.634675,-0.228036 -0.237275,0.0094 -0.504681,0.09444 -0.692757,0.252829 -0.223564,0.188445 -0.381315,0.470974 -0.435922,0.760757 -0.05442,0.287432 0.144287,0.56473 0.144287,0.56473 0,0 2.686366,3.149826 4.001715,4.652368 0.116156,0.133251 0.327886,0.14154 0.502355,0.171515 0.365633,0.06282 0.654052,0.02306 1.113506,0.01306 0.459451,-0.01035 0.849771,-0.08448 1.120346,-0.04738 0.535978,0.07345 0.946149,0.408057 0.946149,0.408057 l 2.067411,2.416672 4.472905,-3.700345 -1.925075,-2.29197498 -0.05292,-4.01463542 -0.191375,-0.5900316 -6.367328,-7.5811691 -0.561522,-0.129715 -0.693291,0.43191 -0.530727,0.4458 M 68.423155,0.20967112 61.204414,-8.3852819 m 9.062061,7.062578 -7.096948,-8.449954 c 0,0 -0.32156,-0.2312091 -0.51009,-0.2480941 -0.231316,-0.02065 -0.46595,0.0796 -0.671624,0.1882251 -0.187034,0.09931 -0.348279,0.248169 -0.486527,0.408633 -0.09945,0.115233 -0.202165,0.241359 -0.239176,0.388814 -0.06703,0.266733 0.04967,0.822647 0.04967,0.822647 m 10.635294,5.478009 -7.763189,-9.2431841 c 0,0 -0.321533,-0.231245 -0.510089,-0.248109 -0.231314,-0.02069 -0.465964,0.07958 -0.671614,0.188221 -0.18705,0.09931 -0.348285,0.248186 -0.486538,0.40865 -0.07947,0.09224 -0.150758,0.196344 -0.19133,0.311044 -0.05681,0.160401 -0.06243,0.335983 -0.06516,0.505953 -0.0028,0.18652 0.05288,0.556924 0.05288,0.556924 m 11.360254,6.0719183 -6.948802,-8.2737013 c 0,0 -0.321553,-0.231225 -0.510105,-0.248093 -0.231266,-0.0207 -0.465951,0.07961 -0.671632,0.188237 -0.187016,0.0993 -0.348254,0.248172 -0.486522,0.408619 -0.07953,0.09214 -0.123625,0.209857 -0.191332,0.311037 -0.06619,0.09894 -0.209874,0.288962 -0.209874,0.288962"
         id="path7180"
         style="fill:none;stroke:#ffffff;stroke-width:1;stroke-linecap:round;stroke-linejoin:round;stroke-miterlimit:4;stroke-opacity:1;stroke-dasharray:none;display:inline" />
      <path
         d="m 55.367801,105.60943 0,2.1882 0,-2.1882 z m -14.124019,2.8376 27.610541,0 -27.610541,0 z m 22.41143,0.53647 0,90.02713 0,-90.02713 z m -17.778977,0.24 0,90.02713 0,-90.02713 z m 2.76247,0 0,90.02713 0,-90.02713 z m 12.480701,0 0,90.02713 0,-90.02713 z m -27.256378,90.36596 0,3.91054 40.431235,0 0,-3.91054 -40.431235,0 z"
         id="path7182"
         style="fill:none;stroke:#ffffff;stroke-width:1;stroke-linecap:round;stroke-linejoin:round;stroke-miterlimit:4;stroke-opacity:1;stroke-dasharray:none;display:inline" />
      <path
         d="m 28.896672,39.372463 c 2.318462,0 4.206254,1.881257 4.206254,4.191692 0,2.310441 -1.887792,4.191698 -4.206254,4.191698 -2.318467,0 -4.206259,-1.881257 -4.206259,-4.191698 0,-2.310435 1.887792,-4.191692 4.206259,-4.191692 z m 0,0.903259 c -1.828474,0 -3.29986,1.466291 -3.29986,3.288433 0,1.822149 1.471386,3.288433 3.29986,3.288433 1.828469,0 3.299855,-1.466284 3.299855,-3.288433 0,-1.822142 -1.471386,-3.288433 -3.299855,-3.288433 z"
         id="path7184"
         style="font-size:medium;font-style:normal;font-variant:normal;font-weight:normal;font-stretch:normal;text-indent:0;text-align:start;text-decoration:none;line-height:normal;letter-spacing:normal;word-spacing:normal;text-transform:none;direction:ltr;block-progression:tb;writing-mode:lr-tb;text-anchor:start;baseline-shift:baseline;color:#000000;fill:#ffffff;fill-opacity:1;stroke:#ffffff;stroke-width:1;stroke-miterlimit:4;stroke-dasharray:none;marker:none;visibility:visible;display:inline;overflow:visible;enable-background:accumulate;font-family:Sans;-inkscape-font-specification:Sans" />
      <path
         d="m 11.452632,61.547808 c 2.318462,0 4.206258,1.881257 4.206258,4.191692 0,2.310441 -1.887791,4.191698 -4.206258,4.191698 -2.3184628,0 -4.2062586,-1.881257 -4.2062586,-4.191698 0,-2.310435 1.8877913,-4.191692 4.2062586,-4.191692 z m 0,0.903266 c -1.8284736,0 -3.2998555,1.466284 -3.2998555,3.288426 0,1.822149 1.4713865,3.288433 3.2998555,3.288433 1.828473,0 3.299855,-1.466284 3.299855,-3.288433 0,-1.822142 -1.471386,-3.288426 -3.299855,-3.288426 z"
         id="path7186"
         style="font-size:medium;font-style:normal;font-variant:normal;font-weight:normal;font-stretch:normal;text-indent:0;text-align:start;text-decoration:none;line-height:normal;letter-spacing:normal;word-spacing:normal;text-transform:none;direction:ltr;block-progression:tb;writing-mode:lr-tb;text-anchor:start;baseline-shift:baseline;color:#000000;fill:#ffffff;fill-opacity:1;stroke:#ffffff;stroke-width:1;stroke-miterlimit:4;stroke-dasharray:none;marker:none;visibility:visible;display:inline;overflow:visible;enable-background:accumulate;font-family:Sans;-inkscape-font-specification:Sans" />
      <path
         d="M 26.092581,46.723992 13.59514,62.208541"
         id="path7188"
         style="fill:#ffffff;stroke:#ffffff;stroke-width:1;stroke-linecap:round;stroke-linejoin:round;stroke-miterlimit:4;stroke-opacity:1;stroke-dasharray:none;display:inline" />
      <path
         d="m 10.926286,70.193335 0,28.816464"
         id="path7190"
         style="fill:#ffffff;stroke:#ffffff;stroke-width:1;stroke-linecap:round;stroke-linejoin:round;stroke-miterlimit:4;stroke-opacity:1;stroke-dasharray:none;display:inline" />
      <path
         d="m 14.715645,111.11265 c 0.03282,0.17594 0.08533,0.38601 0.339344,0.5828 0.187705,0.14543 0.447204,0.25225 0.693116,0.25183 0.292388,-4.5e-4 0.59489,-0.11541 0.823082,-0.30219 0.226365,-0.1853 0.252703,-0.52524 0.252703,-0.52524 0,0 -0.03133,-4.13969 -0.0722,-6.13621 -0.0036,-0.17674 -0.160038,-0.31926 -0.274359,-0.45443 -0.239575,-0.28326 -0.485946,-0.43839 -0.844438,-0.72594 -0.358496,-0.28755 -0.705057,-0.48182 -0.888369,-0.68428 -0.363094,-0.40103 -0.462083,-0.92097 -0.462083,-0.92097 l -0.02887,-3.180202 -5.8048942,-0.04319 0,2.993132 -2.5414503,3.10825 -0.2310389,0.5756 0,9.90036 0.3465606,0.46048 0.8086428,0.11512 0.6931167,0 m 7.1911413,-8.54768 0,11.22425 M 12.3186,107.5678 l 0,11.03488 c 0,0 0.09752,0.38385 0.231044,0.51804 0.163806,0.16461 0.407991,0.23872 0.635358,0.2878 0.206985,0.0447 0.426311,0.0338 0.635363,0 0.150246,-0.0243 0.310031,-0.0548 0.4332,-0.14391 0.222793,-0.1612 0.490964,-0.66193 0.490964,-0.66193 m -4.620813,-11.0347 0,12.07078 c 0,0 0.09752,0.38386 0.231043,0.51804 0.163806,0.16462 0.407991,0.23873 0.635358,0.28781 0.206985,0.0447 0.42631,0.0338 0.635363,0 0.120195,-0.0195 0.241719,-0.0534 0.34656,-0.11513 0.146638,-0.0863 0.263932,-0.21707 0.375442,-0.34536 0.122381,-0.14079 0.31768,-0.46048 0.31768,-0.46048 m -4.7940947,-11.95584 0,10.80464 c 0,0 0.097524,0.38386 0.2310434,0.51804 0.1638056,0.16461 0.407991,0.23872 0.635358,0.2878 0.2069852,0.0447 0.4263101,0.0338 0.6353625,0 0.1201956,-0.0194 0.2296472,-0.0812 0.3465606,-0.11512 0.114325,-0.0332 0.3465602,-0.0863 0.3465602,-0.0863"
         id="path7192"
         style="fill:none;stroke:#ffffff;stroke-width:1;stroke-linecap:round;stroke-linejoin:round;stroke-miterlimit:4;stroke-opacity:1;stroke-dasharray:none;display:inline" />
      <path
         d="M 59.296137,42.555996 z"
         id="path7194"
         style="fill:#ffffff;stroke:#ffffff;stroke-width:1;stroke-linecap:round;stroke-linejoin:round;stroke-miterlimit:4;stroke-opacity:1;stroke-dasharray:none;display:inline" />
      <path
         d="m 55.4528,4.5000724 c -7.473216,0 -13.543192,6.0489606 -13.543192,13.4963046 0,7.328561 5.880204,13.293431 13.189029,13.482188 l 0,3.45878 0.269164,0 -19.903957,3.275255 -0.07083,0 -0.05667,0.04232 c 0,0 -1.335941,0.678703 -2.011645,1.00234 -0.06094,0.0292 -0.139661,0.03399 -0.184165,0.0847 -0.04228,0.04819 -0.03797,0.12229 -0.05666,0.183524 -0.233879,0.766299 -0.69416,2.30115 -0.69416,2.30115 l -0.02833,0.0847 0,0.09883 6.743261,63.359226 0.04248,0.39528 0.410829,0 30.783841,0 0.396662,0 0.05667,-0.39528 7.040763,-62.850997 0,-0.08471 -0.01413,-0.0847 -0.085,-0.31058 c -6.67e-4,-0.0092 6.66e-4,-0.019 0,-0.02826 -0.04799,-0.440169 -0.165502,-0.853456 -0.339995,-1.242341 l -0.184164,-0.719994 -0.02833,-0.141173 -0.113332,-0.09882 -1.402483,-1.199989 -0.09917,-0.07059 -0.113332,-0.02826 -19.450627,-3.571718 0,-3.45878 c 7.216468,-0.290691 12.990695,-6.220101 12.990695,-13.482194 0,-7.447338 -6.069978,-13.4963052 -13.543189,-13.4963052 z m 0,0.9035192 c 6.983217,0 12.636531,5.6337404 12.636531,12.5927854 0,6.959045 -5.653314,12.592786 -12.636531,12.592786 -6.983222,0 -12.636532,-5.633741 -12.636532,-12.592786 0,-6.959045 5.65331,-12.5927854 12.636532,-12.5927854 z m 2.464973,30.8043284 13.741521,2.527026 c -1.362347,0.694646 -2.309142,2.100822 -2.309142,3.727015 0,2.310441 1.888992,4.192891 4.207453,4.192891 1.191936,0 2.26535,-0.50167 3.031635,-1.298809 l -6.658262,59.505157 -12.551533,0 c 1.311063,-0.71087 2.209977,-2.09624 2.209977,-3.68467 0,-2.31043 -1.888988,-4.19288 -4.207455,-4.19288 -2.318463,0 -4.207455,1.88245 -4.207455,4.19288 0,1.58844 0.898914,2.9738 2.209976,3.68467 l -13.415692,0 -6.332433,-59.575744 c 0.769848,0.839858 1.874396,1.369396 3.102468,1.369396 2.318462,0 4.207454,-1.88245 4.207454,-4.192891 0,-1.703945 -1.024241,-3.171229 -2.493306,-3.825836 l 14.662345,-2.414088 c -1.086315,0.75886 -1.799147,2.011765 -1.799147,3.430545 0,2.310442 1.888988,4.192892 4.207455,4.192892 2.318462,0 4.207455,-1.88245 4.207455,-4.192892 0,-1.425845 -0.717854,-2.687015 -1.813314,-3.444662 z m -2.394141,0.15529 c 1.828473,0 3.300798,1.46723 3.300798,3.289372 0,1.822142 -1.472329,3.289373 -3.300798,3.289373 -1.828473,0 -3.300798,-1.467231 -3.300798,-3.289373 0,-1.822142 1.472329,-3.289372 3.300798,-3.289372 z m -18.784801,2.809378 c 1.828472,0 3.300797,1.467231 3.300797,3.289373 0,1.822142 -1.472325,3.289372 -3.300797,3.289372 -1.828473,0 -3.300799,-1.46723 -3.300799,-3.289372 0,-1.822142 1.472326,-3.289373 3.300799,-3.289373 z m 36.818774,0 c 1.325644,0 2.463518,0.773464 2.989137,1.891742 l 0.297496,1.171748 c 0.0053,0.07467 0.01413,0.149891 0.01413,0.225883 0,1.822142 -1.472323,3.289372 -3.300797,3.289372 -1.828467,0 -3.300799,-1.46723 -3.300799,-3.289372 0,-1.822142 1.472332,-3.289373 3.300799,-3.289373 z M 55.381967,97.887162 c 1.828473,0 3.300798,1.467231 3.300798,3.289368 0,1.82215 -1.472329,3.28938 -3.300798,3.28938 -1.828473,0 -3.300798,-1.46723 -3.300798,-3.28938 0,-1.822137 1.472329,-3.289368 3.300798,-3.289368 z"
         id="path7196"
         style="font-size:medium;font-style:normal;font-variant:normal;font-weight:normal;font-stretch:normal;text-indent:0;text-align:start;text-decoration:none;line-height:normal;letter-spacing:normal;word-spacing:normal;text-transform:none;direction:ltr;block-progression:tb;writing-mode:lr-tb;text-anchor:start;baseline-shift:baseline;color:#000000;fill:#ffffff;fill-opacity:1;stroke:#ffffff;stroke-width:1;stroke-miterlimit:4;stroke-dasharray:none;marker:none;visibility:visible;display:inline;overflow:visible;enable-background:accumulate;font-family:Sans;-inkscape-font-specification:Sans" />
      <path
         d="m 81.103343,39.372463 c -2.318459,0 -4.206249,1.881257 -4.206249,4.191692 0,2.310441 1.88779,4.191698 4.206249,4.191698 2.318467,0 4.206263,-1.881257 4.206263,-4.191698 0,-2.310435 -1.887796,-4.191692 -4.206263,-4.191692 z m 0,0.903259 c 1.828474,0 3.299864,1.466291 3.299864,3.288433 0,1.822149 -1.47139,3.288433 -3.299864,3.288433 -1.828467,0 -3.29985,-1.466284 -3.29985,-3.288433 0,-1.822142 1.471383,-3.288433 3.29985,-3.288433 z"
         id="path7198"
         style="font-size:medium;font-style:normal;font-variant:normal;font-weight:normal;font-stretch:normal;text-indent:0;text-align:start;text-decoration:none;line-height:normal;letter-spacing:normal;word-spacing:normal;text-transform:none;direction:ltr;block-progression:tb;writing-mode:lr-tb;text-anchor:start;baseline-shift:baseline;color:#000000;fill:#ffffff;fill-opacity:1;stroke:#ffffff;stroke-width:1;stroke-miterlimit:4;stroke-dasharray:none;marker:none;visibility:visible;display:inline;overflow:visible;enable-background:accumulate;font-family:Sans;-inkscape-font-specification:Sans" />
      <path
         d="m 55.367801,105.60943 0,2.1882 0,-2.1882 z m -14.124019,2.8376 27.610541,0 -27.610541,0 z m 22.41143,0.53647 0,90.02713 0,-90.02713 z m -17.778977,0.24 0,90.02713 0,-90.02713 z m 2.76247,0 0,90.02713 0,-90.02713 z m 12.480701,0 0,90.02713 0,-90.02713 z m -27.256378,90.36596 0,3.91054 40.431235,0 0,-3.91054 -40.431235,0 z"
         id="path7200"
         style="fill:none;stroke:#ffffff;stroke-width:1;stroke-linecap:round;stroke-linejoin:round;stroke-miterlimit:4;stroke-opacity:1;stroke-dasharray:none;display:inline" />
      <path
         d="m 28.896672,39.372463 c 2.318462,0 4.206254,1.881257 4.206254,4.191692 0,2.310441 -1.887792,4.191698 -4.206254,4.191698 -2.318467,0 -4.206259,-1.881257 -4.206259,-4.191698 0,-2.310435 1.887792,-4.191692 4.206259,-4.191692 z m 0,0.903259 c -1.828474,0 -3.29986,1.466291 -3.29986,3.288433 0,1.822149 1.471386,3.288433 3.29986,3.288433 1.828469,0 3.299855,-1.466284 3.299855,-3.288433 0,-1.822142 -1.471386,-3.288433 -3.299855,-3.288433 z"
         id="path7202"
         style="font-size:medium;font-style:normal;font-variant:normal;font-weight:normal;font-stretch:normal;text-indent:0;text-align:start;text-decoration:none;line-height:normal;letter-spacing:normal;word-spacing:normal;text-transform:none;direction:ltr;block-progression:tb;writing-mode:lr-tb;text-anchor:start;baseline-shift:baseline;color:#000000;fill:#ffffff;fill-opacity:1;stroke:#ffffff;stroke-width:1;stroke-miterlimit:4;stroke-dasharray:none;marker:none;visibility:visible;display:inline;overflow:visible;enable-background:accumulate;font-family:Sans;-inkscape-font-specification:Sans" />
      <path
         d="m 11.452632,61.547808 c 2.318462,0 4.206258,1.881257 4.206258,4.191692 0,2.310441 -1.887791,4.191698 -4.206258,4.191698 -2.3184628,0 -4.2062586,-1.881257 -4.2062586,-4.191698 0,-2.310435 1.8877913,-4.191692 4.2062586,-4.191692 z m 0,0.903266 c -1.8284736,0 -3.2998555,1.466284 -3.2998555,3.288426 0,1.822149 1.4713865,3.288433 3.2998555,3.288433 1.828473,0 3.299855,-1.466284 3.299855,-3.288433 0,-1.822142 -1.471386,-3.288426 -3.299855,-3.288426 z"
         id="path7204"
         style="font-size:medium;font-style:normal;font-variant:normal;font-weight:normal;font-stretch:normal;text-indent:0;text-align:start;text-decoration:none;line-height:normal;letter-spacing:normal;word-spacing:normal;text-transform:none;direction:ltr;block-progression:tb;writing-mode:lr-tb;text-anchor:start;baseline-shift:baseline;color:#000000;fill:#ffffff;fill-opacity:1;stroke:#ffffff;stroke-width:1;stroke-miterlimit:4;stroke-dasharray:none;marker:none;visibility:visible;display:inline;overflow:visible;enable-background:accumulate;font-family:Sans;-inkscape-font-specification:Sans" />
      <path
         d="M 26.092581,46.723992 13.59514,62.208541"
         id="path7206"
         style="fill:#ffffff;stroke:#ffffff;stroke-width:1;stroke-linecap:round;stroke-linejoin:round;stroke-miterlimit:4;stroke-opacity:1;stroke-dasharray:none;display:inline" />
      <path
         d="m 10.926286,70.193335 0,28.816464"
         id="path7208"
         style="fill:#ffffff;stroke:#ffffff;stroke-width:1;stroke-linecap:round;stroke-linejoin:round;stroke-miterlimit:4;stroke-opacity:1;stroke-dasharray:none;display:inline" />
      <path
         d="m 14.715645,111.11265 c 0.03282,0.17594 0.08533,0.38601 0.339344,0.5828 0.187705,0.14543 0.447204,0.25225 0.693116,0.25183 0.292388,-4.5e-4 0.59489,-0.11541 0.823082,-0.30219 0.226365,-0.1853 0.252703,-0.52524 0.252703,-0.52524 0,0 -0.03133,-4.13969 -0.0722,-6.13621 -0.0036,-0.17674 -0.160038,-0.31926 -0.274359,-0.45443 -0.239575,-0.28326 -0.485946,-0.43839 -0.844438,-0.72594 -0.358496,-0.28755 -0.705057,-0.48182 -0.888369,-0.68428 -0.363094,-0.40103 -0.462083,-0.92097 -0.462083,-0.92097 l -0.02887,-3.180202 -5.8048942,-0.04319 0,2.993132 -2.5414503,3.10825 -0.2310389,0.5756 0,9.90036 0.3465606,0.46048 0.8086428,0.11512 0.6931167,0 m 7.1911413,-8.54768 0,11.22425 M 12.3186,107.5678 l 0,11.03488 c 0,0 0.09752,0.38385 0.231044,0.51804 0.163806,0.16461 0.407991,0.23872 0.635358,0.2878 0.206985,0.0447 0.426311,0.0338 0.635363,0 0.150246,-0.0243 0.310031,-0.0548 0.4332,-0.14391 0.222793,-0.1612 0.490964,-0.66193 0.490964,-0.66193 m -4.620813,-11.0347 0,12.07078 c 0,0 0.09752,0.38386 0.231043,0.51804 0.163806,0.16462 0.407991,0.23873 0.635358,0.28781 0.206985,0.0447 0.42631,0.0338 0.635363,0 0.120195,-0.0195 0.241719,-0.0534 0.34656,-0.11513 0.146638,-0.0863 0.263932,-0.21707 0.375442,-0.34536 0.122381,-0.14079 0.31768,-0.46048 0.31768,-0.46048 m -4.7940947,-11.95584 0,10.80464 c 0,0 0.097524,0.38386 0.2310434,0.51804 0.1638056,0.16461 0.407991,0.23872 0.635358,0.2878 0.2069852,0.0447 0.4263101,0.0338 0.6353625,0 0.1201956,-0.0194 0.2296472,-0.0812 0.3465606,-0.11512 0.114325,-0.0332 0.3465602,-0.0863 0.3465602,-0.0863"
         id="path7210"
         style="fill:none;stroke:#ffffff;stroke-width:1;stroke-linecap:round;stroke-linejoin:round;stroke-miterlimit:4;stroke-opacity:1;stroke-dasharray:none;display:inline" />
    </g>
  </g>
</svg>
