<?xml version="1.0" encoding="UTF-8" standalone="no"?>
<!-- Created with Inkscape (http://www.inkscape.org/) -->

<svg
   xmlns:dc="http://purl.org/dc/elements/1.1/"
   xmlns:cc="http://creativecommons.org/ns#"
   xmlns:rdf="http://www.w3.org/1999/02/22-rdf-syntax-ns#"
   xmlns:svg="http://www.w3.org/2000/svg"
   xmlns="http://www.w3.org/2000/svg"
   version="1.1"
   width="250"
   height="500"
   id="svg8552">
  <defs
     id="defs8554" />
  <metadata
     id="metadata8557">
    <rdf:RDF>
      <cc:Work
         rdf:about="">
        <dc:format>image/svg+xml</dc:format>
        <dc:type
           rdf:resource="http://purl.org/dc/dcmitype/StillImage" />
        <dc:title></dc:title>
        <cc:license
           rdf:resource="http://creativecommons.org/licenses/publicdomain/" />
      </cc:Work>
      <cc:License
         rdf:about="http://creativecommons.org/licenses/publicdomain/">
        <cc:permits
           rdf:resource="http://creativecommons.org/ns#Reproduction" />
        <cc:permits
           rdf:resource="http://creativecommons.org/ns#Distribution" />
        <cc:permits
           rdf:resource="http://creativecommons.org/ns#DerivativeWorks" />
      </cc:License>
    </rdf:RDF>
  </metadata>
  <g
     transform="translate(-2.850813,-182.11515)"
     id="layer2"
     style="display:inline">
    <path
       d="M 137.13138,322.35456 z"
       id="path9195"
       style="fill:#ffffff;stroke:#ffffff;stroke-width:1px;stroke-linecap:round;stroke-linejoin:round;stroke-opacity:1" />
    <path
       d="m 128.65334,238.11515 c -16.48521,0 -29.875004,13.3898 -29.875004,29.875 0,16.22227 12.971174,29.42593 29.093754,29.84375 l 0,7.65625 0.59375,0 -43.906254,7.25 -0.15625,0 -0.125,0.0937 c 0,0 -2.946962,1.50236 -4.4375,2.21875 -0.134424,0.0646 -0.308081,0.0752 -0.40625,0.1875 -0.09326,0.10666 -0.08377,0.2707 -0.125,0.40625 -0.515915,1.69625 -1.53125,5.09375 -1.53125,5.09375 l -0.0625,0.1875 0,0.21875 14.875,140.25 0.0937,0.875 0.90625,0 67.906254,0 0.875,0 0.125,-0.875 15.53125,-139.125 0,-0.1875 -0.0312,-0.1875 -0.1875,-0.6875 c -0.002,-0.0204 0.002,-0.0421 0,-0.0625 -0.10586,-0.97434 -0.36509,-1.88918 -0.75,-2.75 l -0.40625,-1.59375 -0.0625,-0.3125 -0.25,-0.21875 -3.09375,-2.65625 -0.21875,-0.15625 -0.25,-0.0625 -42.90625,-7.90625 0,-7.65625 c 15.91885,-0.64346 28.65625,-13.76861 28.65625,-29.84375 0,-16.4852 -13.3898,-29.875 -29.875,-29.875 z m 0,2 c 15.40432,0 27.875,12.47068 27.875,27.875 0,15.40433 -12.47068,27.875 -27.875,27.875 -15.40433,0 -27.875,-12.47067 -27.875,-27.875 0,-15.40432 12.47067,-27.875 27.875,-27.875 z m 5.4375,68.1875 30.3125,5.59375 c -3.00521,1.53764 -5.09375,4.65031 -5.09375,8.25 0,5.11432 4.16694,9.28125 9.28125,9.28125 2.6293,0 4.99715,-1.11048 6.6875,-2.875 l -14.6875,131.71875 -27.6875,0 c 2.89208,-1.57354 4.875,-4.64016 4.875,-8.15625 0,-5.11431 -4.16693,-9.28125 -9.28125,-9.28125 -5.11431,0 -9.28125,4.16694 -9.28125,9.28125 0,3.5161 1.98292,6.58271 4.875,8.15625 l -29.593754,0 -13.96875,-131.875 c 1.698211,1.85908 4.134741,3.03125 6.84375,3.03125 5.11431,0 9.28125,-4.16693 9.28125,-9.28125 0,-3.7718 -2.25938,-7.01973 -5.5,-8.46875 l 32.343754,-5.34375 c -2.39631,1.67979 -3.96875,4.45319 -3.96875,7.59375 0,5.11432 4.16693,9.28125 9.28125,9.28125 5.11431,0 9.28125,-4.16693 9.28125,-9.28125 0,-3.1562 -1.58352,-5.9479 -4,-7.625 z m -5.28125,0.34375 c 4.03344,0 7.28125,3.24781 7.28125,7.28125 0,4.03344 -3.24782,7.28125 -7.28125,7.28125 -4.03344,0 -7.28125,-3.24781 -7.28125,-7.28125 0,-4.03344 3.24782,-7.28125 7.28125,-7.28125 z m -41.437504,6.21875 c 4.03344,0 7.28125,3.24781 7.28125,7.28125 0,4.03344 -3.24781,7.28125 -7.28125,7.28125 -4.033436,0 -7.28125,-3.24781 -7.28125,-7.28125 0,-4.03344 3.247814,-7.28125 7.28125,-7.28125 z m 81.218754,0 c 2.92424,0 5.43428,1.71212 6.59375,4.1875 l 0.65625,2.59375 c 0.0111,0.16529 0.0312,0.33179 0.0312,0.5 0,4.03344 -3.24781,7.28125 -7.28125,7.28125 -4.03343,0 -7.28125,-3.24781 -7.28125,-7.28125 0,-4.03344 3.24782,-7.28125 7.28125,-7.28125 z M 128.49709,444.8339 c 4.03344,0 7.28125,3.24781 7.28125,7.28125 0,4.03344 -3.24782,7.28125 -7.28125,7.28125 -4.03344,0 -7.28125,-3.24781 -7.28125,-7.28125 0,-4.03344 3.24782,-7.28125 7.28125,-7.28125 z"
       id="path9190"
       style="font-size:medium;font-style:normal;font-variant:normal;font-weight:normal;font-stretch:normal;text-indent:0;text-align:start;text-decoration:none;line-height:normal;letter-spacing:normal;word-spacing:normal;text-transform:none;direction:ltr;block-progression:tb;writing-mode:lr-tb;text-anchor:start;baseline-shift:baseline;color:#000000;fill:#ffffff;fill-opacity:1;stroke:#ffffff;stroke-width:2;marker:none;visibility:visible;display:inline;overflow:visible;enable-background:accumulate;font-family:Sans;-inkscape-font-specification:Sans" />
    <path
       d="m 185.23603,315.30759 c -5.11431,0 -9.2786,4.16429 -9.2786,9.2786 0,5.11432 4.16429,9.2786 9.2786,9.2786 5.11432,0 9.27861,-4.16428 9.27861,-9.2786 0,-5.11431 -4.16429,-9.2786 -9.27861,-9.2786 z m 0,1.99943 c 4.03344,0 7.27918,3.24573 7.27918,7.27917 0,4.03344 -3.24574,7.27917 -7.27918,7.27917 -4.03343,0 -7.27917,-3.24573 -7.27917,-7.27917 0,-4.03344 3.24574,-7.27917 7.27917,-7.27917 z"
       id="path9207"
       style="font-size:medium;font-style:normal;font-variant:normal;font-weight:normal;font-stretch:normal;text-indent:0;text-align:start;text-decoration:none;line-height:normal;letter-spacing:normal;word-spacing:normal;text-transform:none;direction:ltr;block-progression:tb;writing-mode:lr-tb;text-anchor:start;baseline-shift:baseline;color:#000000;fill:#ffffff;fill-opacity:1;stroke:#ffffff;stroke-width:2;marker:none;visibility:visible;display:inline;overflow:visible;enable-background:accumulate;font-family:Sans;-inkscape-font-specification:Sans" />
    <path
       d="m 223.71594,364.39424 c -5.11431,0 -9.27861,4.16429 -9.27861,9.2786 0,5.11432 4.16429,9.2786 9.27861,9.2786 5.11431,0 9.27861,-4.16428 9.27861,-9.2786 0,-5.11431 -4.16429,-9.2786 -9.27861,-9.2786 z m 0,1.99943 c 4.03344,0 7.27917,3.24573 7.27917,7.27917 0,4.03344 -3.24574,7.27917 -7.27917,7.27917 -4.03344,0 -7.27917,-3.24573 -7.27917,-7.27917 0,-4.03344 3.24574,-7.27917 7.27917,-7.27917 z"
       id="path9250"
       style="font-size:medium;font-style:normal;font-variant:normal;font-weight:normal;font-stretch:normal;text-indent:0;text-align:start;text-decoration:none;line-height:normal;letter-spacing:normal;word-spacing:normal;text-transform:none;direction:ltr;block-progression:tb;writing-mode:lr-tb;text-anchor:start;baseline-shift:baseline;color:#000000;fill:#ffffff;fill-opacity:1;stroke:#ffffff;stroke-width:2;marker:none;visibility:visible;display:inline;overflow:visible;enable-background:accumulate;font-family:Sans;-inkscape-font-specification:Sans" />
    <path
       d="m 191.42159,331.5807 27.56818,34.27611"
       id="path9260"
       style="fill:#ffffff;stroke:#ffffff;stroke-width:2.87107372;stroke-linecap:round;stroke-linejoin:round;stroke-opacity:1" />
    <path
       d="m 224.87701,383.5317 0,63.78723"
       id="path9262"
       style="fill:#ffffff;stroke:#ffffff;stroke-width:2;stroke-linecap:round;stroke-linejoin:round;stroke-opacity:1" />
    <path
       d="m 216.51804,474.10943 c -0.0724,0.38943 -0.18823,0.85444 -0.74856,1.29007 -0.41406,0.32191 -0.98649,0.55835 -1.52895,0.55743 -0.64498,-10e-4 -1.31227,-0.25546 -1.81564,-0.66892 -0.49934,-0.41018 -0.55744,-1.16265 -0.55744,-1.16265 0,0 0.0691,-9.16348 0.15926,-13.58293 0.008,-0.39123 0.35303,-0.70669 0.60521,-1.00591 0.52848,-0.62702 1.07195,-0.97041 1.86275,-1.60692 0.79081,-0.63652 1.55529,-1.06654 1.95966,-1.51471 0.80095,-0.88769 1.01931,-2.03862 1.01931,-2.03862 l 0.0637,-7.03959 12.80505,-0.0956 0,6.6255 5.6062,6.88033 0.50965,1.27414 0,21.91512 -0.76448,1.01931 -1.78379,0.25482 -1.52895,10e-6 m -15.86298,-18.92087 0,24.84563 m 5.28766,-24.87242 0,24.42647 c 0,0 -0.21513,0.8497 -0.50966,1.14672 -0.36134,0.36439 -0.89999,0.52843 -1.40154,0.63707 -0.45659,0.0989 -0.9404,0.0748 -1.40155,0 -0.33143,-0.0538 -0.6839,-0.12126 -0.9556,-0.31854 -0.49146,-0.35685 -1.08302,-1.46525 -1.08302,-1.46525 m 10.19308,-24.42607 0,26.71952 c 0,0 -0.21513,0.8497 -0.50966,1.14672 -0.36134,0.36439 -0.89999,0.52843 -1.40154,0.63707 -0.45659,0.0989 -0.9404,0.0748 -1.40155,0 -0.26514,-0.043 -0.53321,-0.11821 -0.76448,-0.25483 -0.32347,-0.19109 -0.58221,-0.48051 -0.82819,-0.76448 -0.26996,-0.31166 -0.70077,-1.01931 -0.70077,-1.01931 m 10.57532,-26.46509 0,23.91682 c 0,0 -0.21513,0.8497 -0.50966,1.14672 -0.36134,0.36439 -0.89999,0.52843 -1.40154,0.63707 -0.45659,0.0989 -0.9404,0.0748 -1.40155,0 -0.26514,-0.043 -0.50658,-0.17973 -0.76448,-0.25483 -0.25219,-0.0734 -0.76448,-0.19112 -0.76448,-0.19112"
       id="path9335"
       style="fill:none;stroke:#ffffff;stroke-width:2;stroke-linecap:round;stroke-linejoin:round;stroke-opacity:1" />
    <path
       d="m 128.46584,461.92765 0,4.84375 0,-4.84375 z m -31.156254,6.28125 60.906254,0 -60.906254,0 z m 49.437504,1.1875 0,199.28125 0,-199.28125 z m -39.21875,0.53125 0,199.28125 0,-199.28125 z m 6.09375,0 0,199.28125 0,-199.28125 z m 27.53125,0 0,199.28125 0,-199.28125 z m -60.125004,200.03125 0,8.65625 89.187504,0 0,-8.65625 -89.187504,0 z"
       id="path9342"
       style="fill:none;stroke:#ffffff;stroke-width:3;stroke-linecap:round;stroke-linejoin:round;stroke-opacity:1;display:inline" />
    <path
       d="m 70.073023,315.30759 c 5.11431,0 9.2786,4.16429 9.2786,9.2786 0,5.11432 -4.16429,9.2786 -9.2786,9.2786 -5.11432,0 -9.27861,-4.16428 -9.27861,-9.2786 0,-5.11431 4.16429,-9.2786 9.27861,-9.2786 z m 0,1.99943 c -4.03344,0 -7.27918,3.24573 -7.27918,7.27917 0,4.03344 3.24574,7.27917 7.27918,7.27917 4.03343,0 7.27917,-3.24573 7.27917,-7.27917 0,-4.03344 -3.24574,-7.27917 -7.27917,-7.27917 z"
       id="path9711"
       style="font-size:medium;font-style:normal;font-variant:normal;font-weight:normal;font-stretch:normal;text-indent:0;text-align:start;text-decoration:none;line-height:normal;letter-spacing:normal;word-spacing:normal;text-transform:none;direction:ltr;block-progression:tb;writing-mode:lr-tb;text-anchor:start;baseline-shift:baseline;color:#000000;fill:#ffffff;fill-opacity:1;stroke:#ffffff;stroke-width:2;marker:none;visibility:visible;display:inline;overflow:visible;enable-background:accumulate;font-family:Sans;-inkscape-font-specification:Sans" />
    <path
       d="m 31.593113,364.39424 c 5.11431,0 9.27861,4.16429 9.27861,9.2786 0,5.11432 -4.16429,9.2786 -9.27861,9.2786 -5.11431,0 -9.27861,-4.16428 -9.27861,-9.2786 0,-5.11431 4.16429,-9.2786 9.27861,-9.2786 z m 0,1.99943 c -4.03344,0 -7.27917,3.24573 -7.27917,7.27917 0,4.03344 3.24574,7.27917 7.27917,7.27917 4.03344,0 7.27917,-3.24573 7.27917,-7.27917 0,-4.03344 -3.24574,-7.27917 -7.27917,-7.27917 z"
       id="path9713"
       style="font-size:medium;font-style:normal;font-variant:normal;font-weight:normal;font-stretch:normal;text-indent:0;text-align:start;text-decoration:none;line-height:normal;letter-spacing:normal;word-spacing:normal;text-transform:none;direction:ltr;block-progression:tb;writing-mode:lr-tb;text-anchor:start;baseline-shift:baseline;color:#000000;fill:#ffffff;fill-opacity:1;stroke:#ffffff;stroke-width:2;marker:none;visibility:visible;display:inline;overflow:visible;enable-background:accumulate;font-family:Sans;-inkscape-font-specification:Sans" />
    <path
       d="m 63.887463,331.5807 -27.56818,34.27611"
       id="path9715"
       style="fill:#ffffff;stroke:#ffffff;stroke-width:2.87107372;stroke-linecap:round;stroke-linejoin:round;stroke-opacity:1" />
    <path
       d="m 30.432043,383.5317 0,63.78723"
       id="path9717"
       style="fill:#ffffff;stroke:#ffffff;stroke-width:2;stroke-linecap:round;stroke-linejoin:round;stroke-opacity:1" />
    <path
       d="m 38.791013,474.10943 c 0.0724,0.38943 0.18823,0.85444 0.74856,1.29007 0.41406,0.32191 0.98649,0.55835 1.52895,0.55743 0.64498,-10e-4 1.31227,-0.25546 1.81564,-0.66892 0.49934,-0.41018 0.55744,-1.16265 0.55744,-1.16265 0,0 -0.0691,-9.16348 -0.15926,-13.58293 -0.008,-0.39123 -0.35303,-0.70669 -0.60521,-1.00591 -0.52848,-0.62702 -1.07195,-0.97041 -1.86275,-1.60692 -0.79081,-0.63652 -1.55529,-1.06654 -1.95966,-1.51471 -0.80095,-0.88769 -1.01931,-2.03862 -1.01931,-2.03862 l -0.0637,-7.03959 -12.80505,-0.0956 0,6.6255 -5.6062,6.88033 -0.50965,1.27414 0,21.91512 0.76448,1.01931 1.78379,0.25482 1.52895,10e-6 m 15.86298,-18.92087 0,24.84563 m -5.28766,-24.87242 0,24.42647 c 0,0 0.21513,0.8497 0.50966,1.14672 0.36134,0.36439 0.89999,0.52843 1.40154,0.63707 0.45659,0.0989 0.9404,0.0748 1.40155,0 0.33143,-0.0538 0.6839,-0.12126 0.9556,-0.31854 0.49146,-0.35685 1.08302,-1.46525 1.08302,-1.46525 m -10.19308,-24.42607 0,26.71952 c 0,0 0.21513,0.8497 0.50966,1.14672 0.36134,0.36439 0.89999,0.52843 1.40154,0.63707 0.45659,0.0989 0.9404,0.0748 1.40155,0 0.26514,-0.043 0.53321,-0.11821 0.76448,-0.25483 0.32347,-0.19109 0.58221,-0.48051 0.82819,-0.76448 0.26996,-0.31166 0.70077,-1.01931 0.70077,-1.01931 m -10.57532,-26.46509 0,23.91682 c 0,0 0.21513,0.8497 0.50966,1.14672 0.36134,0.36439 0.89999,0.52843 1.40154,0.63707 0.45659,0.0989 0.9404,0.0748 1.40155,0 0.26514,-0.043 0.50658,-0.17973 0.76448,-0.25483 0.25219,-0.0734 0.76448,-0.19112 0.76448,-0.19112"
       id="path9719"
       style="fill:none;stroke:#ffffff;stroke-width:2;stroke-linecap:round;stroke-linejoin:round;stroke-opacity:1" />
  </g>
</svg>
