<?xml version="1.0" encoding="UTF-8" standalone="no"?>
<!-- Created with Inkscape (http://www.inkscape.org/) -->

<svg
   xmlns:dc="http://purl.org/dc/elements/1.1/"
   xmlns:cc="http://creativecommons.org/ns#"
   xmlns:rdf="http://www.w3.org/1999/02/22-rdf-syntax-ns#"
   xmlns:svg="http://www.w3.org/2000/svg"
   xmlns="http://www.w3.org/2000/svg"
   version="1.1"
   width="250"
   height="500"
   id="svg8552">
  <defs
     id="defs8554" />
  <metadata
     id="metadata8557">
    <rdf:RDF>
      <cc:Work
         rdf:about="">
        <dc:format>image/svg+xml</dc:format>
        <dc:type
           rdf:resource="http://purl.org/dc/dcmitype/StillImage" />
        <dc:title></dc:title>
        <cc:license
           rdf:resource="http://creativecommons.org/licenses/publicdomain/" />
      </cc:Work>
      <cc:License
         rdf:about="http://creativecommons.org/licenses/publicdomain/">
        <cc:permits
           rdf:resource="http://creativecommons.org/ns#Reproduction" />
        <cc:permits
           rdf:resource="http://creativecommons.org/ns#Distribution" />
        <cc:permits
           rdf:resource="http://creativecommons.org/ns#DerivativeWorks" />
      </cc:License>
    </rdf:RDF>
  </metadata>
  <g
     transform="translate(0,-213.99972)"
     id="layer2"
     style="display:none">
    <path
       d="M 137.13138,322.35456 z"
       id="path9195"
       style="fill:#ffffff;stroke:#ffffff;stroke-width:1px;stroke-linecap:round;stroke-linejoin:round;stroke-opacity:1" />
    <path
       d="m 128.65334,238.11515 c -16.48521,0 -29.875004,13.3898 -29.875004,29.875 0,16.22227 12.971174,29.42593 29.093754,29.84375 l 0,7.65625 0.59375,0 -43.906254,7.25 -0.15625,0 -0.125,0.0937 c 0,0 -2.946962,1.50236 -4.4375,2.21875 -0.134424,0.0646 -0.308081,0.0752 -0.40625,0.1875 -0.09326,0.10666 -0.08377,0.2707 -0.125,0.40625 -0.515915,1.69625 -1.53125,5.09375 -1.53125,5.09375 l -0.0625,0.1875 0,0.21875 14.875,140.25 0.0937,0.875 0.90625,0 67.906254,0 0.875,0 0.125,-0.875 15.53125,-139.125 0,-0.1875 -0.0312,-0.1875 -0.1875,-0.6875 c -0.002,-0.0204 0.002,-0.0421 0,-0.0625 -0.10586,-0.97434 -0.36509,-1.88918 -0.75,-2.75 l -0.40625,-1.59375 -0.0625,-0.3125 -0.25,-0.21875 -3.09375,-2.65625 -0.21875,-0.15625 -0.25,-0.0625 -42.90625,-7.90625 0,-7.65625 c 15.91885,-0.64346 28.65625,-13.76861 28.65625,-29.84375 0,-16.4852 -13.3898,-29.875 -29.875,-29.875 z m 0,2 c 15.40432,0 27.875,12.47068 27.875,27.875 0,15.40433 -12.47068,27.875 -27.875,27.875 -15.40433,0 -27.875,-12.47067 -27.875,-27.875 0,-15.40432 12.47067,-27.875 27.875,-27.875 z m 5.4375,68.1875 30.3125,5.59375 c -3.00521,1.53764 -5.09375,4.65031 -5.09375,8.25 0,5.11432 4.16694,9.28125 9.28125,9.28125 2.6293,0 4.99715,-1.11048 6.6875,-2.875 l -14.6875,131.71875 -27.6875,0 c 2.89208,-1.57354 4.875,-4.64016 4.875,-8.15625 0,-5.11431 -4.16693,-9.28125 -9.28125,-9.28125 -5.11431,0 -9.28125,4.16694 -9.28125,9.28125 0,3.5161 1.98292,6.58271 4.875,8.15625 l -29.593754,0 -13.96875,-131.875 c 1.698211,1.85908 4.134741,3.03125 6.84375,3.03125 5.11431,0 9.28125,-4.16693 9.28125,-9.28125 0,-3.7718 -2.25938,-7.01973 -5.5,-8.46875 l 32.343754,-5.34375 c -2.39631,1.67979 -3.96875,4.45319 -3.96875,7.59375 0,5.11432 4.16693,9.28125 9.28125,9.28125 5.11431,0 9.28125,-4.16693 9.28125,-9.28125 0,-3.1562 -1.58352,-5.9479 -4,-7.625 z m -5.28125,0.34375 c 4.03344,0 7.28125,3.24781 7.28125,7.28125 0,4.03344 -3.24782,7.28125 -7.28125,7.28125 -4.03344,0 -7.28125,-3.24781 -7.28125,-7.28125 0,-4.03344 3.24782,-7.28125 7.28125,-7.28125 z m -41.437504,6.21875 c 4.03344,0 7.28125,3.24781 7.28125,7.28125 0,4.03344 -3.24781,7.28125 -7.28125,7.28125 -4.033436,0 -7.28125,-3.24781 -7.28125,-7.28125 0,-4.03344 3.247814,-7.28125 7.28125,-7.28125 z m 81.218754,0 c 2.92424,0 5.43428,1.71212 6.59375,4.1875 l 0.65625,2.59375 c 0.0111,0.16529 0.0312,0.33179 0.0312,0.5 0,4.03344 -3.24781,7.28125 -7.28125,7.28125 -4.03343,0 -7.28125,-3.24781 -7.28125,-7.28125 0,-4.03344 3.24782,-7.28125 7.28125,-7.28125 z M 128.49709,444.8339 c 4.03344,0 7.28125,3.24781 7.28125,7.28125 0,4.03344 -3.24782,7.28125 -7.28125,7.28125 -4.03344,0 -7.28125,-3.24781 -7.28125,-7.28125 0,-4.03344 3.24782,-7.28125 7.28125,-7.28125 z"
       id="path9190"
       style="font-size:medium;font-style:normal;font-variant:normal;font-weight:normal;font-stretch:normal;text-indent:0;text-align:start;text-decoration:none;line-height:normal;letter-spacing:normal;word-spacing:normal;text-transform:none;direction:ltr;block-progression:tb;writing-mode:lr-tb;text-anchor:start;baseline-shift:baseline;color:#000000;fill:#ffffff;fill-opacity:1;stroke:#ffffff;stroke-width:2;marker:none;visibility:visible;display:inline;overflow:visible;enable-background:accumulate;font-family:Sans;-inkscape-font-specification:Sans" />
    <path
       d="m 185.23603,315.30759 c -5.11431,0 -9.2786,4.16429 -9.2786,9.2786 0,5.11432 4.16429,9.2786 9.2786,9.2786 5.11432,0 9.27861,-4.16428 9.27861,-9.2786 0,-5.11431 -4.16429,-9.2786 -9.27861,-9.2786 z m 0,1.99943 c 4.03344,0 7.27918,3.24573 7.27918,7.27917 0,4.03344 -3.24574,7.27917 -7.27918,7.27917 -4.03343,0 -7.27917,-3.24573 -7.27917,-7.27917 0,-4.03344 3.24574,-7.27917 7.27917,-7.27917 z"
       id="path9207"
       style="font-size:medium;font-style:normal;font-variant:normal;font-weight:normal;font-stretch:normal;text-indent:0;text-align:start;text-decoration:none;line-height:normal;letter-spacing:normal;word-spacing:normal;text-transform:none;direction:ltr;block-progression:tb;writing-mode:lr-tb;text-anchor:start;baseline-shift:baseline;color:#000000;fill:#ffffff;fill-opacity:1;stroke:#ffffff;stroke-width:2;marker:none;visibility:visible;display:inline;overflow:visible;enable-background:accumulate;font-family:Sans;-inkscape-font-specification:Sans" />
    <path
       d="m 223.71594,364.39424 c -5.11431,0 -9.27861,4.16429 -9.27861,9.2786 0,5.11432 4.16429,9.2786 9.27861,9.2786 5.11431,0 9.27861,-4.16428 9.27861,-9.2786 0,-5.11431 -4.16429,-9.2786 -9.27861,-9.2786 z m 0,1.99943 c 4.03344,0 7.27917,3.24573 7.27917,7.27917 0,4.03344 -3.24574,7.27917 -7.27917,7.27917 -4.03344,0 -7.27917,-3.24573 -7.27917,-7.27917 0,-4.03344 3.24574,-7.27917 7.27917,-7.27917 z"
       id="path9250"
       style="font-size:medium;font-style:normal;font-variant:normal;font-weight:normal;font-stretch:normal;text-indent:0;text-align:start;text-decoration:none;line-height:normal;letter-spacing:normal;word-spacing:normal;text-transform:none;direction:ltr;block-progression:tb;writing-mode:lr-tb;text-anchor:start;baseline-shift:baseline;color:#000000;fill:#ffffff;fill-opacity:1;stroke:#ffffff;stroke-width:2;marker:none;visibility:visible;display:inline;overflow:visible;enable-background:accumulate;font-family:Sans;-inkscape-font-specification:Sans" />
    <path
       d="m 191.42159,331.5807 27.56818,34.27611"
       id="path9260"
       style="fill:#ffffff;stroke:#ffffff;stroke-width:2.87107372;stroke-linecap:round;stroke-linejoin:round;stroke-opacity:1" />
    <path
       d="m 224.87701,383.5317 0,63.78723"
       id="path9262"
       style="fill:#ffffff;stroke:#ffffff;stroke-width:2;stroke-linecap:round;stroke-linejoin:round;stroke-opacity:1" />
    <path
       d="m 216.51804,474.10943 c -0.0724,0.38943 -0.18823,0.85444 -0.74856,1.29007 -0.41406,0.32191 -0.98649,0.55835 -1.52895,0.55743 -0.64498,-10e-4 -1.31227,-0.25546 -1.81564,-0.66892 -0.49934,-0.41018 -0.55744,-1.16265 -0.55744,-1.16265 0,0 0.0691,-9.16348 0.15926,-13.58293 0.008,-0.39123 0.35303,-0.70669 0.60521,-1.00591 0.52848,-0.62702 1.07195,-0.97041 1.86275,-1.60692 0.79081,-0.63652 1.55529,-1.06654 1.95966,-1.51471 0.80095,-0.88769 1.01931,-2.03862 1.01931,-2.03862 l 0.0637,-7.03959 12.80505,-0.0956 0,6.6255 5.6062,6.88033 0.50965,1.27414 0,21.91512 -0.76448,1.01931 -1.78379,0.25482 -1.52895,10e-6 m -15.86298,-18.92087 0,24.84563 m 5.28766,-24.87242 0,24.42647 c 0,0 -0.21513,0.8497 -0.50966,1.14672 -0.36134,0.36439 -0.89999,0.52843 -1.40154,0.63707 -0.45659,0.0989 -0.9404,0.0748 -1.40155,0 -0.33143,-0.0538 -0.6839,-0.12126 -0.9556,-0.31854 -0.49146,-0.35685 -1.08302,-1.46525 -1.08302,-1.46525 m 10.19308,-24.42607 0,26.71952 c 0,0 -0.21513,0.8497 -0.50966,1.14672 -0.36134,0.36439 -0.89999,0.52843 -1.40154,0.63707 -0.45659,0.0989 -0.9404,0.0748 -1.40155,0 -0.26514,-0.043 -0.53321,-0.11821 -0.76448,-0.25483 -0.32347,-0.19109 -0.58221,-0.48051 -0.82819,-0.76448 -0.26996,-0.31166 -0.70077,-1.01931 -0.70077,-1.01931 m 10.57532,-26.46509 0,23.91682 c 0,0 -0.21513,0.8497 -0.50966,1.14672 -0.36134,0.36439 -0.89999,0.52843 -1.40154,0.63707 -0.45659,0.0989 -0.9404,0.0748 -1.40155,0 -0.26514,-0.043 -0.50658,-0.17973 -0.76448,-0.25483 -0.25219,-0.0734 -0.76448,-0.19112 -0.76448,-0.19112"
       id="path9335"
       style="fill:none;stroke:#ffffff;stroke-width:2;stroke-linecap:round;stroke-linejoin:round;stroke-opacity:1" />
    <path
       d="m 128.46584,461.92765 0,4.84375 0,-4.84375 z m -31.156254,6.28125 60.906254,0 -60.906254,0 z m 49.437504,1.1875 0,199.28125 0,-199.28125 z m -39.21875,0.53125 0,199.28125 0,-199.28125 z m 6.09375,0 0,199.28125 0,-199.28125 z m 27.53125,0 0,199.28125 0,-199.28125 z m -60.125004,200.03125 0,8.65625 89.187504,0 0,-8.65625 -89.187504,0 z"
       id="path9342"
       style="fill:none;stroke:#ffffff;stroke-width:3;stroke-linecap:round;stroke-linejoin:round;stroke-opacity:1;display:inline" />
    <path
       d="m 70.073023,315.30759 c 5.11431,0 9.2786,4.16429 9.2786,9.2786 0,5.11432 -4.16429,9.2786 -9.2786,9.2786 -5.11432,0 -9.27861,-4.16428 -9.27861,-9.2786 0,-5.11431 4.16429,-9.2786 9.27861,-9.2786 z m 0,1.99943 c -4.03344,0 -7.27918,3.24573 -7.27918,7.27917 0,4.03344 3.24574,7.27917 7.27918,7.27917 4.03343,0 7.27917,-3.24573 7.27917,-7.27917 0,-4.03344 -3.24574,-7.27917 -7.27917,-7.27917 z"
       id="path9711"
       style="font-size:medium;font-style:normal;font-variant:normal;font-weight:normal;font-stretch:normal;text-indent:0;text-align:start;text-decoration:none;line-height:normal;letter-spacing:normal;word-spacing:normal;text-transform:none;direction:ltr;block-progression:tb;writing-mode:lr-tb;text-anchor:start;baseline-shift:baseline;color:#000000;fill:#ffffff;fill-opacity:1;stroke:#ffffff;stroke-width:2;marker:none;visibility:visible;display:inline;overflow:visible;enable-background:accumulate;font-family:Sans;-inkscape-font-specification:Sans" />
    <path
       d="m 31.593113,364.39424 c 5.11431,0 9.27861,4.16429 9.27861,9.2786 0,5.11432 -4.16429,9.2786 -9.27861,9.2786 -5.11431,0 -9.27861,-4.16428 -9.27861,-9.2786 0,-5.11431 4.16429,-9.2786 9.27861,-9.2786 z m 0,1.99943 c -4.03344,0 -7.27917,3.24573 -7.27917,7.27917 0,4.03344 3.24574,7.27917 7.27917,7.27917 4.03344,0 7.27917,-3.24573 7.27917,-7.27917 0,-4.03344 -3.24574,-7.27917 -7.27917,-7.27917 z"
       id="path9713"
       style="font-size:medium;font-style:normal;font-variant:normal;font-weight:normal;font-stretch:normal;text-indent:0;text-align:start;text-decoration:none;line-height:normal;letter-spacing:normal;word-spacing:normal;text-transform:none;direction:ltr;block-progression:tb;writing-mode:lr-tb;text-anchor:start;baseline-shift:baseline;color:#000000;fill:#ffffff;fill-opacity:1;stroke:#ffffff;stroke-width:2;marker:none;visibility:visible;display:inline;overflow:visible;enable-background:accumulate;font-family:Sans;-inkscape-font-specification:Sans" />
    <path
       d="m 63.887463,331.5807 -27.56818,34.27611"
       id="path9715"
       style="fill:#ffffff;stroke:#ffffff;stroke-width:2.87107372;stroke-linecap:round;stroke-linejoin:round;stroke-opacity:1" />
    <path
       d="m 30.432043,383.5317 0,63.78723"
       id="path9717"
       style="fill:#ffffff;stroke:#ffffff;stroke-width:2;stroke-linecap:round;stroke-linejoin:round;stroke-opacity:1" />
    <path
       d="m 38.791013,474.10943 c 0.0724,0.38943 0.18823,0.85444 0.74856,1.29007 0.41406,0.32191 0.98649,0.55835 1.52895,0.55743 0.64498,-10e-4 1.31227,-0.25546 1.81564,-0.66892 0.49934,-0.41018 0.55744,-1.16265 0.55744,-1.16265 0,0 -0.0691,-9.16348 -0.15926,-13.58293 -0.008,-0.39123 -0.35303,-0.70669 -0.60521,-1.00591 -0.52848,-0.62702 -1.07195,-0.97041 -1.86275,-1.60692 -0.79081,-0.63652 -1.55529,-1.06654 -1.95966,-1.51471 -0.80095,-0.88769 -1.01931,-2.03862 -1.01931,-2.03862 l -0.0637,-7.03959 -12.80505,-0.0956 0,6.6255 -5.6062,6.88033 -0.50965,1.27414 0,21.91512 0.76448,1.01931 1.78379,0.25482 1.52895,10e-6 m 15.86298,-18.92087 0,24.84563 m -5.28766,-24.87242 0,24.42647 c 0,0 0.21513,0.8497 0.50966,1.14672 0.36134,0.36439 0.89999,0.52843 1.40154,0.63707 0.45659,0.0989 0.9404,0.0748 1.40155,0 0.33143,-0.0538 0.6839,-0.12126 0.9556,-0.31854 0.49146,-0.35685 1.08302,-1.46525 1.08302,-1.46525 m -10.19308,-24.42607 0,26.71952 c 0,0 0.21513,0.8497 0.50966,1.14672 0.36134,0.36439 0.89999,0.52843 1.40154,0.63707 0.45659,0.0989 0.9404,0.0748 1.40155,0 0.26514,-0.043 0.53321,-0.11821 0.76448,-0.25483 0.32347,-0.19109 0.58221,-0.48051 0.82819,-0.76448 0.26996,-0.31166 0.70077,-1.01931 0.70077,-1.01931 m -10.57532,-26.46509 0,23.91682 c 0,0 0.21513,0.8497 0.50966,1.14672 0.36134,0.36439 0.89999,0.52843 1.40154,0.63707 0.45659,0.0989 0.9404,0.0748 1.40155,0 0.26514,-0.043 0.50658,-0.17973 0.76448,-0.25483 0.25219,-0.0734 0.76448,-0.19112 0.76448,-0.19112"
       id="path9719"
       style="fill:none;stroke:#ffffff;stroke-width:2;stroke-linecap:round;stroke-linejoin:round;stroke-opacity:1" />
  </g>
  <g
     id="layer5"
     style="display:none">
    <path
       d="M 137.13138,322.35456 z"
       transform="translate(0,-213.99972)"
       id="path9836"
       style="fill:#ffffff;stroke:#ffffff;stroke-width:1px;stroke-linecap:round;stroke-linejoin:round;stroke-opacity:1;display:inline" />
    <path
       d="m 128.65334,238.11515 c -16.48521,0 -29.875004,13.3898 -29.875004,29.875 0,16.22227 12.971174,29.42593 29.093754,29.84375 l 0,7.65625 0.59375,0 -43.906254,7.25 -0.15625,0 -0.125,0.0937 c 0,0 -2.946962,1.50236 -4.4375,2.21875 -0.134424,0.0646 -0.308081,0.0752 -0.40625,0.1875 -0.09326,0.10666 -0.08377,0.2707 -0.125,0.40625 -0.515915,1.69625 -1.53125,5.09375 -1.53125,5.09375 l -0.0625,0.1875 0,0.21875 14.875,140.25 0.0937,0.875 0.90625,0 67.906254,0 0.875,0 0.125,-0.875 15.53125,-139.125 0,-0.1875 -0.0312,-0.1875 -0.1875,-0.6875 c -0.002,-0.0204 0.002,-0.0421 0,-0.0625 -0.10586,-0.97434 -0.36509,-1.88918 -0.75,-2.75 l -0.40625,-1.59375 -0.0625,-0.3125 -0.25,-0.21875 -3.09375,-2.65625 -0.21875,-0.15625 -0.25,-0.0625 -42.90625,-7.90625 0,-7.65625 c 15.91885,-0.64346 28.65625,-13.76861 28.65625,-29.84375 0,-16.4852 -13.3898,-29.875 -29.875,-29.875 z m 0,2 c 15.40432,0 27.875,12.47068 27.875,27.875 0,15.40433 -12.47068,27.875 -27.875,27.875 -15.40433,0 -27.875,-12.47067 -27.875,-27.875 0,-15.40432 12.47067,-27.875 27.875,-27.875 z m 5.4375,68.1875 30.3125,5.59375 c -3.00521,1.53764 -5.09375,4.65031 -5.09375,8.25 0,5.11432 4.16694,9.28125 9.28125,9.28125 2.6293,0 4.99715,-1.11048 6.6875,-2.875 l -14.6875,131.71875 -27.6875,0 c 2.89208,-1.57354 4.875,-4.64016 4.875,-8.15625 0,-5.11431 -4.16693,-9.28125 -9.28125,-9.28125 -5.11431,0 -9.28125,4.16694 -9.28125,9.28125 0,3.5161 1.98292,6.58271 4.875,8.15625 l -29.593754,0 -13.96875,-131.875 c 1.698211,1.85908 4.134741,3.03125 6.84375,3.03125 5.11431,0 9.28125,-4.16693 9.28125,-9.28125 0,-3.7718 -2.25938,-7.01973 -5.5,-8.46875 l 32.343754,-5.34375 c -2.39631,1.67979 -3.96875,4.45319 -3.96875,7.59375 0,5.11432 4.16693,9.28125 9.28125,9.28125 5.11431,0 9.28125,-4.16693 9.28125,-9.28125 0,-3.1562 -1.58352,-5.9479 -4,-7.625 z m -5.28125,0.34375 c 4.03344,0 7.28125,3.24781 7.28125,7.28125 0,4.03344 -3.24782,7.28125 -7.28125,7.28125 -4.03344,0 -7.28125,-3.24781 -7.28125,-7.28125 0,-4.03344 3.24782,-7.28125 7.28125,-7.28125 z m -41.437504,6.21875 c 4.03344,0 7.28125,3.24781 7.28125,7.28125 0,4.03344 -3.24781,7.28125 -7.28125,7.28125 -4.033436,0 -7.28125,-3.24781 -7.28125,-7.28125 0,-4.03344 3.247814,-7.28125 7.28125,-7.28125 z m 81.218754,0 c 2.92424,0 5.43428,1.71212 6.59375,4.1875 l 0.65625,2.59375 c 0.0111,0.16529 0.0312,0.33179 0.0312,0.5 0,4.03344 -3.24781,7.28125 -7.28125,7.28125 -4.03343,0 -7.28125,-3.24781 -7.28125,-7.28125 0,-4.03344 3.24782,-7.28125 7.28125,-7.28125 z M 128.49709,444.8339 c 4.03344,0 7.28125,3.24781 7.28125,7.28125 0,4.03344 -3.24782,7.28125 -7.28125,7.28125 -4.03344,0 -7.28125,-3.24781 -7.28125,-7.28125 0,-4.03344 3.24782,-7.28125 7.28125,-7.28125 z"
       transform="translate(0,-213.99972)"
       id="path9838"
       style="font-size:medium;font-style:normal;font-variant:normal;font-weight:normal;font-stretch:normal;text-indent:0;text-align:start;text-decoration:none;line-height:normal;letter-spacing:normal;word-spacing:normal;text-transform:none;direction:ltr;block-progression:tb;writing-mode:lr-tb;text-anchor:start;baseline-shift:baseline;color:#000000;fill:#ffffff;fill-opacity:1;stroke:#ffffff;stroke-width:2;marker:none;visibility:visible;display:inline;overflow:visible;enable-background:accumulate;font-family:Sans;-inkscape-font-specification:Sans" />
    <path
       d="m 185.23603,315.30759 c -5.11431,0 -9.2786,4.16429 -9.2786,9.2786 0,5.11432 4.16429,9.2786 9.2786,9.2786 5.11432,0 9.27861,-4.16428 9.27861,-9.2786 0,-5.11431 -4.16429,-9.2786 -9.27861,-9.2786 z m 0,1.99943 c 4.03344,0 7.27918,3.24573 7.27918,7.27917 0,4.03344 -3.24574,7.27917 -7.27918,7.27917 -4.03343,0 -7.27917,-3.24573 -7.27917,-7.27917 0,-4.03344 3.24574,-7.27917 7.27917,-7.27917 z"
       transform="translate(0,-213.99972)"
       id="path9840"
       style="font-size:medium;font-style:normal;font-variant:normal;font-weight:normal;font-stretch:normal;text-indent:0;text-align:start;text-decoration:none;line-height:normal;letter-spacing:normal;word-spacing:normal;text-transform:none;direction:ltr;block-progression:tb;writing-mode:lr-tb;text-anchor:start;baseline-shift:baseline;color:#000000;fill:#ffffff;fill-opacity:1;stroke:#ffffff;stroke-width:2;marker:none;visibility:visible;display:inline;overflow:visible;enable-background:accumulate;font-family:Sans;-inkscape-font-specification:Sans" />
    <path
       d="m 237.05,93.454512 c -5.11431,0 -9.27861,4.16429 -9.27861,9.278598 0,5.11432 4.16429,9.2786 9.27861,9.2786 5.11431,0 9.27861,-4.16428 9.27861,-9.2786 0,-5.114308 -4.16429,-9.278598 -9.27861,-9.278598 z m 0,1.99943 c 4.03344,0 7.27917,3.24573 7.27917,7.279168 0,4.03344 -3.24574,7.27917 -7.27917,7.27917 -4.03344,0 -7.27917,-3.24573 -7.27917,-7.27917 0,-4.033438 3.24574,-7.279168 7.27917,-7.279168 z"
       id="path9842"
       style="font-size:medium;font-style:normal;font-variant:normal;font-weight:normal;font-stretch:normal;text-indent:0;text-align:start;text-decoration:none;line-height:normal;letter-spacing:normal;word-spacing:normal;text-transform:none;direction:ltr;block-progression:tb;writing-mode:lr-tb;text-anchor:start;baseline-shift:baseline;color:#000000;fill:#ffffff;fill-opacity:1;stroke:#ffffff;stroke-width:2;marker:none;visibility:visible;display:inline;overflow:visible;enable-background:accumulate;font-family:Sans;-inkscape-font-specification:Sans" />
    <path
       d="m 226.51998,104.40938 -31.81725,5.84156"
       id="path9844"
       style="fill:#ffffff;stroke:#ffffff;stroke-width:2.87107372;stroke-linecap:round;stroke-linejoin:round;stroke-opacity:1;display:inline" />
    <path
       d="m 236.04878,113.67311 0,63.78723"
       id="path9846"
       style="fill:#ffffff;stroke:#ffffff;stroke-width:2;stroke-linecap:round;stroke-linejoin:round;stroke-opacity:1;display:inline" />
    <path
       d="m 226.96905,205.69236 c -0.0724,0.38943 -0.18823,0.85444 -0.74856,1.29007 -0.41406,0.32191 -0.98649,0.55835 -1.52895,0.55743 -0.64498,-0.001 -1.31227,-0.25546 -1.81564,-0.66892 -0.49934,-0.41018 -0.55744,-1.16265 -0.55744,-1.16265 0,0 0.0691,-9.16348 0.15926,-13.58293 0.008,-0.39123 0.35303,-0.70669 0.60521,-1.00591 0.52848,-0.62702 1.07195,-0.97041 1.86275,-1.60692 0.79081,-0.63652 1.55529,-1.06654 1.95966,-1.51471 0.80095,-0.88769 1.01931,-2.03862 1.01931,-2.03862 l 0.0637,-7.03959 12.80505,-0.0956 0,6.6255 5.6062,6.88033 0.50965,1.27414 0,21.91512 -0.76448,1.01931 -1.78379,0.25482 -1.52895,1e-5 m -15.86298,-18.92087 0,24.84563 m 5.28766,-24.87242 0,24.42647 c 0,0 -0.21513,0.8497 -0.50966,1.14672 -0.36134,0.36439 -0.89999,0.52843 -1.40154,0.63707 -0.45659,0.0989 -0.9404,0.0748 -1.40155,0 -0.33143,-0.0538 -0.6839,-0.12126 -0.9556,-0.31854 -0.49146,-0.35685 -1.08302,-1.46525 -1.08302,-1.46525 m 10.19308,-24.42607 0,26.71952 c 0,0 -0.21513,0.8497 -0.50966,1.14672 -0.36134,0.36439 -0.89999,0.52843 -1.40154,0.63707 -0.45659,0.0989 -0.9404,0.0748 -1.40155,0 -0.26514,-0.043 -0.53321,-0.11821 -0.76448,-0.25483 -0.32347,-0.19109 -0.58221,-0.48051 -0.82819,-0.76448 -0.26996,-0.31166 -0.70077,-1.01931 -0.70077,-1.01931 m 10.57532,-26.46509 0,23.91682 c 0,0 -0.21513,0.8497 -0.50966,1.14672 -0.36134,0.36439 -0.89999,0.52843 -1.40154,0.63707 -0.45659,0.0989 -0.9404,0.0748 -1.40155,0 -0.26514,-0.043 -0.50658,-0.17973 -0.76448,-0.25483 -0.25219,-0.0734 -0.76448,-0.19112 -0.76448,-0.19112"
       id="path9848"
       style="fill:none;stroke:#ffffff;stroke-width:2;stroke-linecap:round;stroke-linejoin:round;stroke-opacity:1;display:inline" />
    <path
       d="m 128.46584,461.92765 0,4.84375 0,-4.84375 z m -31.156254,6.28125 60.906254,0 -60.906254,0 z m 49.437504,1.1875 0,199.28125 0,-199.28125 z m -39.21875,0.53125 0,199.28125 0,-199.28125 z m 6.09375,0 0,199.28125 0,-199.28125 z m 27.53125,0 0,199.28125 0,-199.28125 z m -60.125004,200.03125 0,8.65625 89.187504,0 0,-8.65625 -89.187504,0 z"
       transform="translate(0,-213.99972)"
       id="path9850"
       style="fill:none;stroke:#ffffff;stroke-width:3;stroke-linecap:round;stroke-linejoin:round;stroke-opacity:1;display:inline" />
    <path
       d="m 70.073023,315.30759 c 5.11431,0 9.2786,4.16429 9.2786,9.2786 0,5.11432 -4.16429,9.2786 -9.2786,9.2786 -5.11432,0 -9.27861,-4.16428 -9.27861,-9.2786 0,-5.11431 4.16429,-9.2786 9.27861,-9.2786 z m 0,1.99943 c -4.03344,0 -7.27918,3.24573 -7.27918,7.27917 0,4.03344 3.24574,7.27917 7.27918,7.27917 4.03343,0 7.27917,-3.24573 7.27917,-7.27917 0,-4.03344 -3.24574,-7.27917 -7.27917,-7.27917 z"
       transform="translate(0,-213.99972)"
       id="path9852"
       style="font-size:medium;font-style:normal;font-variant:normal;font-weight:normal;font-stretch:normal;text-indent:0;text-align:start;text-decoration:none;line-height:normal;letter-spacing:normal;word-spacing:normal;text-transform:none;direction:ltr;block-progression:tb;writing-mode:lr-tb;text-anchor:start;baseline-shift:baseline;color:#000000;fill:#ffffff;fill-opacity:1;stroke:#ffffff;stroke-width:2;marker:none;visibility:visible;display:inline;overflow:visible;enable-background:accumulate;font-family:Sans;-inkscape-font-specification:Sans" />
    <path
       d="m 31.593113,364.39424 c 5.11431,0 9.27861,4.16429 9.27861,9.2786 0,5.11432 -4.16429,9.2786 -9.27861,9.2786 -5.11431,0 -9.27861,-4.16428 -9.27861,-9.2786 0,-5.11431 4.16429,-9.2786 9.27861,-9.2786 z m 0,1.99943 c -4.03344,0 -7.27917,3.24573 -7.27917,7.27917 0,4.03344 3.24574,7.27917 7.27917,7.27917 4.03344,0 7.27917,-3.24573 7.27917,-7.27917 0,-4.03344 -3.24574,-7.27917 -7.27917,-7.27917 z"
       transform="translate(0,-213.99972)"
       id="path9854"
       style="font-size:medium;font-style:normal;font-variant:normal;font-weight:normal;font-stretch:normal;text-indent:0;text-align:start;text-decoration:none;line-height:normal;letter-spacing:normal;word-spacing:normal;text-transform:none;direction:ltr;block-progression:tb;writing-mode:lr-tb;text-anchor:start;baseline-shift:baseline;color:#000000;fill:#ffffff;fill-opacity:1;stroke:#ffffff;stroke-width:2;marker:none;visibility:visible;display:inline;overflow:visible;enable-background:accumulate;font-family:Sans;-inkscape-font-specification:Sans" />
    <path
       d="m 63.887463,331.5807 -27.56818,34.27611"
       transform="translate(0,-213.99972)"
       id="path9856"
       style="fill:#ffffff;stroke:#ffffff;stroke-width:2.87107372;stroke-linecap:round;stroke-linejoin:round;stroke-opacity:1;display:inline" />
    <path
       d="m 30.432043,383.5317 0,63.78723"
       transform="translate(0,-213.99972)"
       id="path9858"
       style="fill:#ffffff;stroke:#ffffff;stroke-width:2;stroke-linecap:round;stroke-linejoin:round;stroke-opacity:1;display:inline" />
    <path
       d="m 38.791013,474.10943 c 0.0724,0.38943 0.18823,0.85444 0.74856,1.29007 0.41406,0.32191 0.98649,0.55835 1.52895,0.55743 0.64498,-10e-4 1.31227,-0.25546 1.81564,-0.66892 0.49934,-0.41018 0.55744,-1.16265 0.55744,-1.16265 0,0 -0.0691,-9.16348 -0.15926,-13.58293 -0.008,-0.39123 -0.35303,-0.70669 -0.60521,-1.00591 -0.52848,-0.62702 -1.07195,-0.97041 -1.86275,-1.60692 -0.79081,-0.63652 -1.55529,-1.06654 -1.95966,-1.51471 -0.80095,-0.88769 -1.01931,-2.03862 -1.01931,-2.03862 l -0.0637,-7.03959 -12.80505,-0.0956 0,6.6255 -5.6062,6.88033 -0.50965,1.27414 0,21.91512 0.76448,1.01931 1.78379,0.25482 1.52895,10e-6 m 15.86298,-18.92087 0,24.84563 m -5.28766,-24.87242 0,24.42647 c 0,0 0.21513,0.8497 0.50966,1.14672 0.36134,0.36439 0.89999,0.52843 1.40154,0.63707 0.45659,0.0989 0.9404,0.0748 1.40155,0 0.33143,-0.0538 0.6839,-0.12126 0.9556,-0.31854 0.49146,-0.35685 1.08302,-1.46525 1.08302,-1.46525 m -10.19308,-24.42607 0,26.71952 c 0,0 0.21513,0.8497 0.50966,1.14672 0.36134,0.36439 0.89999,0.52843 1.40154,0.63707 0.45659,0.0989 0.9404,0.0748 1.40155,0 0.26514,-0.043 0.53321,-0.11821 0.76448,-0.25483 0.32347,-0.19109 0.58221,-0.48051 0.82819,-0.76448 0.26996,-0.31166 0.70077,-1.01931 0.70077,-1.01931 m -10.57532,-26.46509 0,23.91682 c 0,0 0.21513,0.8497 0.50966,1.14672 0.36134,0.36439 0.89999,0.52843 1.40154,0.63707 0.45659,0.0989 0.9404,0.0748 1.40155,0 0.26514,-0.043 0.50658,-0.17973 0.76448,-0.25483 0.25219,-0.0734 0.76448,-0.19112 0.76448,-0.19112"
       transform="translate(0,-213.99972)"
       id="path9860"
       style="fill:none;stroke:#ffffff;stroke-width:2;stroke-linecap:round;stroke-linejoin:round;stroke-opacity:1;display:inline" />
  </g>
  <g
     id="layer6"
     style="display:inline">
    <path
       d="M 137.13138,322.35456 z"
       transform="translate(0,-213.99972)"
       id="path9895"
       style="fill:#ffffff;stroke:#ffffff;stroke-width:1px;stroke-linecap:round;stroke-linejoin:round;stroke-opacity:1;display:inline" />
    <path
       d="m 128.65334,238.11515 c -16.48521,0 -29.875004,13.3898 -29.875004,29.875 0,16.22227 12.971174,29.42593 29.093754,29.84375 l 0,7.65625 0.59375,0 -43.906254,7.25 -0.15625,0 -0.125,0.0937 c 0,0 -2.946962,1.50236 -4.4375,2.21875 -0.134424,0.0646 -0.308081,0.0752 -0.40625,0.1875 -0.09326,0.10666 -0.08377,0.2707 -0.125,0.40625 -0.515915,1.69625 -1.53125,5.09375 -1.53125,5.09375 l -0.0625,0.1875 0,0.21875 14.875,140.25 0.0937,0.875 0.90625,0 67.906254,0 0.875,0 0.125,-0.875 15.53125,-139.125 0,-0.1875 -0.0312,-0.1875 -0.1875,-0.6875 c -0.002,-0.0204 0.002,-0.0421 0,-0.0625 -0.10586,-0.97434 -0.36509,-1.88918 -0.75,-2.75 l -0.40625,-1.59375 -0.0625,-0.3125 -0.25,-0.21875 -3.09375,-2.65625 -0.21875,-0.15625 -0.25,-0.0625 -42.90625,-7.90625 0,-7.65625 c 15.91885,-0.64346 28.65625,-13.76861 28.65625,-29.84375 0,-16.4852 -13.3898,-29.875 -29.875,-29.875 z m 0,2 c 15.40432,0 27.875,12.47068 27.875,27.875 0,15.40433 -12.47068,27.875 -27.875,27.875 -15.40433,0 -27.875,-12.47067 -27.875,-27.875 0,-15.40432 12.47067,-27.875 27.875,-27.875 z m 5.4375,68.1875 30.3125,5.59375 c -3.00521,1.53764 -5.09375,4.65031 -5.09375,8.25 0,5.11432 4.16694,9.28125 9.28125,9.28125 2.6293,0 4.99715,-1.11048 6.6875,-2.875 l -14.6875,131.71875 -27.6875,0 c 2.89208,-1.57354 4.875,-4.64016 4.875,-8.15625 0,-5.11431 -4.16693,-9.28125 -9.28125,-9.28125 -5.11431,0 -9.28125,4.16694 -9.28125,9.28125 0,3.5161 1.98292,6.58271 4.875,8.15625 l -29.593754,0 -13.96875,-131.875 c 1.698211,1.85908 4.134741,3.03125 6.84375,3.03125 5.11431,0 9.28125,-4.16693 9.28125,-9.28125 0,-3.7718 -2.25938,-7.01973 -5.5,-8.46875 l 32.343754,-5.34375 c -2.39631,1.67979 -3.96875,4.45319 -3.96875,7.59375 0,5.11432 4.16693,9.28125 9.28125,9.28125 5.11431,0 9.28125,-4.16693 9.28125,-9.28125 0,-3.1562 -1.58352,-5.9479 -4,-7.625 z m -5.28125,0.34375 c 4.03344,0 7.28125,3.24781 7.28125,7.28125 0,4.03344 -3.24782,7.28125 -7.28125,7.28125 -4.03344,0 -7.28125,-3.24781 -7.28125,-7.28125 0,-4.03344 3.24782,-7.28125 7.28125,-7.28125 z m -41.437504,6.21875 c 4.03344,0 7.28125,3.24781 7.28125,7.28125 0,4.03344 -3.24781,7.28125 -7.28125,7.28125 -4.033436,0 -7.28125,-3.24781 -7.28125,-7.28125 0,-4.03344 3.247814,-7.28125 7.28125,-7.28125 z m 81.218754,0 c 2.92424,0 5.43428,1.71212 6.59375,4.1875 l 0.65625,2.59375 c 0.0111,0.16529 0.0312,0.33179 0.0312,0.5 0,4.03344 -3.24781,7.28125 -7.28125,7.28125 -4.03343,0 -7.28125,-3.24781 -7.28125,-7.28125 0,-4.03344 3.24782,-7.28125 7.28125,-7.28125 z M 128.49709,444.8339 c 4.03344,0 7.28125,3.24781 7.28125,7.28125 0,4.03344 -3.24782,7.28125 -7.28125,7.28125 -4.03344,0 -7.28125,-3.24781 -7.28125,-7.28125 0,-4.03344 3.24782,-7.28125 7.28125,-7.28125 z"
       transform="translate(0,-213.99972)"
       id="path9897"
       style="font-size:medium;font-style:normal;font-variant:normal;font-weight:normal;font-stretch:normal;text-indent:0;text-align:start;text-decoration:none;line-height:normal;letter-spacing:normal;word-spacing:normal;text-transform:none;direction:ltr;block-progression:tb;writing-mode:lr-tb;text-anchor:start;baseline-shift:baseline;color:#000000;fill:#ffffff;fill-opacity:1;stroke:#ffffff;stroke-width:2;marker:none;visibility:visible;display:inline;overflow:visible;enable-background:accumulate;font-family:Sans;-inkscape-font-specification:Sans" />
    <path
       d="m 185.23603,315.30759 c -5.11431,0 -9.2786,4.16429 -9.2786,9.2786 0,5.11432 4.16429,9.2786 9.2786,9.2786 5.11432,0 9.27861,-4.16428 9.27861,-9.2786 0,-5.11431 -4.16429,-9.2786 -9.27861,-9.2786 z m 0,1.99943 c 4.03344,0 7.27918,3.24573 7.27918,7.27917 0,4.03344 -3.24574,7.27917 -7.27918,7.27917 -4.03343,0 -7.27917,-3.24573 -7.27917,-7.27917 0,-4.03344 3.24574,-7.27917 7.27917,-7.27917 z"
       transform="translate(0,-213.99972)"
       id="path9899"
       style="font-size:medium;font-style:normal;font-variant:normal;font-weight:normal;font-stretch:normal;text-indent:0;text-align:start;text-decoration:none;line-height:normal;letter-spacing:normal;word-spacing:normal;text-transform:none;direction:ltr;block-progression:tb;writing-mode:lr-tb;text-anchor:start;baseline-shift:baseline;color:#000000;fill:#ffffff;fill-opacity:1;stroke:#ffffff;stroke-width:2;marker:none;visibility:visible;display:inline;overflow:visible;enable-background:accumulate;font-family:Sans;-inkscape-font-specification:Sans" />
    <path
       d="m 237.05,93.454512 c -5.11431,0 -9.27861,4.16429 -9.27861,9.278598 0,5.11432 4.16429,9.2786 9.27861,9.2786 5.11431,0 9.27861,-4.16428 9.27861,-9.2786 0,-5.114308 -4.16429,-9.278598 -9.27861,-9.278598 z m 0,1.99943 c 4.03344,0 7.27917,3.24573 7.27917,7.279168 0,4.03344 -3.24574,7.27917 -7.27917,7.27917 -4.03344,0 -7.27917,-3.24573 -7.27917,-7.27917 0,-4.033438 3.24574,-7.279168 7.27917,-7.279168 z"
       id="path9901"
       style="font-size:medium;font-style:normal;font-variant:normal;font-weight:normal;font-stretch:normal;text-indent:0;text-align:start;text-decoration:none;line-height:normal;letter-spacing:normal;word-spacing:normal;text-transform:none;direction:ltr;block-progression:tb;writing-mode:lr-tb;text-anchor:start;baseline-shift:baseline;color:#000000;fill:#ffffff;fill-opacity:1;stroke:#ffffff;stroke-width:2;marker:none;visibility:visible;display:inline;overflow:visible;enable-background:accumulate;font-family:Sans;-inkscape-font-specification:Sans" />
    <path
       d="m 226.51998,104.40938 -31.81725,5.84156"
       id="path9903"
       style="fill:#ffffff;stroke:#ffffff;stroke-width:2.87107372;stroke-linecap:round;stroke-linejoin:round;stroke-opacity:1;display:inline" />
    <path
       d="m 233.9961,111.40949 -27.60807,57.50307"
       style="fill:#ffffff;stroke:#ffffff;stroke-width:2;stroke-linecap:round;stroke-linejoin:round;stroke-opacity:1;display:inline" />
    <path
       d="m 184.49679,187.99312 c -0.25742,0.30107 -0.59025,0.64583 -1.29331,0.74295 -0.51954,0.0717 -1.13351,-0.01 -1.60281,-0.28173 -0.55809,-0.32335 -1.00875,-0.87735 -1.23794,-1.48712 -0.2274,-0.60489 0.0986,-1.2856 0.0986,-1.2856 0,0 4.64158,-7.90126 6.92939,-11.68353 0.20254,-0.33482 0.65907,-0.43551 1.02708,-0.56855 0.77119,-0.2788 1.41355,-0.30442 2.41665,-0.46028 1.00312,-0.15582 1.8802,-0.14597 2.45447,-0.33193 1.13749,-0.36825 1.90206,-1.25582 1.90206,-1.25582 l 3.57496,-6.06463 11.1373,6.31973 -3.31273,5.73786 1.41492,8.76163 -0.19569,1.35826 -10.95756,18.97905 -1.17172,0.50052 -1.67222,-0.67121 -1.32411,-0.76446 m -4.27731,-24.31745 -12.42281,21.51695 m 17.01546,-18.89632 -12.21325,21.15393 c 0,0 -0.61117,0.62829 -1.01473,0.73826 -0.49517,0.13475 -1.04362,0.008 -1.5323,-0.14904 -0.44487,-0.1426 -0.85181,-0.40542 -1.21379,-0.70078 -0.26012,-0.2123 -0.53165,-0.44695 -0.66825,-0.7537 -0.24721,-0.55478 -0.20531,-1.81044 -0.20531,-1.81044 m 21.0405,-16.05705 -13.35976,23.13978 c 0,0 -0.61117,0.62828 -1.01474,0.73826 -0.49517,0.13475 -1.04363,0.008 -1.5323,-0.14908 -0.44493,-0.14251 -0.85181,-0.40541 -1.21378,-0.70078 -0.20812,-0.1698 -0.40265,-0.36897 -0.53464,-0.60291 -0.18458,-0.32723 -0.26394,-0.70727 -0.33494,-1.07616 -0.078,-0.40489 -0.0972,-1.23314 -0.0972,-1.23314 m 22.39104,-17.63179 -11.95841,20.71258 c 0,0 -0.61119,0.62828 -1.01474,0.73826 -0.49517,0.13475 -1.04363,0.008 -1.53231,-0.14907 -0.44486,-0.1426 -0.8518,-0.4054 -1.21377,-0.70075 -0.20812,-0.16982 -0.34885,-0.40897 -0.53463,-0.60295 -0.18142,-0.18996 -0.56646,-0.54781 -0.56646,-0.54781"
       id="path9907"
       style="fill:none;stroke:#ffffff;stroke-width:2;stroke-linecap:round;stroke-linejoin:round;stroke-opacity:1;display:inline" />
    <path
       d="m 128.46584,461.92765 0,4.84375 0,-4.84375 z m -31.156254,6.28125 60.906254,0 -60.906254,0 z m 49.437504,1.1875 0,199.28125 0,-199.28125 z m -39.21875,0.53125 0,199.28125 0,-199.28125 z m 6.09375,0 0,199.28125 0,-199.28125 z m 27.53125,0 0,199.28125 0,-199.28125 z m -60.125004,200.03125 0,8.65625 89.187504,0 0,-8.65625 -89.187504,0 z"
       transform="translate(0,-213.99972)"
       id="path9909"
       style="fill:none;stroke:#ffffff;stroke-width:3;stroke-linecap:round;stroke-linejoin:round;stroke-opacity:1;display:inline" />
    <path
       d="m 70.073023,315.30759 c 5.11431,0 9.2786,4.16429 9.2786,9.2786 0,5.11432 -4.16429,9.2786 -9.2786,9.2786 -5.11432,0 -9.27861,-4.16428 -9.27861,-9.2786 0,-5.11431 4.16429,-9.2786 9.27861,-9.2786 z m 0,1.99943 c -4.03344,0 -7.27918,3.24573 -7.27918,7.27917 0,4.03344 3.24574,7.27917 7.27918,7.27917 4.03343,0 7.27917,-3.24573 7.27917,-7.27917 0,-4.03344 -3.24574,-7.27917 -7.27917,-7.27917 z"
       transform="translate(0,-213.99972)"
       id="path9911"
       style="font-size:medium;font-style:normal;font-variant:normal;font-weight:normal;font-stretch:normal;text-indent:0;text-align:start;text-decoration:none;line-height:normal;letter-spacing:normal;word-spacing:normal;text-transform:none;direction:ltr;block-progression:tb;writing-mode:lr-tb;text-anchor:start;baseline-shift:baseline;color:#000000;fill:#ffffff;fill-opacity:1;stroke:#ffffff;stroke-width:2;marker:none;visibility:visible;display:inline;overflow:visible;enable-background:accumulate;font-family:Sans;-inkscape-font-specification:Sans" />
    <path
       d="m 31.593113,364.39424 c 5.11431,0 9.27861,4.16429 9.27861,9.2786 0,5.11432 -4.16429,9.2786 -9.27861,9.2786 -5.11431,0 -9.27861,-4.16428 -9.27861,-9.2786 0,-5.11431 4.16429,-9.2786 9.27861,-9.2786 z m 0,1.99943 c -4.03344,0 -7.27917,3.24573 -7.27917,7.27917 0,4.03344 3.24574,7.27917 7.27917,7.27917 4.03344,0 7.27917,-3.24573 7.27917,-7.27917 0,-4.03344 -3.24574,-7.27917 -7.27917,-7.27917 z"
       transform="translate(0,-213.99972)"
       id="path9913"
       style="font-size:medium;font-style:normal;font-variant:normal;font-weight:normal;font-stretch:normal;text-indent:0;text-align:start;text-decoration:none;line-height:normal;letter-spacing:normal;word-spacing:normal;text-transform:none;direction:ltr;block-progression:tb;writing-mode:lr-tb;text-anchor:start;baseline-shift:baseline;color:#000000;fill:#ffffff;fill-opacity:1;stroke:#ffffff;stroke-width:2;marker:none;visibility:visible;display:inline;overflow:visible;enable-background:accumulate;font-family:Sans;-inkscape-font-specification:Sans" />
    <path
       d="m 63.887463,331.5807 -27.56818,34.27611"
       transform="translate(0,-213.99972)"
       id="path9915"
       style="fill:#ffffff;stroke:#ffffff;stroke-width:2.87107372;stroke-linecap:round;stroke-linejoin:round;stroke-opacity:1;display:inline" />
    <path
       d="m 30.432043,383.5317 0,63.78723"
       transform="translate(0,-213.99972)"
       id="path9917"
       style="fill:#ffffff;stroke:#ffffff;stroke-width:2;stroke-linecap:round;stroke-linejoin:round;stroke-opacity:1;display:inline" />
    <path
       d="m 38.791013,474.10943 c 0.0724,0.38943 0.18823,0.85444 0.74856,1.29007 0.41406,0.32191 0.98649,0.55835 1.52895,0.55743 0.64498,-10e-4 1.31227,-0.25546 1.81564,-0.66892 0.49934,-0.41018 0.55744,-1.16265 0.55744,-1.16265 0,0 -0.0691,-9.16348 -0.15926,-13.58293 -0.008,-0.39123 -0.35303,-0.70669 -0.60521,-1.00591 -0.52848,-0.62702 -1.07195,-0.97041 -1.86275,-1.60692 -0.79081,-0.63652 -1.55529,-1.06654 -1.95966,-1.51471 -0.80095,-0.88769 -1.01931,-2.03862 -1.01931,-2.03862 l -0.0637,-7.03959 -12.80505,-0.0956 0,6.6255 -5.6062,6.88033 -0.50965,1.27414 0,21.91512 0.76448,1.01931 1.78379,0.25482 1.52895,10e-6 m 15.86298,-18.92087 0,24.84563 m -5.28766,-24.87242 0,24.42647 c 0,0 0.21513,0.8497 0.50966,1.14672 0.36134,0.36439 0.89999,0.52843 1.40154,0.63707 0.45659,0.0989 0.9404,0.0748 1.40155,0 0.33143,-0.0538 0.6839,-0.12126 0.9556,-0.31854 0.49146,-0.35685 1.08302,-1.46525 1.08302,-1.46525 m -10.19308,-24.42607 0,26.71952 c 0,0 0.21513,0.8497 0.50966,1.14672 0.36134,0.36439 0.89999,0.52843 1.40154,0.63707 0.45659,0.0989 0.9404,0.0748 1.40155,0 0.26514,-0.043 0.53321,-0.11821 0.76448,-0.25483 0.32347,-0.19109 0.58221,-0.48051 0.82819,-0.76448 0.26996,-0.31166 0.70077,-1.01931 0.70077,-1.01931 m -10.57532,-26.46509 0,23.91682 c 0,0 0.21513,0.8497 0.50966,1.14672 0.36134,0.36439 0.89999,0.52843 1.40154,0.63707 0.45659,0.0989 0.9404,0.0748 1.40155,0 0.26514,-0.043 0.50658,-0.17973 0.76448,-0.25483 0.25219,-0.0734 0.76448,-0.19112 0.76448,-0.19112"
       transform="translate(0,-213.99972)"
       id="path9919"
       style="fill:none;stroke:#ffffff;stroke-width:2;stroke-linecap:round;stroke-linejoin:round;stroke-opacity:1;display:inline" />
  </g>
  <g
     id="layer7"
     style="display:none">
    <path
       d="M 137.13138,322.35456 z"
       transform="translate(0,-213.99972)"
       id="path9935"
       style="fill:#ffffff;stroke:#ffffff;stroke-width:1px;stroke-linecap:round;stroke-linejoin:round;stroke-opacity:1;display:inline" />
    <path
       d="m 128.65334,238.11515 c -16.48521,0 -29.875004,13.3898 -29.875004,29.875 0,16.22227 12.971174,29.42593 29.093754,29.84375 l 0,7.65625 0.59375,0 -43.906254,7.25 -0.15625,0 -0.125,0.0937 c 0,0 -2.946962,1.50236 -4.4375,2.21875 -0.134424,0.0646 -0.308081,0.0752 -0.40625,0.1875 -0.09326,0.10666 -0.08377,0.2707 -0.125,0.40625 -0.515915,1.69625 -1.53125,5.09375 -1.53125,5.09375 l -0.0625,0.1875 0,0.21875 14.875,140.25 0.0937,0.875 0.90625,0 67.906254,0 0.875,0 0.125,-0.875 15.53125,-139.125 0,-0.1875 -0.0312,-0.1875 -0.1875,-0.6875 c -0.002,-0.0204 0.002,-0.0421 0,-0.0625 -0.10586,-0.97434 -0.36509,-1.88918 -0.75,-2.75 l -0.40625,-1.59375 -0.0625,-0.3125 -0.25,-0.21875 -3.09375,-2.65625 -0.21875,-0.15625 -0.25,-0.0625 -42.90625,-7.90625 0,-7.65625 c 15.91885,-0.64346 28.65625,-13.76861 28.65625,-29.84375 0,-16.4852 -13.3898,-29.875 -29.875,-29.875 z m 0,2 c 15.40432,0 27.875,12.47068 27.875,27.875 0,15.40433 -12.47068,27.875 -27.875,27.875 -15.40433,0 -27.875,-12.47067 -27.875,-27.875 0,-15.40432 12.47067,-27.875 27.875,-27.875 z m 5.4375,68.1875 30.3125,5.59375 c -3.00521,1.53764 -5.09375,4.65031 -5.09375,8.25 0,5.11432 4.16694,9.28125 9.28125,9.28125 2.6293,0 4.99715,-1.11048 6.6875,-2.875 l -14.6875,131.71875 -27.6875,0 c 2.89208,-1.57354 4.875,-4.64016 4.875,-8.15625 0,-5.11431 -4.16693,-9.28125 -9.28125,-9.28125 -5.11431,0 -9.28125,4.16694 -9.28125,9.28125 0,3.5161 1.98292,6.58271 4.875,8.15625 l -29.593754,0 -13.96875,-131.875 c 1.698211,1.85908 4.134741,3.03125 6.84375,3.03125 5.11431,0 9.28125,-4.16693 9.28125,-9.28125 0,-3.7718 -2.25938,-7.01973 -5.5,-8.46875 l 32.343754,-5.34375 c -2.39631,1.67979 -3.96875,4.45319 -3.96875,7.59375 0,5.11432 4.16693,9.28125 9.28125,9.28125 5.11431,0 9.28125,-4.16693 9.28125,-9.28125 0,-3.1562 -1.58352,-5.9479 -4,-7.625 z m -5.28125,0.34375 c 4.03344,0 7.28125,3.24781 7.28125,7.28125 0,4.03344 -3.24782,7.28125 -7.28125,7.28125 -4.03344,0 -7.28125,-3.24781 -7.28125,-7.28125 0,-4.03344 3.24782,-7.28125 7.28125,-7.28125 z m -41.437504,6.21875 c 4.03344,0 7.28125,3.24781 7.28125,7.28125 0,4.03344 -3.24781,7.28125 -7.28125,7.28125 -4.033436,0 -7.28125,-3.24781 -7.28125,-7.28125 0,-4.03344 3.247814,-7.28125 7.28125,-7.28125 z m 81.218754,0 c 2.92424,0 5.43428,1.71212 6.59375,4.1875 l 0.65625,2.59375 c 0.0111,0.16529 0.0312,0.33179 0.0312,0.5 0,4.03344 -3.24781,7.28125 -7.28125,7.28125 -4.03343,0 -7.28125,-3.24781 -7.28125,-7.28125 0,-4.03344 3.24782,-7.28125 7.28125,-7.28125 z M 128.49709,444.8339 c 4.03344,0 7.28125,3.24781 7.28125,7.28125 0,4.03344 -3.24782,7.28125 -7.28125,7.28125 -4.03344,0 -7.28125,-3.24781 -7.28125,-7.28125 0,-4.03344 3.24782,-7.28125 7.28125,-7.28125 z"
       transform="translate(0,-213.99972)"
       id="path9937"
       style="font-size:medium;font-style:normal;font-variant:normal;font-weight:normal;font-stretch:normal;text-indent:0;text-align:start;text-decoration:none;line-height:normal;letter-spacing:normal;word-spacing:normal;text-transform:none;direction:ltr;block-progression:tb;writing-mode:lr-tb;text-anchor:start;baseline-shift:baseline;color:#000000;fill:#ffffff;fill-opacity:1;stroke:#ffffff;stroke-width:2;marker:none;visibility:visible;display:inline;overflow:visible;enable-background:accumulate;font-family:Sans;-inkscape-font-specification:Sans" />
    <path
       d="m 185.23603,315.30759 c -5.11431,0 -9.2786,4.16429 -9.2786,9.2786 0,5.11432 4.16429,9.2786 9.2786,9.2786 5.11432,0 9.27861,-4.16428 9.27861,-9.2786 0,-5.11431 -4.16429,-9.2786 -9.27861,-9.2786 z m 0,1.99943 c 4.03344,0 7.27918,3.24573 7.27918,7.27917 0,4.03344 -3.24574,7.27917 -7.27918,7.27917 -4.03343,0 -7.27917,-3.24573 -7.27917,-7.27917 0,-4.03344 3.24574,-7.27917 7.27917,-7.27917 z"
       transform="translate(0,-213.99972)"
       id="path9939"
       style="font-size:medium;font-style:normal;font-variant:normal;font-weight:normal;font-stretch:normal;text-indent:0;text-align:start;text-decoration:none;line-height:normal;letter-spacing:normal;word-spacing:normal;text-transform:none;direction:ltr;block-progression:tb;writing-mode:lr-tb;text-anchor:start;baseline-shift:baseline;color:#000000;fill:#ffffff;fill-opacity:1;stroke:#ffffff;stroke-width:2;marker:none;visibility:visible;display:inline;overflow:visible;enable-background:accumulate;font-family:Sans;-inkscape-font-specification:Sans" />
    <path
       d="m 237.05,93.454512 c -5.11431,0 -9.27861,4.16429 -9.27861,9.278598 0,5.11432 4.16429,9.2786 9.27861,9.2786 5.11431,0 9.27861,-4.16428 9.27861,-9.2786 0,-5.114308 -4.16429,-9.278598 -9.27861,-9.278598 z m 0,1.99943 c 4.03344,0 7.27917,3.24573 7.27917,7.279168 0,4.03344 -3.24574,7.27917 -7.27917,7.27917 -4.03344,0 -7.27917,-3.24573 -7.27917,-7.27917 0,-4.033438 3.24574,-7.279168 7.27917,-7.279168 z"
       id="path9941"
       style="font-size:medium;font-style:normal;font-variant:normal;font-weight:normal;font-stretch:normal;text-indent:0;text-align:start;text-decoration:none;line-height:normal;letter-spacing:normal;word-spacing:normal;text-transform:none;direction:ltr;block-progression:tb;writing-mode:lr-tb;text-anchor:start;baseline-shift:baseline;color:#000000;fill:#ffffff;fill-opacity:1;stroke:#ffffff;stroke-width:2;marker:none;visibility:visible;display:inline;overflow:visible;enable-background:accumulate;font-family:Sans;-inkscape-font-specification:Sans" />
    <path
       d="m 226.51998,104.40938 -31.81725,5.84156"
       id="path9943"
       style="fill:#ffffff;stroke:#ffffff;stroke-width:2.87107372;stroke-linecap:round;stroke-linejoin:round;stroke-opacity:1;display:inline" />
    <path
       d="m 192.93011,45.327477 41.55023,48.398206"
       id="path9945"
       style="fill:#ffffff;stroke:#ffffff;stroke-width:2;stroke-linecap:round;stroke-linejoin:round;stroke-opacity:1;display:inline" />
    <path
       d="m 166.70753,31.348222 c -0.32115,-0.231907 -0.72586,-0.488497 -1.43193,-0.417385 -0.5218,0.05278 -1.09921,0.276926 -1.49122,0.651617 -0.46614,0.445796 -0.77351,1.090427 -0.85252,1.737025 -0.0785,0.641464 0.39886,1.22614 0.39886,1.22614 0,0 6.37332,6.584461 9.48823,9.720847 0.27575,0.277626 0.74317,0.267846 1.13218,0.310385 0.81517,0.08915 1.44547,-0.03736 2.45704,-0.122375 1.01158,-0.08502 1.86162,-0.301342 2.46356,-0.256004 1.19224,0.08976 2.14448,0.772071 2.14448,0.772071 l 4.90381,5.051015 9.33374,-8.766998 -4.57194,-4.795279 -0.6903,-8.848248 -0.51033,-1.27385 -15.12263,-15.861245 -1.25669,-0.210215 -1.46688,1.046476 -1.10657,1.055042 m 1.57545,24.640447 -17.14482,-17.98222 m 20.9903,14.352849 -16.85559,-17.678835 c 0,0 -0.74205,-0.466524 -1.16014,-0.478265 -0.51299,-0.01422 -1.01611,0.238236 -1.45403,0.506033 -0.3987,0.243452 -0.73222,0.59478 -1.01438,0.967153 -0.20272,0.267631 -0.41132,0.55968 -0.47177,0.889981 -0.10947,0.597419 0.22724,1.807821 0.22724,1.807821 M 179.45332,30.036977 161.0154,10.698521 c 0,0 -0.74204,-0.46651 -1.16018,-0.478263 -0.51298,-0.01422 -1.01609,0.238235 -1.45395,0.50609 -0.39881,0.243381 -0.73225,0.594787 -1.01439,0.967157 -0.16223,0.214053 -0.30433,0.453491 -0.37745,0.711943 -0.10201,0.36159 -0.0896,0.749558 -0.0718,1.124799 0.0195,0.41187 0.19622,1.221283 0.19622,1.221283 m 25.9163,11.856801 -16.50389,-17.3099933 c 0,0 -0.74208,-0.4665124 -1.16018,-0.4782642 -0.51297,-0.014235 -1.01611,0.2382375 -1.45398,0.5060813 -0.39871,0.243452 -0.73222,0.5947854 -1.01439,0.9671152 -0.16224,0.214086 -0.24263,0.479666 -0.37745,0.711987 -0.13156,0.227364 -0.42136,0.665886 -0.42136,0.665886"
       id="path9947"
       style="fill:none;stroke:#ffffff;stroke-width:2;stroke-linecap:round;stroke-linejoin:round;stroke-opacity:1;display:inline" />
    <path
       d="m 128.46584,461.92765 0,4.84375 0,-4.84375 z m -31.156254,6.28125 60.906254,0 -60.906254,0 z m 49.437504,1.1875 0,199.28125 0,-199.28125 z m -39.21875,0.53125 0,199.28125 0,-199.28125 z m 6.09375,0 0,199.28125 0,-199.28125 z m 27.53125,0 0,199.28125 0,-199.28125 z m -60.125004,200.03125 0,8.65625 89.187504,0 0,-8.65625 -89.187504,0 z"
       transform="translate(0,-213.99972)"
       id="path9949"
       style="fill:none;stroke:#ffffff;stroke-width:3;stroke-linecap:round;stroke-linejoin:round;stroke-opacity:1;display:inline" />
    <path
       d="m 70.073023,315.30759 c 5.11431,0 9.2786,4.16429 9.2786,9.2786 0,5.11432 -4.16429,9.2786 -9.2786,9.2786 -5.11432,0 -9.27861,-4.16428 -9.27861,-9.2786 0,-5.11431 4.16429,-9.2786 9.27861,-9.2786 z m 0,1.99943 c -4.03344,0 -7.27918,3.24573 -7.27918,7.27917 0,4.03344 3.24574,7.27917 7.27918,7.27917 4.03343,0 7.27917,-3.24573 7.27917,-7.27917 0,-4.03344 -3.24574,-7.27917 -7.27917,-7.27917 z"
       transform="translate(0,-213.99972)"
       id="path9951"
       style="font-size:medium;font-style:normal;font-variant:normal;font-weight:normal;font-stretch:normal;text-indent:0;text-align:start;text-decoration:none;line-height:normal;letter-spacing:normal;word-spacing:normal;text-transform:none;direction:ltr;block-progression:tb;writing-mode:lr-tb;text-anchor:start;baseline-shift:baseline;color:#000000;fill:#ffffff;fill-opacity:1;stroke:#ffffff;stroke-width:2;marker:none;visibility:visible;display:inline;overflow:visible;enable-background:accumulate;font-family:Sans;-inkscape-font-specification:Sans" />
    <path
       d="m 31.593113,364.39424 c 5.11431,0 9.27861,4.16429 9.27861,9.2786 0,5.11432 -4.16429,9.2786 -9.27861,9.2786 -5.11431,0 -9.27861,-4.16428 -9.27861,-9.2786 0,-5.11431 4.16429,-9.2786 9.27861,-9.2786 z m 0,1.99943 c -4.03344,0 -7.27917,3.24573 -7.27917,7.27917 0,4.03344 3.24574,7.27917 7.27917,7.27917 4.03344,0 7.27917,-3.24573 7.27917,-7.27917 0,-4.03344 -3.24574,-7.27917 -7.27917,-7.27917 z"
       transform="translate(0,-213.99972)"
       id="path9953"
       style="font-size:medium;font-style:normal;font-variant:normal;font-weight:normal;font-stretch:normal;text-indent:0;text-align:start;text-decoration:none;line-height:normal;letter-spacing:normal;word-spacing:normal;text-transform:none;direction:ltr;block-progression:tb;writing-mode:lr-tb;text-anchor:start;baseline-shift:baseline;color:#000000;fill:#ffffff;fill-opacity:1;stroke:#ffffff;stroke-width:2;marker:none;visibility:visible;display:inline;overflow:visible;enable-background:accumulate;font-family:Sans;-inkscape-font-specification:Sans" />
    <path
       d="m 63.887463,331.5807 -27.56818,34.27611"
       transform="translate(0,-213.99972)"
       id="path9955"
       style="fill:#ffffff;stroke:#ffffff;stroke-width:2.87107372;stroke-linecap:round;stroke-linejoin:round;stroke-opacity:1;display:inline" />
    <path
       d="m 30.432043,383.5317 0,63.78723"
       transform="translate(0,-213.99972)"
       id="path9957"
       style="fill:#ffffff;stroke:#ffffff;stroke-width:2;stroke-linecap:round;stroke-linejoin:round;stroke-opacity:1;display:inline" />
    <path
       d="m 38.791013,474.10943 c 0.0724,0.38943 0.18823,0.85444 0.74856,1.29007 0.41406,0.32191 0.98649,0.55835 1.52895,0.55743 0.64498,-10e-4 1.31227,-0.25546 1.81564,-0.66892 0.49934,-0.41018 0.55744,-1.16265 0.55744,-1.16265 0,0 -0.0691,-9.16348 -0.15926,-13.58293 -0.008,-0.39123 -0.35303,-0.70669 -0.60521,-1.00591 -0.52848,-0.62702 -1.07195,-0.97041 -1.86275,-1.60692 -0.79081,-0.63652 -1.55529,-1.06654 -1.95966,-1.51471 -0.80095,-0.88769 -1.01931,-2.03862 -1.01931,-2.03862 l -0.0637,-7.03959 -12.80505,-0.0956 0,6.6255 -5.6062,6.88033 -0.50965,1.27414 0,21.91512 0.76448,1.01931 1.78379,0.25482 1.52895,10e-6 m 15.86298,-18.92087 0,24.84563 m -5.28766,-24.87242 0,24.42647 c 0,0 0.21513,0.8497 0.50966,1.14672 0.36134,0.36439 0.89999,0.52843 1.40154,0.63707 0.45659,0.0989 0.9404,0.0748 1.40155,0 0.33143,-0.0538 0.6839,-0.12126 0.9556,-0.31854 0.49146,-0.35685 1.08302,-1.46525 1.08302,-1.46525 m -10.19308,-24.42607 0,26.71952 c 0,0 0.21513,0.8497 0.50966,1.14672 0.36134,0.36439 0.89999,0.52843 1.40154,0.63707 0.45659,0.0989 0.9404,0.0748 1.40155,0 0.26514,-0.043 0.53321,-0.11821 0.76448,-0.25483 0.32347,-0.19109 0.58221,-0.48051 0.82819,-0.76448 0.26996,-0.31166 0.70077,-1.01931 0.70077,-1.01931 m -10.57532,-26.46509 0,23.91682 c 0,0 0.21513,0.8497 0.50966,1.14672 0.36134,0.36439 0.89999,0.52843 1.40154,0.63707 0.45659,0.0989 0.9404,0.0748 1.40155,0 0.26514,-0.043 0.50658,-0.17973 0.76448,-0.25483 0.25219,-0.0734 0.76448,-0.19112 0.76448,-0.19112"
       transform="translate(0,-213.99972)"
       id="path9959"
       style="fill:none;stroke:#ffffff;stroke-width:2;stroke-linecap:round;stroke-linejoin:round;stroke-opacity:1;display:inline" />
  </g>
</svg>
