<?xml version="1.0" encoding="UTF-8" standalone="no"?>
<!-- Created with Inkscape (http://www.inkscape.org/) -->

<svg
   xmlns:dc="http://purl.org/dc/elements/1.1/"
   xmlns:cc="http://creativecommons.org/ns#"
   xmlns:rdf="http://www.w3.org/1999/02/22-rdf-syntax-ns#"
   xmlns:svg="http://www.w3.org/2000/svg"
   xmlns="http://www.w3.org/2000/svg"
   xmlns:sodipodi="http://sodipodi.sourceforge.net/DTD/sodipodi-0.dtd"
   xmlns:inkscape="http://www.inkscape.org/namespaces/inkscape"
   version="1.1"
   width="110"
   height="220"
   id="svg8552"
   inkscape:version="0.48.2 r9819"
   sodipodi:docname="robot1.svg">
  <sodipodi:namedview
     pagecolor="#ffffff"
     bordercolor="#666666"
     borderopacity="1"
     objecttolerance="10"
     gridtolerance="10"
     guidetolerance="10"
     inkscape:pageopacity="0"
     inkscape:pageshadow="2"
     inkscape:window-width="847"
     inkscape:window-height="657"
     id="namedview3220"
     showgrid="false"
     inkscape:zoom="1.0727273"
     inkscape:cx="55"
     inkscape:cy="110"
     inkscape:window-x="0"
     inkscape:window-y="0"
     inkscape:window-maximized="0"
     inkscape:current-layer="svg8552" />
  <defs
     id="defs8554" />
  <metadata
     id="metadata8557">
    <rdf:RDF>
      <cc:Work
         rdf:about="">
        <dc:format>image/svg+xml</dc:format>
        <dc:type
           rdf:resource="http://purl.org/dc/dcmitype/StillImage" />
        <dc:title />
        <cc:license
           rdf:resource="http://creativecommons.org/licenses/publicdomain/" />
      </cc:Work>
      <cc:License
         rdf:about="http://creativecommons.org/licenses/publicdomain/">
        <cc:permits
           rdf:resource="http://creativecommons.org/ns#Reproduction" />
        <cc:permits
           rdf:resource="http://creativecommons.org/ns#Distribution" />
        <cc:permits
           rdf:resource="http://creativecommons.org/ns#DerivativeWorks" />
      </cc:License>
    </rdf:RDF>
  </metadata>
  <g
     transform="translate(0,-493.99972)"
     id="layer2"
     style="display:inline">
    <g
       transform="matrix(0.66653817,0,0,0.66653817,5.0096461,238.55315)"
       id="g6841">
      <path
         d="M 81.445434,471.09465 z"
         id="path3528"
         style="fill:#ffffff;stroke:#ffffff;stroke-width:1.5002892;stroke-linecap:round;stroke-linejoin:round;stroke-miterlimit:4;stroke-opacity:1;stroke-dasharray:none;display:inline" />
      <path
         d="m 75.679317,413.99976 c -11.211985,0 -20.318703,9.07519 -20.318703,20.24836 0,10.99496 8.822005,19.94399 19.787356,20.22718 l 0,5.18917 0.403824,0 -29.861691,4.91383 -0.106269,0 -0.08502,0.0635 c 0,0 -2.004299,1.01825 -3.018049,1.5038 -0.09143,0.0438 -0.209533,0.051 -0.276301,0.12708 -0.06343,0.0723 -0.05697,0.18347 -0.08501,0.27534 -0.350886,1.14967 -1.04144,3.45239 -1.04144,3.45239 l -0.04251,0.12708 0,0.14827 10.116842,95.05716 0.06373,0.59304 0.616363,0 46.184663,0 0.595108,0 0.08502,-0.59304 10.56318,-94.29467 0,-0.12709 -0.0212,-0.12708 -0.12753,-0.46596 c -0.001,-0.0138 10e-4,-0.0285 0,-0.0424 -0.072,-0.66038 -0.2483,-1.28043 -0.51009,-1.86387 l -0.2763,-1.0802 -0.0425,-0.2118 -0.17003,-0.14826 -2.10413,-1.80033 -0.14878,-0.1059 -0.17003,-0.0424 -29.181566,-5.35861 0,-5.18917 c 10.826789,-0.43612 19.489799,-9.33195 19.489799,-20.22719 0,-11.17316 -9.106722,-20.24836 -20.3187,-20.24836 z m 0,1.35554 c 10.476845,0 18.958452,8.45224 18.958452,18.89282 0,10.44058 -8.481607,18.89282 -18.958452,18.89282 -10.476852,0 -18.958452,-8.45224 -18.958452,-18.89282 0,-10.44058 8.4816,-18.89282 18.958452,-18.89282 z m 3.698173,46.2154 20.616255,3.79127 c -2.043915,1.04217 -3.464381,3.15184 -3.464381,5.5916 0,3.46633 2.834035,6.29055 6.312396,6.29055 1.78825,0 3.39868,-0.75265 4.54833,-1.94859 l -9.989318,89.27494 -18.830929,0 c 1.966973,-1.0665 3.315604,-3.14496 3.315604,-5.52806 0,-3.46632 -2.834028,-6.29054 -6.312399,-6.29054 -3.478365,0 -6.3124,2.82422 -6.3124,6.29054 0,2.38311 1.348631,4.46156 3.315604,5.52806 l -20.127418,0 -9.50048,-89.38084 c 1.154994,1.26003 2.812136,2.05449 4.654598,2.05449 3.478364,0 6.312399,-2.82422 6.312399,-6.29055 0,-2.55641 -1.536658,-4.75776 -3.740681,-5.73986 l 21.997758,-3.62183 c -1.629787,1.13851 -2.699241,3.01823 -2.699241,5.14681 0,3.46633 2.834028,6.29055 6.312399,6.29055 3.478364,0 6.3124,-2.82422 6.3124,-6.29055 0,-2.13918 -1.07699,-4.0313 -2.720496,-5.16799 z m -3.591904,0.23298 c 2.743239,0 4.952152,2.20127 4.952152,4.93501 0,2.73374 -2.20892,4.93501 -4.952152,4.93501 -2.743238,0 -4.952152,-2.20127 -4.952152,-4.93501 0,-2.73374 2.20892,-4.93501 4.952152,-4.93501 z m -28.182634,4.21488 c 2.743238,0 4.952151,2.20127 4.952151,4.93501 0,2.73374 -2.208913,4.93501 -4.952151,4.93501 -2.743237,0 -4.952152,-2.20127 -4.952152,-4.93501 0,-2.73374 2.208915,-4.93501 4.952152,-4.93501 z m 55.238808,0 c 1.98885,0 3.69599,1.16042 4.48457,2.83816 l 0.44633,1.75796 c 0.008,0.11203 0.0212,0.22488 0.0212,0.33889 0,2.73374 -2.20891,4.93501 -4.95215,4.93501 -2.74323,0 -4.952153,-2.20127 -4.952153,-4.93501 0,-2.73374 2.208923,-4.93501 4.952153,-4.93501 z M 75.573048,554.1074 c 2.743238,0 4.952151,2.20127 4.952151,4.93501 0,2.73375 -2.208919,4.93501 -4.952151,4.93501 -2.743239,0 -4.952152,-2.20126 -4.952152,-4.93501 0,-2.73374 2.20892,-4.93501 4.952152,-4.93501 z"
         id="path3530"
         style="font-size:medium;font-style:normal;font-variant:normal;font-weight:normal;font-stretch:normal;text-indent:0;text-align:start;text-decoration:none;line-height:normal;letter-spacing:normal;word-spacing:normal;text-transform:none;direction:ltr;block-progression:tb;writing-mode:lr-tb;text-anchor:start;baseline-shift:baseline;color:#000000;fill:#ffffff;fill-opacity:1;stroke:#ffffff;stroke-width:1.5002892;stroke-miterlimit:4;stroke-dasharray:none;marker:none;visibility:visible;display:inline;overflow:visible;enable-background:accumulate;font-family:Sans;-inkscape-font-specification:Sans" />
      <path
         d="m 114.16255,466.31843 c -3.47836,0 -6.31059,2.82243 -6.31059,6.28875 0,3.46633 2.83223,6.28876 6.31059,6.28876 3.47837,0 6.31061,-2.82243 6.31061,-6.28876 0,-3.46632 -2.83224,-6.28875 -6.31061,-6.28875 z m 0,1.35515 c 2.74324,0 4.95075,2.19986 4.95075,4.9336 0,2.73375 -2.20751,4.9336 -4.95075,4.9336 -2.74323,0 -4.95073,-2.19985 -4.95073,-4.9336 0,-2.73374 2.2075,-4.9336 4.95073,-4.9336 z"
         id="path3532"
         style="font-size:medium;font-style:normal;font-variant:normal;font-weight:normal;font-stretch:normal;text-indent:0;text-align:start;text-decoration:none;line-height:normal;letter-spacing:normal;word-spacing:normal;text-transform:none;direction:ltr;block-progression:tb;writing-mode:lr-tb;text-anchor:start;baseline-shift:baseline;color:#000000;fill:#ffffff;fill-opacity:1;stroke:#ffffff;stroke-width:1.5002892;stroke-miterlimit:4;stroke-dasharray:none;marker:none;visibility:visible;display:inline;overflow:visible;enable-background:accumulate;font-family:Sans;-inkscape-font-specification:Sans" />
      <path
         d="m 140.33366,499.58786 c -3.47837,0 -6.31061,2.82243 -6.31061,6.28875 0,3.46633 2.83224,6.28876 6.31061,6.28876 3.47836,0 6.3106,-2.82243 6.3106,-6.28876 0,-3.46632 -2.83223,-6.28875 -6.3106,-6.28875 z m 0,1.35516 c 2.74324,0 4.95074,2.19985 4.95074,4.93359 0,2.73375 -2.20751,4.9336 -4.95074,4.9336 -2.74324,0 -4.95074,-2.19985 -4.95074,-4.9336 0,-2.73374 2.20751,-4.93359 4.95074,-4.93359 z"
         id="path3534"
         style="font-size:medium;font-style:normal;font-variant:normal;font-weight:normal;font-stretch:normal;text-indent:0;text-align:start;text-decoration:none;line-height:normal;letter-spacing:normal;word-spacing:normal;text-transform:none;direction:ltr;block-progression:tb;writing-mode:lr-tb;text-anchor:start;baseline-shift:baseline;color:#000000;fill:#ffffff;fill-opacity:1;stroke:#ffffff;stroke-width:1.5002892;stroke-miterlimit:4;stroke-dasharray:none;marker:none;visibility:visible;display:inline;overflow:visible;enable-background:accumulate;font-family:Sans;-inkscape-font-specification:Sans" />
      <path
         d="m 118.3695,477.34785 18.74978,23.2313"
         id="path3536"
         style="fill:#ffffff;stroke:#ffffff;stroke-width:1.5002892;stroke-linecap:round;stroke-linejoin:round;stroke-miterlimit:4;stroke-opacity:1;stroke-dasharray:none;display:inline" />
      <path
         d="m 141.12333,512.55865 0,43.23303"
         id="path3538"
         style="fill:#ffffff;stroke:#ffffff;stroke-width:1.5002892;stroke-linecap:round;stroke-linejoin:round;stroke-miterlimit:4;stroke-opacity:1;stroke-dasharray:none;display:inline" />
      <path
         d="m 135.43819,573.94946 c -0.0492,0.26395 -0.12801,0.57912 -0.50911,0.87437 -0.28161,0.21818 -0.67093,0.37844 -1.03987,0.37781 -0.43867,-6.8e-4 -0.89251,-0.17314 -1.23486,-0.45337 -0.33962,-0.27801 -0.37913,-0.78801 -0.37913,-0.78801 0,0 0.047,-6.21073 0.10831,-9.20609 0.005,-0.26517 0.24011,-0.47898 0.41162,-0.68178 0.35943,-0.42497 0.72906,-0.65771 1.2669,-1.08912 0.53785,-0.43141 1.05779,-0.72287 1.33281,-1.02662 0.54475,-0.60165 0.69326,-1.38172 0.69326,-1.38172 l 0.0433,-4.77122 8.70902,-0.0648 0,4.49056 3.81291,4.66328 0.34662,0.86357 0,14.8534 -0.51994,0.69085 -1.2132,0.17271 -1.03987,10e-6 m -10.7888,-12.82399 0,16.83961 m 3.59627,-16.85776 0,16.55551 c 0,0 -0.14632,0.5759 -0.34663,0.77721 -0.24576,0.24697 -0.61211,0.35816 -0.95322,0.43179 -0.31054,0.067 -0.63959,0.0507 -0.95323,0 -0.22542,-0.0365 -0.46514,-0.0822 -0.64993,-0.2159 -0.33425,-0.24186 -0.73659,-0.9931 -0.73659,-0.9931 m 6.93256,-16.55524 0,18.10967 c 0,0 -0.14631,0.5759 -0.34663,0.77721 -0.24576,0.24697 -0.61211,0.35816 -0.95322,0.43179 -0.31054,0.067 -0.63959,0.0507 -0.95323,0 -0.18033,-0.0292 -0.36265,-0.0801 -0.51994,-0.17272 -0.22,-0.12951 -0.39598,-0.32567 -0.56327,-0.51814 -0.18361,-0.21123 -0.47661,-0.69086 -0.47661,-0.69086 m 7.19252,-17.93722 0,16.21009 c 0,0 -0.14631,0.5759 -0.34663,0.77721 -0.24575,0.24697 -0.6121,0.35815 -0.95322,0.43178 -0.31054,0.067 -0.63959,0.0507 -0.95323,0 -0.18032,-0.0291 -0.34453,-0.12181 -0.51994,-0.17271 -0.17152,-0.0498 -0.51994,-0.12954 -0.51994,-0.12954"
         id="path3540"
         style="fill:none;stroke:#ffffff;stroke-width:1.5002892;stroke-linecap:round;stroke-linejoin:round;stroke-miterlimit:4;stroke-opacity:1;stroke-dasharray:none;display:inline" />
      <path
         d="m 75.551794,565.69303 0,3.28294 0,-3.28294 z m -21.190112,4.25723 41.423796,0 -41.423796,0 z m 33.623626,0.80486 0,135.06673 0,-135.06673 z m -26.673607,0.36006 0,135.06674 0,-135.06674 z m 4.144504,0 0,135.06674 0,-135.06674 z m 18.72466,0 0,135.06674 0,-135.06674 z m -40.892449,135.57507 0,5.86694 60.658544,0 0,-5.86694 -60.658544,0 z"
         id="path3542"
         style="fill:none;stroke:#ffffff;stroke-width:1.5002892;stroke-linecap:round;stroke-linejoin:round;stroke-miterlimit:4;stroke-opacity:1;stroke-dasharray:none;display:inline" />
      <path
         d="m 35.837446,466.31843 c 3.478364,0 6.310597,2.82243 6.310597,6.28875 0,3.46633 -2.832233,6.28876 -6.310597,6.28876 -3.478371,0 -6.310604,-2.82243 -6.310604,-6.28876 0,-3.46632 2.832233,-6.28875 6.310604,-6.28875 z m 0,1.35515 c -2.743239,0 -4.950744,2.19986 -4.950744,4.9336 0,2.73375 2.207505,4.9336 4.950744,4.9336 2.743232,0 4.950737,-2.19985 4.950737,-4.9336 0,-2.73374 -2.207505,-4.9336 -4.950737,-4.9336 z"
         id="path3544"
         style="font-size:medium;font-style:normal;font-variant:normal;font-weight:normal;font-stretch:normal;text-indent:0;text-align:start;text-decoration:none;line-height:normal;letter-spacing:normal;word-spacing:normal;text-transform:none;direction:ltr;block-progression:tb;writing-mode:lr-tb;text-anchor:start;baseline-shift:baseline;color:#000000;fill:#ffffff;fill-opacity:1;stroke:#ffffff;stroke-width:1.5002892;stroke-miterlimit:4;stroke-dasharray:none;marker:none;visibility:visible;display:inline;overflow:visible;enable-background:accumulate;font-family:Sans;-inkscape-font-specification:Sans" />
      <path
         d="m 9.6663416,499.58786 c 3.4783644,0 6.3106044,2.82243 6.3106044,6.28875 0,3.46633 -2.832233,6.28876 -6.3106044,6.28876 -3.4783642,0 -6.3106039,-2.82243 -6.3106039,-6.28876 0,-3.46632 2.8322329,-6.28875 6.3106039,-6.28875 z m 0,1.35516 c -2.7432387,0 -4.9507371,2.19985 -4.9507371,4.93359 0,2.73375 2.2075052,4.9336 4.9507371,4.9336 2.7432384,0 4.9507374,-2.19985 4.9507374,-4.9336 0,-2.73374 -2.207505,-4.93359 -4.9507374,-4.93359 z"
         id="path3546"
         style="font-size:medium;font-style:normal;font-variant:normal;font-weight:normal;font-stretch:normal;text-indent:0;text-align:start;text-decoration:none;line-height:normal;letter-spacing:normal;word-spacing:normal;text-transform:none;direction:ltr;block-progression:tb;writing-mode:lr-tb;text-anchor:start;baseline-shift:baseline;color:#000000;fill:#ffffff;fill-opacity:1;stroke:#ffffff;stroke-width:1.5002892;stroke-miterlimit:4;stroke-dasharray:none;marker:none;visibility:visible;display:inline;overflow:visible;enable-background:accumulate;font-family:Sans;-inkscape-font-specification:Sans" />
      <path
         d="m 31.630499,477.34785 -18.749776,23.2313"
         id="path3548"
         style="fill:#ffffff;stroke:#ffffff;stroke-width:1.5002892;stroke-linecap:round;stroke-linejoin:round;stroke-miterlimit:4;stroke-opacity:1;stroke-dasharray:none;display:inline" />
      <path
         d="m 8.8766702,512.55865 0,43.23303"
         id="path3550"
         style="fill:#ffffff;stroke:#ffffff;stroke-width:1.5002892;stroke-linecap:round;stroke-linejoin:round;stroke-miterlimit:4;stroke-opacity:1;stroke-dasharray:none;display:inline" />
      <path
         d="m 14.561805,573.94946 c 0.04924,0.26395 0.12802,0.57912 0.509114,0.87437 0.281612,0.21818 0.670935,0.37844 1.039875,0.37781 0.438666,-6.8e-4 0.892506,-0.17314 1.23486,-0.45337 0.339613,-0.27801 0.379128,-0.78801 0.379128,-0.78801 0,0 -0.047,-6.21073 -0.108316,-9.20609 -0.0054,-0.26517 -0.240104,-0.47898 -0.411618,-0.68178 -0.359432,-0.42497 -0.729059,-0.65771 -1.266901,-1.08912 -0.537848,-0.43141 -1.05779,-0.72287 -1.332811,-1.02662 -0.544745,-0.60165 -0.693257,-1.38172 -0.693257,-1.38172 l -0.04332,-4.77122 -8.70902,-0.0648 0,4.49056 -3.8129104,4.66328 -0.3466251,0.86357 0,14.8534 0.5199411,0.69085 1.2131981,0.17271 1.0398754,10e-6 m 10.7887909,-12.82399 0,16.83961 m -3.596264,-16.85776 0,16.55551 c 0,0 0.146315,0.5759 0.346632,0.77721 0.245756,0.24697 0.612105,0.35816 0.953221,0.43179 0.310538,0.067 0.639589,0.0507 0.953228,0 0.225413,-0.0365 0.465136,-0.0822 0.649926,-0.2159 0.334254,-0.24186 0.736588,-0.9931 0.736588,-0.9931 m -6.932557,-16.55524 0,18.10967 c 0,0 0.146315,0.5759 0.3466319,0.77721 0.245756,0.24697 0.6121047,0.35816 0.9532208,0.43179 0.3105377,0.067 0.6395885,0.0507 0.9532276,0 0.1803277,-0.0292 0.3626487,-0.0801 0.5199407,-0.17272 0.22,-0.12951 0.395975,-0.32567 0.563272,-0.51814 0.183606,-0.21123 0.476611,-0.69086 0.476611,-0.69086 m -7.1925278,-17.93722 0,16.21009 c 0,0 0.146315,0.5759 0.3466319,0.77721 0.2457559,0.24697 0.6121046,0.35815 0.9532208,0.43178 0.3105377,0.067 0.6395884,0.0507 0.9532275,0 0.1803281,-0.0291 0.3445372,-0.12181 0.5199411,-0.17271 0.1715205,-0.0498 0.5199411,-0.12954 0.5199411,-0.12954"
         id="path3552"
         style="fill:none;stroke:#ffffff;stroke-width:1.5002892;stroke-linecap:round;stroke-linejoin:round;stroke-miterlimit:4;stroke-opacity:1;stroke-dasharray:none;display:inline" />
      <path
         d="M 81.445434,471.09465 z"
         id="path3554"
         style="fill:#ffffff;stroke:#ffffff;stroke-width:1.5002892;stroke-linecap:round;stroke-linejoin:round;stroke-miterlimit:4;stroke-opacity:1;stroke-dasharray:none;display:inline" />
      <path
         d="m 75.679317,413.99976 c -11.211985,0 -20.318703,9.07519 -20.318703,20.24836 0,10.99496 8.822005,19.94399 19.787356,20.22718 l 0,5.18917 0.403824,0 -29.861691,4.91383 -0.106269,0 -0.08502,0.0635 c 0,0 -2.004299,1.01825 -3.018049,1.5038 -0.09143,0.0438 -0.209533,0.051 -0.276301,0.12708 -0.06343,0.0723 -0.05697,0.18347 -0.08501,0.27534 -0.350886,1.14967 -1.04144,3.45239 -1.04144,3.45239 l -0.04251,0.12708 0,0.14827 10.116842,95.05716 0.06373,0.59304 0.616363,0 46.184663,0 0.595108,0 0.08502,-0.59304 10.56318,-94.29467 0,-0.12709 -0.0212,-0.12708 -0.12753,-0.46596 c -0.001,-0.0138 10e-4,-0.0285 0,-0.0424 -0.072,-0.66038 -0.2483,-1.28043 -0.51009,-1.86387 l -0.2763,-1.0802 -0.0425,-0.2118 -0.17003,-0.14826 -2.10413,-1.80033 -0.14878,-0.1059 -0.17003,-0.0424 -29.181566,-5.35861 0,-5.18917 c 10.826789,-0.43612 19.489799,-9.33195 19.489799,-20.22719 0,-11.17316 -9.106722,-20.24836 -20.3187,-20.24836 z m 0,1.35554 c 10.476845,0 18.958452,8.45224 18.958452,18.89282 0,10.44058 -8.481607,18.89282 -18.958452,18.89282 -10.476852,0 -18.958452,-8.45224 -18.958452,-18.89282 0,-10.44058 8.4816,-18.89282 18.958452,-18.89282 z m 3.698173,46.2154 20.616255,3.79127 c -2.043915,1.04217 -3.464381,3.15184 -3.464381,5.5916 0,3.46633 2.834035,6.29055 6.312396,6.29055 1.78825,0 3.39868,-0.75265 4.54833,-1.94859 l -9.989318,89.27494 -18.830929,0 c 1.966973,-1.0665 3.315604,-3.14496 3.315604,-5.52806 0,-3.46632 -2.834028,-6.29054 -6.312399,-6.29054 -3.478365,0 -6.3124,2.82422 -6.3124,6.29054 0,2.38311 1.348631,4.46156 3.315604,5.52806 l -20.127418,0 -9.50048,-89.38084 c 1.154994,1.26003 2.812136,2.05449 4.654598,2.05449 3.478364,0 6.312399,-2.82422 6.312399,-6.29055 0,-2.55641 -1.536658,-4.75776 -3.740681,-5.73986 l 21.997758,-3.62183 c -1.629787,1.13851 -2.699241,3.01823 -2.699241,5.14681 0,3.46633 2.834028,6.29055 6.312399,6.29055 3.478364,0 6.3124,-2.82422 6.3124,-6.29055 0,-2.13918 -1.07699,-4.0313 -2.720496,-5.16799 z m -3.591904,0.23298 c 2.743239,0 4.952152,2.20127 4.952152,4.93501 0,2.73374 -2.20892,4.93501 -4.952152,4.93501 -2.743238,0 -4.952152,-2.20127 -4.952152,-4.93501 0,-2.73374 2.20892,-4.93501 4.952152,-4.93501 z m -28.182634,4.21488 c 2.743238,0 4.952151,2.20127 4.952151,4.93501 0,2.73374 -2.208913,4.93501 -4.952151,4.93501 -2.743237,0 -4.952152,-2.20127 -4.952152,-4.93501 0,-2.73374 2.208915,-4.93501 4.952152,-4.93501 z m 55.238808,0 c 1.98885,0 3.69599,1.16042 4.48457,2.83816 l 0.44633,1.75796 c 0.008,0.11203 0.0212,0.22488 0.0212,0.33889 0,2.73374 -2.20891,4.93501 -4.95215,4.93501 -2.74323,0 -4.952153,-2.20127 -4.952153,-4.93501 0,-2.73374 2.208923,-4.93501 4.952153,-4.93501 z M 75.573048,554.1074 c 2.743238,0 4.952151,2.20127 4.952151,4.93501 0,2.73375 -2.208919,4.93501 -4.952151,4.93501 -2.743239,0 -4.952152,-2.20126 -4.952152,-4.93501 0,-2.73374 2.20892,-4.93501 4.952152,-4.93501 z"
         id="path3556"
         style="font-size:medium;font-style:normal;font-variant:normal;font-weight:normal;font-stretch:normal;text-indent:0;text-align:start;text-decoration:none;line-height:normal;letter-spacing:normal;word-spacing:normal;text-transform:none;direction:ltr;block-progression:tb;writing-mode:lr-tb;text-anchor:start;baseline-shift:baseline;color:#000000;fill:#ffffff;fill-opacity:1;stroke:#ffffff;stroke-width:1.5002892;stroke-miterlimit:4;stroke-dasharray:none;marker:none;visibility:visible;display:inline;overflow:visible;enable-background:accumulate;font-family:Sans;-inkscape-font-specification:Sans" />
      <path
         d="m 114.16255,466.31843 c -3.47836,0 -6.31059,2.82243 -6.31059,6.28875 0,3.46633 2.83223,6.28876 6.31059,6.28876 3.47837,0 6.31061,-2.82243 6.31061,-6.28876 0,-3.46632 -2.83224,-6.28875 -6.31061,-6.28875 z m 0,1.35515 c 2.74324,0 4.95075,2.19986 4.95075,4.9336 0,2.73375 -2.20751,4.9336 -4.95075,4.9336 -2.74323,0 -4.95073,-2.19985 -4.95073,-4.9336 0,-2.73374 2.2075,-4.9336 4.95073,-4.9336 z"
         id="path3558"
         style="font-size:medium;font-style:normal;font-variant:normal;font-weight:normal;font-stretch:normal;text-indent:0;text-align:start;text-decoration:none;line-height:normal;letter-spacing:normal;word-spacing:normal;text-transform:none;direction:ltr;block-progression:tb;writing-mode:lr-tb;text-anchor:start;baseline-shift:baseline;color:#000000;fill:#ffffff;fill-opacity:1;stroke:#ffffff;stroke-width:1.5002892;stroke-miterlimit:4;stroke-dasharray:none;marker:none;visibility:visible;display:inline;overflow:visible;enable-background:accumulate;font-family:Sans;-inkscape-font-specification:Sans" />
      <path
         d="m 75.551794,565.69303 0,3.28294 0,-3.28294 z m -21.190112,4.25723 41.423796,0 -41.423796,0 z m 33.623626,0.80486 0,135.06673 0,-135.06673 z m -26.673607,0.36006 0,135.06674 0,-135.06674 z m 4.144504,0 0,135.06674 0,-135.06674 z m 18.72466,0 0,135.06674 0,-135.06674 z m -40.892449,135.57507 0,5.86694 60.658544,0 0,-5.86694 -60.658544,0 z"
         id="path3564"
         style="fill:none;stroke:#ffffff;stroke-width:1.5002892;stroke-linecap:round;stroke-linejoin:round;stroke-miterlimit:4;stroke-opacity:1;stroke-dasharray:none;display:inline" />
      <path
         d="m 35.837446,466.31843 c 3.478364,0 6.310597,2.82243 6.310597,6.28875 0,3.46633 -2.832233,6.28876 -6.310597,6.28876 -3.478371,0 -6.310604,-2.82243 -6.310604,-6.28876 0,-3.46632 2.832233,-6.28875 6.310604,-6.28875 z m 0,1.35515 c -2.743239,0 -4.950744,2.19986 -4.950744,4.9336 0,2.73375 2.207505,4.9336 4.950744,4.9336 2.743232,0 4.950737,-2.19985 4.950737,-4.9336 0,-2.73374 -2.207505,-4.9336 -4.950737,-4.9336 z"
         id="path3566"
         style="font-size:medium;font-style:normal;font-variant:normal;font-weight:normal;font-stretch:normal;text-indent:0;text-align:start;text-decoration:none;line-height:normal;letter-spacing:normal;word-spacing:normal;text-transform:none;direction:ltr;block-progression:tb;writing-mode:lr-tb;text-anchor:start;baseline-shift:baseline;color:#000000;fill:#ffffff;fill-opacity:1;stroke:#ffffff;stroke-width:1.5002892;stroke-miterlimit:4;stroke-dasharray:none;marker:none;visibility:visible;display:inline;overflow:visible;enable-background:accumulate;font-family:Sans;-inkscape-font-specification:Sans" />
      <path
         d="m 9.6663416,499.58786 c 3.4783644,0 6.3106044,2.82243 6.3106044,6.28875 0,3.46633 -2.832233,6.28876 -6.3106044,6.28876 -3.4783642,0 -6.3106039,-2.82243 -6.3106039,-6.28876 0,-3.46632 2.8322329,-6.28875 6.3106039,-6.28875 z m 0,1.35516 c -2.7432387,0 -4.9507371,2.19985 -4.9507371,4.93359 0,2.73375 2.2075052,4.9336 4.9507371,4.9336 2.7432384,0 4.9507374,-2.19985 4.9507374,-4.9336 0,-2.73374 -2.207505,-4.93359 -4.9507374,-4.93359 z"
         id="path3568"
         style="font-size:medium;font-style:normal;font-variant:normal;font-weight:normal;font-stretch:normal;text-indent:0;text-align:start;text-decoration:none;line-height:normal;letter-spacing:normal;word-spacing:normal;text-transform:none;direction:ltr;block-progression:tb;writing-mode:lr-tb;text-anchor:start;baseline-shift:baseline;color:#000000;fill:#ffffff;fill-opacity:1;stroke:#ffffff;stroke-width:1.5002892;stroke-miterlimit:4;stroke-dasharray:none;marker:none;visibility:visible;display:inline;overflow:visible;enable-background:accumulate;font-family:Sans;-inkscape-font-specification:Sans" />
      <path
         d="m 31.630499,477.34785 -18.749776,23.2313"
         id="path3570"
         style="fill:#ffffff;stroke:#ffffff;stroke-width:1.5002892;stroke-linecap:round;stroke-linejoin:round;stroke-miterlimit:4;stroke-opacity:1;stroke-dasharray:none;display:inline" />
      <path
         d="m 8.8766702,512.55865 0,43.23303"
         id="path3572"
         style="fill:#ffffff;stroke:#ffffff;stroke-width:1.5002892;stroke-linecap:round;stroke-linejoin:round;stroke-miterlimit:4;stroke-opacity:1;stroke-dasharray:none;display:inline" />
      <path
         d="m 14.561805,573.94946 c 0.04924,0.26395 0.12802,0.57912 0.509114,0.87437 0.281612,0.21818 0.670935,0.37844 1.039875,0.37781 0.438666,-6.8e-4 0.892506,-0.17314 1.23486,-0.45337 0.339613,-0.27801 0.379128,-0.78801 0.379128,-0.78801 0,0 -0.047,-6.21073 -0.108316,-9.20609 -0.0054,-0.26517 -0.240104,-0.47898 -0.411618,-0.68178 -0.359432,-0.42497 -0.729059,-0.65771 -1.266901,-1.08912 -0.537848,-0.43141 -1.05779,-0.72287 -1.332811,-1.02662 -0.544745,-0.60165 -0.693257,-1.38172 -0.693257,-1.38172 l -0.04332,-4.77122 -8.70902,-0.0648 0,4.49056 -3.8129104,4.66328 -0.3466251,0.86357 0,14.8534 0.5199411,0.69085 1.2131981,0.17271 1.0398754,10e-6 m 10.7887909,-12.82399 0,16.83961 m -3.596264,-16.85776 0,16.55551 c 0,0 0.146315,0.5759 0.346632,0.77721 0.245756,0.24697 0.612105,0.35816 0.953221,0.43179 0.310538,0.067 0.639589,0.0507 0.953228,0 0.225413,-0.0365 0.465136,-0.0822 0.649926,-0.2159 0.334254,-0.24186 0.736588,-0.9931 0.736588,-0.9931 m -6.932557,-16.55524 0,18.10967 c 0,0 0.146315,0.5759 0.3466319,0.77721 0.245756,0.24697 0.6121047,0.35816 0.9532208,0.43179 0.3105377,0.067 0.6395885,0.0507 0.9532276,0 0.1803277,-0.0292 0.3626487,-0.0801 0.5199407,-0.17272 0.22,-0.12951 0.395975,-0.32567 0.563272,-0.51814 0.183606,-0.21123 0.476611,-0.69086 0.476611,-0.69086 m -7.1925278,-17.93722 0,16.21009 c 0,0 0.146315,0.5759 0.3466319,0.77721 0.2457559,0.24697 0.6121046,0.35815 0.9532208,0.43178 0.3105377,0.067 0.6395884,0.0507 0.9532275,0 0.1803281,-0.0291 0.3445372,-0.12181 0.5199411,-0.17271 0.1715205,-0.0498 0.5199411,-0.12954 0.5199411,-0.12954"
         id="path3574"
         style="fill:none;stroke:#ffffff;stroke-width:1.5002892;stroke-linecap:round;stroke-linejoin:round;stroke-miterlimit:4;stroke-opacity:1;stroke-dasharray:none;display:inline" />
    </g>
  </g>
</svg>
